<svg enable-background="new 0 0 128 128" viewBox="0 0 128 128" xmlns="http://www.w3.org/2000/svg" xmlns:xlink="http://www.w3.org/1999/xlink"><radialGradient id="a" cx="24.75" cy="32.625" gradientUnits="userSpaceOnUse" r="49.417"><stop offset="0" stop-color="#8bc34a"/><stop offset=".7888" stop-color="#558b2f"/><stop offset="1" stop-color="#558b2f"/></radialGradient><radialGradient id="b" cx="15.382" cy="98.68" gradientTransform="matrix(0 1 -1.1994 0 133.74 83.298)" gradientUnits="userSpaceOnUse" r="20.362"><stop offset="0" stop-color="#9ccc65"/><stop offset=".3004" stop-color="#96c660"/><stop offset=".3827" stop-color="#93c35e"/><stop offset=".4872" stop-color="#86b854"/><stop offset=".8182" stop-color="#639739"/><stop offset=".9952" stop-color="#558b2f"/></radialGradient><radialGradient id="c" cx="74.029" cy="22.309" gradientUnits="userSpaceOnUse" r="106.92"><stop offset="0" stop-color="#ffd54f"/><stop offset=".179" stop-color="#ffd34b"/><stop offset=".3526" stop-color="#ffce3f"/><stop offset=".524" stop-color="#ffc62c"/><stop offset=".693" stop-color="#ffba11"/><stop offset=".7785" stop-color="#ffb300"/><stop offset="1" stop-color="#ffb300"/></radialGradient><radialGradient id="d" cx="58.517" cy="65.104" gradientUnits="userSpaceOnUse" r="43.727"><stop offset="0" stop-color="#d32f2f"/><stop offset=".4374" stop-color="#ca2929"/><stop offset=".9957" stop-color="#b71c1c"/></radialGradient><radialGradient id="e" cx="58.933" cy="67.394" gradientUnits="userSpaceOnUse" r="39.252"><stop offset="0" stop-color="#ef5350"/><stop offset="1" stop-color="#e53935"/></radialGradient><radialGradient id="f" cx="58.621" cy="70.934" gradientUnits="userSpaceOnUse" r="34.659"><stop offset="0" stop-color="#e53935"/><stop offset=".4072" stop-color="#dc3431"/><stop offset="1" stop-color="#c62828"/></radialGradient><linearGradient id="g" gradientUnits="userSpaceOnUse" x1="59.057" x2="59.057" y1="106.68" y2="112.12"><stop offset=".0042918" stop-color="#bdbdbd"/><stop offset=".2153" stop-color="#b5b5b5"/><stop offset=".5502" stop-color="#9e9e9e"/><stop offset=".9652" stop-color="#787878"/><stop offset="1" stop-color="#757575"/></linearGradient><radialGradient id="h" cx="73.612" cy="18.464" gradientUnits="userSpaceOnUse" r="56.334"><stop offset="0" stop-color="#f44336"/><stop offset=".34" stop-color="#ee3f35"/><stop offset=".8027" stop-color="#dc3531"/><stop offset=".9957" stop-color="#d32f2f"/></radialGradient><linearGradient id="i" gradientUnits="userSpaceOnUse" x1="59.057" x2="59.057" y1="110.56" y2="115.96"><stop offset=".0042918" stop-color="#bdbdbd"/><stop offset=".3969" stop-color="#bababa"/><stop offset=".7025" stop-color="#b0b0b0"/><stop offset=".9786" stop-color="#a0a0a0"/><stop offset="1" stop-color="#9e9e9e"/></linearGradient><radialGradient id="j" cx="104.12" cy="102.78" gradientTransform="matrix(0 1 -1.1617 0 223.52 -1.347)" gradientUnits="userSpaceOnUse" r="24.938"><stop offset="0" stop-color="#9ccc65"/><stop offset=".2538" stop-color="#96c760"/><stop offset=".5994" stop-color="#84b851"/><stop offset=".9952" stop-color="#689f38"/></radialGradient><path d="m50 121h-24.59v-37.91c0-3.9 3.19-7.09 7.09-7.09h10.4c3.9 0 7.09 3.19 7.09 7.09v37.91z" fill="#795548"/><path d="m42.91 79c2.26 0 4.09 1.84 4.09 4.09v34.91h-18.59v-34.91c0-2.26 1.84-4.09 4.09-4.09zm0-3h-10.4c-3.9 0-7.09 3.19-7.09 7.09v37.91h24.58v-37.91c0-3.9-3.19-7.09-7.09-7.09z" fill="#424242" opacity=".2"/><path d="m4.46 59.5c.64-14.05 23.37-52.81 23.37-52.81 1.22-3.59 7.96-3.59 9.18 0 0 0 22.06 39.11 22.01 53.12-.04 13.82-3.4 32.99-26.6 32.99-23.88 0-28.6-19.5-27.96-33.3z" fill="url(#a)"/><path d="m32.42 7.21c.95 0 1.5.37 1.55.51l.1.28.15.26c6.01 10.68 21.62 40.74 21.59 51.54-.06 20.32-7.5 29.79-23.39 29.79-7.68 0-13.67-2.2-17.81-6.53-6.66-6.97-7.21-17.66-6.95-23.42.5-10.86 16.73-40.74 22.94-51.33l.16-.28.1-.31c.05-.14.6-.51 1.56-.51m0-3.21c-1.99 0-3.98.9-4.59 2.69 0 0-22.73 38.76-23.37 52.81-.64 13.8 4.08 33.3 27.96 33.3 23.2 0 26.56-19.17 26.6-32.99.04-14.01-22.01-53.12-22.01-53.12-.61-1.79-2.6-2.69-4.59-2.69z" fill="#424242" opacity=".2"/><path d="m4.46 59.5c.64-14.05 23.37-52.81 23.37-52.81 1.22-3.59 7.96-3.59 9.18 0 0 0 22.06 39.11 22.01 53.12-.04 13.82-3.4 32.99-26.6 32.99-23.88 0-28.6-19.5-27.96-33.3z" fill="none"/><path d="m5.01 116.77c-.03-1.17.03-3.22.64-5.3.72-2.45 2.31-5.55 5.75-6.39.56-.14 1.13-.21 1.69-.21.45 0 .91.04 1.36.13.06.01.13.02.19.02.44 0 .83-.29.96-.72.9-3.08 3.76-5.23 6.97-5.23 2.53 0 4.83 1.28 6.17 3.43.19.3.51.47.85.47.08 0 .16-.01.24-.03.57-.14 1.15-.21 1.73-.21.44 0 .88.04 1.31.12 3.17.57 5.59 3.14 5.9 6.26.1 1-.09 1.98-.53 2.77-.22.39-.18.93.14 1.25.72.72.75 1.92.41 2.73-.11.27-.44.9-1.02.9h-32.76z" fill="url(#b)"/><path d="m22.57 100.08c2.18 0 4.17 1.11 5.32 2.96.37.6 1.02.94 1.7.94.16 0 .32-.02.48-.06.49-.12.99-.18 1.49-.18.38 0 .76.03 1.14.1 2.68.48 4.82 2.74 5.08 5.37.08.8-.07 1.57-.41 2.18-.57 1.02-.19 1.95.3 2.45.24.24.36.67.32 1.13-.04.43-.21.71-.29.8h-31.69c.03-1.1.17-2.56.6-4.02.94-3.2 2.64-5.12 5.03-5.7.48-.12.97-.18 1.46-.18.39 0 .78.04 1.17.11.13.02.25.04.37.04.87 0 1.67-.57 1.92-1.44.77-2.65 3.24-4.5 6.01-4.5m0-2c-3.76 0-6.93 2.51-7.93 5.95-.5-.09-1.02-.15-1.55-.15-.63 0-1.27.07-1.93.23-3.45.84-5.47 3.67-6.47 7.08-.98 3.32-.62 6.56-.62 6.59h33.71c2.1 0 3.07-3.58 1.31-5.34-.01-.01.89-1.31.68-3.41-.35-3.58-3.18-6.5-6.71-7.14-.51-.09-1-.13-1.49-.13-.68 0-1.34.08-1.97.24-1.47-2.36-4.07-3.92-7.03-3.92z" fill="#689f38"/><path d="m30.69 107.37s.08-2.26-1.75-4.69" style="fill:none;stroke:#689f38;stroke-linecap:round;stroke-linejoin:round;stroke-miterlimit:10;stroke-width:2"/><path d="m14.77 104.97c2.14.04 4.23 1.71 4.54 3.77" style="fill:none;stroke:#689f38;stroke-linecap:round;stroke-linejoin:round;stroke-miterlimit:10;stroke-width:2"/><path d="m16.97 109.69c1.88-.85 4.41-.72 6.35.27" style="fill:none;stroke:#689f38;stroke-linecap:round;stroke-linejoin:round;stroke-miterlimit:10;stroke-width:2"/><path d="m74.03 22-46.64 39.98h3.33v58.97h86.62v-58.97h3.33z" fill="url(#c)"/><g fill="#424242"><path d="m74.03 25.95 40.58 34.78c-.17.38-.27.8-.27 1.24v55.97h-80.62v-55.96c0-.44-.1-.87-.27-1.24zm0-3.95-46.64 39.98h3.33v58.97h86.62v-58.97h3.33z" opacity=".2"/><path d="m81.52 40.33c.92 0 1.67.75 1.67 1.67v14.99c0 .92-.75 1.67-1.67 1.67h-14.99c-.92 0-1.67-.75-1.67-1.67v-15c0-.92.75-1.67 1.67-1.67h14.99m0-1.99h-14.99c-2.02 0-3.67 1.64-3.67 3.67v14.99c0 2.02 1.64 3.67 3.67 3.67h14.99c2.02 0 3.67-1.64 3.67-3.67v-15c0-2.02-1.64-3.66-3.67-3.66z" opacity=".2"/><path d="m102.35 68.64c.92 0 1.67.75 1.67 1.67v23.32c0 .92-.75 1.67-1.67 1.67h-15c-.92 0-1.67-.75-1.67-1.67v-23.32c0-.92.75-1.67 1.67-1.67zm0-2h-15c-2.02 0-3.67 1.64-3.67 3.67v23.32c0 2.02 1.64 3.67 3.67 3.67h14.99c2.02 0 3.67-1.64 3.67-3.67v-23.32c0-2.02-1.64-3.67-3.66-3.67z" opacity=".2"/></g><path d="m74.03 108.62h-29.98v-41.64c0-.92.75-1.67 1.67-1.67h26.65c.92 0 1.67.75 1.67 1.67v41.64z" fill="url(#d)"/><path d="m70.7 106.6h-23.32c-.46 0-.83-.37-.83-.83v-37.6c0-.46.37-.83.83-.83h23.32c.46 0 .83.37.83.83v37.6c0 .46-.37.83-.83.83z" fill="url(#e)"/><path d="m66.12 41.58h15.82v15.82h-15.82z" fill="#4fc3f7"/><path d="m64.87 41.99v14.99c0 .92.75 1.67 1.67 1.67h14.99c.92 0 1.67-.75 1.67-1.67v-14.99c0-.92-.75-1.67-1.67-1.67h-15c-.92.01-1.66.75-1.66 1.67zm16.65 6.66h-6.66v-6.66h6.66zm-8.32-6.66v6.66h-6.66v-6.66zm-6.67 8.33h6.66v6.66h-6.66zm8.33 6.66v-6.66h6.66v6.66z" fill="#eee"/><path d="m86.55 69.89h16.61v24.15h-16.61z" fill="#4fc3f7"/><g fill="url(#f)"><path d="m68.2 83.63h-18.32c-.46 0-.83-.37-.83-.83v-11.66c0-.46.37-.83.83-.83h18.32c.46 0 .83.37.83.83v11.66c0 .46-.37.83-.83.83z"/><path d="m68.2 103.62h-18.32c-.46 0-.83-.37-.83-.83v-14.99c0-.46.37-.83.83-.83h18.32c.46 0 .83.37.83.83v14.99c0 .46-.37.83-.83.83z"/></g><path d="m77.38 111.39h-36.65v-3.05c0-1.14.92-2.06 2.06-2.06h32.52c1.14 0 2.06.92 2.06 2.06v3.05z" fill="url(#g)"/><path d="m75.32 107.28c.59 0 1.06.48 1.06 1.06v2.05h-34.65v-2.05c0-.59.48-1.06 1.06-1.06zm0-1h-32.52c-1.14 0-2.06.92-2.06 2.06v3.05h36.65v-3.05c-.01-1.14-.93-2.06-2.07-2.06z" fill="#263238" opacity=".3"/><g fill="#424242"><ellipse cx="57.17" cy="108.07" opacity=".2" rx=".35" ry=".71" transform="matrix(.3918 -.92 .92 .3918 -64.656 118.32)"/><ellipse cx="73.06" cy="109.63" opacity=".2" rx=".31" ry=".58" transform="matrix(.6303 -.7763 .7763 .6303 -58.096 97.245)"/><ellipse cx="59.29" cy="109.29" opacity=".08" rx=".86" ry=".42"/><ellipse cx="66.68" cy="109.24" opacity=".08" rx=".86" ry=".42"/><ellipse cx="64.91" cy="108.18" opacity=".08" rx=".59" ry=".36"/><ellipse cx="74.53" cy="108.32" opacity=".08" rx=".85" ry=".51"/><ellipse cx="54.16" cy="108.05" opacity=".08" rx=".59" ry=".29"/><ellipse cx="71.1" cy="108.58" opacity=".08" rx=".96" ry=".47" transform="matrix(.9888 -.149 .149 .9888 -15.387 11.807)"/><ellipse cx="55.51" cy="109.19" opacity=".2" rx=".93" ry=".46" transform="matrix(.9735 -.2286 .2286 .9735 -23.489 15.578)"/><ellipse cx="68.21" cy="108.05" opacity=".2" rx="1.18" ry=".43"/><ellipse cx="61.12" cy="107.84" opacity=".2" rx=".71" ry=".31" transform="matrix(.835 -.5503 .5503 .835 -49.252 51.428)"/><ellipse cx="63.27" cy="109.16" opacity=".2" rx=".48" ry="1.23" transform="matrix(.4194 -.9078 .9078 .4194 -62.358 120.82)"/><ellipse cx="50.49" cy="110.01" opacity=".2" rx=".31" ry=".58" transform="matrix(.6303 -.7763 .7763 .6303 -66.739 79.866)"/><ellipse cx="44.11" cy="109.62" opacity=".08" rx=".86" ry=".42"/><ellipse cx="42.34" cy="108.57" opacity=".08" rx=".59" ry=".36"/><ellipse cx="51.96" cy="108.71" opacity=".08" rx=".85" ry=".51"/><ellipse cx="48.53" cy="108.97" opacity=".08" rx=".96" ry=".47" transform="matrix(.9888 -.149 .149 .9888 -15.697 8.4483)"/><ellipse cx="45.64" cy="108.43" opacity=".2" rx="1.18" ry=".43"/></g><path d="m87.35 68.64c-.92 0-1.67.75-1.67 1.67v23.32c0 .92.75 1.67 1.67 1.67h14.99c.92 0 1.67-.75 1.67-1.67v-23.32c0-.92-.75-1.67-1.67-1.67zm8.33 1.67h6.66v6.66h-6.66zm-8.33 0h6.66v6.66h-6.66zm0 8.33h6.66v6.66h-6.66zm6.67 14.99h-6.66v-6.66h6.66zm8.33 0h-6.66v-6.66h6.66zm-6.67-8.33v-6.66h6.66v6.66z" fill="#eee"/><path d="m67.98 89.63c-1.93 0-3.5-1.57-3.5-3.5s1.57-3.5 3.5-3.5 3.5 1.57 3.5 3.5-1.57 3.5-3.5 3.5z" fill="#ffc107"/><path d="m67.98 83.63c1.38 0 2.5 1.12 2.5 2.5s-1.12 2.5-2.5 2.5-2.5-1.12-2.5-2.5 1.12-2.5 2.5-2.5m0-2c-2.48 0-4.5 2.02-4.5 4.5s2.02 4.5 4.5 4.5 4.5-2.02 4.5-4.5-2.02-4.5-4.5-4.5z" fill="#c62828"/><path d="m104.84 98.63h-19.98c-.92 0-1.67-.75-1.67-1.67v-3.33c0-.92.75-1.67 1.67-1.67h19.99c.92 0 1.67.75 1.67 1.67v3.33c-.01.92-.76 1.67-1.68 1.67z" fill="#795548"/><path d="m104.84 93.63v3.33h-19.98v-3.33zm0-1.67h-19.98c-.92 0-1.67.75-1.67 1.67v3.33c0 .92.75 1.67 1.67 1.67h19.99c.92 0 1.67-.75 1.67-1.67v-3.33c-.01-.92-.76-1.67-1.68-1.67z" fill="#424242" opacity=".2"/><path d="m122.57 59.65-45.88-39.98c-1.53-1.34-3.8-1.34-5.33 0l-45.87 39.98c-1.72 1.5-1.92 4.13-.44 5.87 1.47 1.75 4.06 1.95 5.78.45l41.57-36.22c.94-.82 2.34-.82 3.28 0l41.57 36.22c.77.67 1.72 1 2.66 1 1.15 0 2.3-.49 3.11-1.45 1.47-1.74 1.27-4.37-.45-5.87z" fill="url(#h)"/><path d="m74.03 21.67c.18 0 .44.05.7.26l45.88 39.98c.48.42.54 1.19.12 1.68-.28.34-.63.39-.82.39-.18 0-.44-.05-.69-.26l-41.58-36.23c-1-.87-2.28-1.35-3.61-1.35s-2.61.48-3.61 1.35l-41.57 36.22c-.25.22-.52.26-.69.26-.18 0-.53-.05-.82-.39-.41-.49-.36-1.26.12-1.68l45.88-39.98c.24-.2.51-.25.69-.25m0-3c-.95 0-1.9.33-2.67 1l-45.87 39.98c-1.72 1.5-1.92 4.13-.44 5.87.81.96 1.96 1.45 3.11 1.45.94 0 1.89-.33 2.66-1l41.57-36.22c.47-.41 1.06-.61 1.64-.61s1.17.2 1.64.61l41.57 36.22c.77.67 1.72 1 2.66 1 1.15 0 2.3-.49 3.11-1.45 1.47-1.75 1.27-4.37-.44-5.87l-45.88-39.98c-.76-.66-1.71-1-2.66-1z" fill="#424242" opacity=".2"/><path d="m80.71 116.05h-43.31v-3.5c0-1.2.97-2.17 2.17-2.17h38.96c1.2 0 2.17.97 2.17 2.17v3.5z" fill="url(#i)"/><path d="m78.54 111.38c.65 0 1.17.53 1.17 1.17v2.5h-41.31v-2.5c0-.65.53-1.17 1.17-1.17zm0-1h-38.96c-1.2 0-2.17.97-2.17 2.17v3.5h43.31v-3.5c-.01-1.2-.98-2.17-2.18-2.17z" fill="#263238" opacity=".3"/><g fill="#424242"><ellipse cx="74.6" cy="112.59" opacity=".2" rx=".77" ry=".36" transform="matrix(.9398 -.3418 .3418 .9398 -33.989 32.278)"/><ellipse cx="57.07" cy="114.15" opacity=".2" rx=".62" ry=".32" transform="matrix(.8261 -.5635 .5635 .8261 -54.398 52.004)"/><ellipse cx="72.26" cy="113.81" opacity=".08" rx=".95" ry=".42"/><ellipse cx="64.1" cy="113.76" opacity=".08" rx=".95" ry=".42"/><ellipse cx="66.06" cy="112.7" opacity=".08" rx=".65" ry=".36"/><ellipse cx="55.45" cy="112.84" opacity=".08" rx=".94" ry=".51"/><ellipse cx="77.92" cy="112.56" opacity=".08" rx=".65" ry=".29"/><ellipse cx="59.23" cy="113.1" opacity=".08" rx=".47" ry="1.06" transform="matrix(.1284 -.9917 .9917 .1284 -60.538 157.32)"/><ellipse cx="76.43" cy="113.71" opacity=".2" rx=".47" ry="1.02" transform="matrix(.1969 -.9804 .9804 .1969 -50.102 166.26)"/><ellipse cx="62.42" cy="112.57" opacity=".2" rx="1.3" ry=".43"/><ellipse cx="70.23" cy="112.36" opacity=".2" rx=".32" ry=".77" transform="matrix(.4963 -.8682 .8682 .4963 -62.165 117.58)"/><ellipse cx="67.87" cy="113.68" opacity=".2" rx="1.34" ry=".49" transform="matrix(.9268 -.3757 .3757 .9268 -37.733 33.82)"/><ellipse cx="50.03" cy="112.97" opacity=".2" rx=".77" ry=".36" transform="matrix(.9398 -.3418 .3418 .9398 -35.601 23.903)"/><ellipse cx="47.69" cy="114.2" opacity=".08" rx=".95" ry=".42"/><ellipse cx="41.49" cy="113.09" opacity=".08" rx=".65" ry=".36"/><ellipse cx="51.86" cy="114.1" opacity=".2" rx=".47" ry="1.02" transform="matrix(.1969 -.9804 .9804 .1969 -70.214 142.49)"/><ellipse cx="45.66" cy="112.74" opacity=".2" rx=".32" ry=".77" transform="matrix(.4963 -.8682 .8682 .4963 -74.878 96.439)"/><ellipse cx="43.3" cy="114.06" opacity=".2" rx="1.34" ry=".49" transform="matrix(.9268 -.3757 .3757 .9268 -39.678 24.619)"/></g><path d="m88.07 121.12c-.69 0-1.06-.73-1.19-1.04-.38-.92-.34-2.27.47-3.08.32-.32.35-.86.13-1.25-.49-.87-.7-1.96-.59-3.07.33-3.38 3.07-6.28 6.5-6.9.48-.09.97-.13 1.45-.13.64 0 1.28.08 1.91.23.08.02.16.03.24.03.34 0 .66-.17.85-.47 1.47-2.37 4.02-3.79 6.81-3.79 3.54 0 6.7 2.37 7.69 5.76.13.43.52.72.96.72.06 0 .12-.01.19-.02.5-.09 1-.14 1.5-.14.62 0 1.25.08 1.87.23 3.34.81 5.86 3.76 6.12 7.16.16 2.13-.49 4.16-1.85 5.77h-33.06z" fill="url(#j)"/><path d="m104.65 102.65c3.1 0 5.86 2.07 6.73 5.04.25.87 1.05 1.44 1.92 1.44.12 0 .25-.01.37-.04.44-.08.88-.13 1.31-.13.54 0 1.09.07 1.63.2 2.93.71 5.13 3.29 5.36 6.26.13 1.71-.34 3.35-1.34 4.7l-32.55.01c-.08-.04-.33-.32-.42-.87-.08-.48-.03-1.14.38-1.55.5-.49.87-1.43.3-2.45-.39-.7-.56-1.58-.47-2.48.29-2.94 2.68-5.47 5.69-6.02.42-.08.85-.11 1.27-.11.56 0 1.12.07 1.67.2.16.04.32.06.48.06.68 0 1.33-.35 1.7-.94 1.31-2.08 3.53-3.32 5.97-3.32m0-2c-3.23 0-6.07 1.7-7.66 4.26-.69-.17-1.41-.26-2.15-.26-.53 0-1.07.05-1.63.15-3.86.7-6.94 3.89-7.32 7.79-.22 2.29.76 3.7.74 3.72-1.92 1.92-.86 5.83 1.43 5.83h33.51c1.65-1.77 2.6-4.2 2.4-6.85-.29-3.86-3.12-7.13-6.88-8.05-.72-.17-1.42-.25-2.1-.25-.58 0-1.14.06-1.69.16-1.09-3.76-4.55-6.5-8.65-6.5z" fill="#689f38"/><path d="m95.79 110.79s-.08-2.47 1.9-5.11" style="fill:none;stroke:#689f38;stroke-linecap:round;stroke-linejoin:round;stroke-miterlimit:10;stroke-width:2"/><path d="m113.15 108.16c-2.33.04-4.61 1.87-4.96 4.11" style="fill:none;stroke:#689f38;stroke-linecap:round;stroke-linejoin:round;stroke-miterlimit:10;stroke-width:2"/><path d="m110.76 113.31c-2.05-.93-4.81-.79-6.93.29" style="fill:none;stroke:#689f38;stroke-linecap:round;stroke-linejoin:round;stroke-miterlimit:10;stroke-width:2"/><path d="m4 116h120v8h-120z" fill="#689f38"/><path d="m4 121h120v3h-120z" fill="#424242" opacity=".2"/></svg>