<svg height="24" width="24" xmlns="http://www.w3.org/2000/svg"><g transform="translate(0 -1028.4)"><path d="m22 12c0 5.523-4.477 10-10 10-5.5228 0-10-4.477-10-10 0-5.5228 4.4772-10 10-10 5.523 0 10 4.4772 10 10z" fill="#2980b9" transform="translate(0 1029.4)"/><path d="m22 12c0 5.523-4.477 10-10 10-5.5228 0-10-4.477-10-10 0-5.5228 4.4772-10 10-10 5.523 0 10 4.4772 10 10z" fill="#3498db" transform="translate(0 1028.4)"/><path d="m12 1035.4c-1.727-.1-3.4306 1.1-3.8438 2.8-.0403.3-.0546.4-.1562 1.2h2c-.0526-1.3 1.306-2.3 2.5-2 1.021.3 1.763 1.5 1.406 2.5-.294.6-.998 1-1.562 1.4-.577.5-1.074 1.1-1.313 1.8-.039.4-.034.8-.031 1.3h2v-1c.172-.7.688-1.1 1.25-1.4.634-.3 1.087-.8 1.406-1.4.543-1 .454-2.2-.125-3.1-.705-1.3-2.067-2.2-3.531-2.1zm0 10c-.552 0-1 .4-1 1 0 .5.448 1 1 1s1-.5 1-1c0-.6-.448-1-1-1z" fill="#2980b9"/><path d="m12 6c-1.727-.0274-3.4306 1.1749-3.8438 2.875-.0403.2941-.0546.3281-.1562 1.125h2c-.0526-1.2477 1.306-2.289 2.5-1.9375 1.021.2374 1.763 1.4281 1.406 2.4375-.294.684-.998.992-1.562 1.406-.577.482-1.074 1.094-1.313 1.813-.039.42-.034.859-.031 1.281h2v-1c.172-.624.688-1.042 1.25-1.312.634-.312 1.087-.835 1.406-1.469.543-.974.454-2.1746-.125-3.094-.705-1.2699-2.067-2.1438-3.531-2.125zm0 10c-.552 0-1 .448-1 1s.448 1 1 1 1-.448 1-1-.448-1-1-1z" fill="#ecf0f1" transform="translate(0 1028.4)"/></g></svg>