<?xml version="1.0" encoding="utf-8"?>
<!-- Generator: Adobe Illustrator 26.5.0, SVG Export Plug-In . SVG Version: 6.00 Build 0)  -->
<svg version="1.1" xmlns="http://www.w3.org/2000/svg" xmlns:xlink="http://www.w3.org/1999/xlink" x="0px" y="0px"
	 viewBox="0 0 406.3 356.3" style="enable-background:new 0 0 406.3 356.3;" xml:space="preserve">
<style type="text/css">
	.st0{fill:#19223C;}
	.st1{fill:#3B5EDA;}
</style>
<g id="Layer_1">
	<g>
		<g>
			<g>
				<g>
					<path class="st0" d="M80.9,14.1c1.1,1.1,1.5,2.9,2.6,4.2c1.1,1.3,2.1,2.8,3.1,4.2c0.5,0.7,1.1,1.3,1.8,1.9
						c0.7,0.5,0.8,1.6,1.8,1.8c0.1,0,0.1,0.2,0.2,0.3c1.3,1.7,2.8,3.2,3.8,5.1c1.1,2.1,2.8,3.9,4.1,5.8c2.9,2.6,4.9,6,7.4,9
						c0.8,0.9,1.6,1.8,2,3.1c0.3,1.1,1.7,1.7,1.8,3c0,0.1,0.3,0.2,0.4,0.3c0.3,0.3,0.7,0.5,0.9,0.8c1.1,2,1.1,2,2.5,3.2
						c0.2,0.1,0.1,0.5,0.3,0.7c0.6,0.8,1.2,1.7,1.9,2.4c0.6,0.7,0.9,1.7,2,2c0.2,0.1,0.4,0.4,0.6,0.7c0.6,0.8,1.2,1.5,1.8,2.3
						c0.7,0.8,1.2,1.9,2.3,2.4c0.5,0.2,0.4,1.1,0.7,1.3c0.5,0.2,0.9,0.6,1.2,1c0.3,0.4,0.4,1,0.7,1.3c0.3,0.3,0.8,0.5,1.1,0.8
						c0.7,0.8,1.3,1.9,2.1,2.5c0.9,0.6,1.5,1.5,2.2,2.2c0.7,0.8,1.3,1.7,2.1,2.5c0.6,0.6,0.8,1.4,1.2,2.1c0.4,0.7,1.3,1.1,1.3,2.1
						c0,0,0.1,0.1,0.1,0.1c1,1.3,1.9,2.7,2.9,4c1.8,2.2,3.6,4.3,5.4,6.5c0.5,0.6,1.2,1.1,1.3,2c0,0.2,0.4,0.3,0.4,0.6
						c0.3,0.8,1.5,0.6,1.6,1.5c0.1,0.8,0.8,1.2,1.2,1.7c0.5,0.6,1,1.2,1.5,1.8c0.3,0.4,0.7,0.7,1.2,0.9c-0.1,0.9,0.8,1.2,1,1.9
						c0.2,0.5,0.5,1.1,0.9,1.3c0.8,0.3,1.2,1,1.7,1.5c0.8,0.8,1.4,1.8,2.4,2.3c0.4,0.2,0.8,0.8,1.1,1.2c0.3,0.4,0.4,0.9,0.7,1.3
						c0.6,0.7,1.2,1.4,2,1.9c0.7,0.4,0.9,1.5,2,1.7c0.1,0,0.3,0.2,0.4,0.4c0.4,0.8,0.8,1.5,1.7,2c0.7,0.4,1.2,1.3,1.8,2
						c0.6,0.7,1.4,1.4,1.9,2.2c0.3,0.5,1.2,0.2,1.2,1.1c0,0.5,0.6,0.9,1,1.4c0.4,0.5,0.9,0.9,1.2,1.4c1.5,2.7,3.9,4.6,5.8,7
						c0.8,1,2.1,1.7,2.3,3.1c1,0.3,1.4,1.4,2.3,1.8c0.5,0.2,0.8,0.6,1.2,1c2.2,2.5,4.4,5,6.7,7.4c1.5,1.6,3.1,3.1,4.6,4.6
						c0.4,0.4,0.9,0.8,1.1,1.6c0.1,0.5,0.7,1.2,1.5,1.4c0.2,0,0.4,0.2,0.4,0.3c0.2,1.5,1.7,1.8,2.5,2.7c1.7,1.7,2.9,3.8,4.5,5.5
						c0.4,0.4,0.6,1,1.2,0.9c-0.1,0.6,0.3,0.7,0.8,0.9c0.5,0.2,1.1,0.8,1.2,1.3c0.1,0.7,0.6,1,1,1.4c0.4,0.5,0.8,0.9,1.2,1.3l5,5.8
						c0.3,0.4,0.5,0.9,0.8,1.3c0.3,0.4,0.9,0.7,0.8,1.2c0,0.2,0.4,0.4,0.7,0.6c0.9,0.6,2,1.5,3.1,1.5c1.1,0.1,2.1,0.9,3.2,0.5
						c0.3-0.1,0.8,0.2,1.2,0.3c1.6,0.3,3.2,1.2,4.9,0.9c0.5,0.6,1.2,0.7,1.9,0.8c0.5,0.1,1,0.5,1.5,0c0.1-0.1,0.2,0,0.3,0
						c0.6,0.3,1,0.7,1.7,0.7c0.6,0,1.1-0.2,1.7,0c2.2,0.5,4.3,1.5,6.5,1.8c0.5,0.5,1.2,0.6,1.9,0.8c1.2,0.3,2.5,0.1,3.7,0.5
						c1.1,0.4,2.4,0.9,3.5,0.9c2,0.1,3.9,0.9,5.8,1.5c0.5,0.1,1.1,0.2,1.4,0.8c0.1,0.1,0.6,0.3,0.8,0.2c0.4-0.2,0.7,0.1,1,0.1
						c1,0,1.3,1.5,2.5,1c0.9,0.4,1.8,0.8,2.8,1.2c0.9,0.4,1.8,0.9,2.7,1.4c0.4,0.2,0.8,0.4,1.1,0.9c0.2,0.4,0.8,0.8,1.2,0.8
						c0.9,0,1.5,0.6,2.1,1c1.9,1.2,3.8,2.5,5.6,3.9c0.8,0.6,1.5,1.3,2.2,2c0.7,0.7,1.8,1.1,2.3,2c0,0.1,0.1,0.1,0.2,0.2
						c0.4,0.2,0.8,0.3,1.1,0.6c0.4,0.3,0.6,1.1,1,1.1c0.7,0.1,0.7,0.6,1,0.9c0.9,0.9,0.9,2.1,0,2.9c-0.2,0.2-0.5,0.3-0.7,0.3
						c-1.6,0.3-1.6,0.2-3-0.8c-1.8-1.3-3.1-3.2-5-4.4c-0.8-1.4-2.3-2-3.4-2.9c-1.2-1-2.2-2.3-3.7-2.8c-1.5-0.5-2.7-1.3-4-2
						c-1-0.5-1.9-1.3-2.8-1.8c-1-0.5-2.2-0.9-3.2-1.4c-0.6-0.4-1.2-1-1.9-1c-1.6,0-2.9-0.9-4.4-1.1c-2.1-0.2-4-1-6-1.3
						c-1.1-0.1-2.2-0.3-3.2-0.5c-0.5-0.1-0.9-0.2-1.4-0.6c-0.5-0.4-1.3-0.6-2-0.4c-0.3,0.1-0.8,0.1-1-0.1c-0.9-0.7-2-0.8-3-1
						c-0.6-0.1-1.3-0.8-1.7-0.6c-0.7,0.2-1.3-0.1-1.9-0.2c-0.4-0.1-1,0-1.3-0.5c-0.1-0.1-0.5-0.3-0.6-0.2c-0.9,0.4-1.6,0-2.4-0.2
						c-1.9-0.4-3.8-0.8-5.7-1.4c-1.6-0.5-3.3-0.3-4.8-1.1c-1.2,0.2-2.2-0.5-3.3-1.1c-0.8-0.5-1.5-1.2-2.2-1.9
						c-0.4-0.4-0.6-0.7-0.9-1c-0.3-0.3-0.5-0.6-0.7-1c-0.5-1-1.6-1.7-2.3-2.6c-0.4-0.5-1.1-0.8-1.1-1.6c0-0.1-0.2-0.3-0.3-0.3
						c-1-0.2-1.6-1.1-1.9-1.8c-0.5-1.1-1.4-1.9-2.2-2.7c-0.6-0.7-1.3-1.4-2-2.1c-0.4-0.5-1-0.9-1.3-1.7c-0.2-0.5-1-0.9-1.5-1.3
						c-0.5-0.5-0.9-1-1.4-1.5l-1.5-1.6l-1.5-1.6c-0.5-0.6-1.1-1.1-1.6-1.8c-0.5-0.6-0.8-1.3-1.3-1.8c-1.3-1.6-3.2-2.7-4.4-4.4
						c-0.7-0.1-0.8-0.7-1.2-1.2c-0.3-0.5-0.6-1-1.3-1.2c-0.2,0-0.4-0.3-0.5-0.4c-0.4-0.3-0.4-0.9-1-1.2c-0.4-0.2-0.7-0.8-1.1-1.2
						c-0.4-0.4-0.6-1.1-1.3-1.1c-0.1-1.3-1.6-1.2-2-2.2c-0.1-0.3-0.3-0.6-0.5-0.9c-0.1-0.1-0.1-0.4-0.2-0.4
						c-2.3-1.5-3.7-3.9-5.6-5.8c-0.2-0.2-0.6-0.4-0.8-0.6c-0.1-0.1-0.3-0.2-0.3-0.4c-0.8-1.3-0.8-1.3-1.9-2.1
						c-0.3-0.2-0.5-0.5-0.7-0.8c-0.7-0.6-1.2-1.4-2-1.9c-0.9-0.5-1.1-1.7-1.6-2.6c-0.4-0.8-0.8-1.6-1.4-2.3
						c-1.6-1.8-3.2-3.6-4.8-5.5c-0.2-0.2-0.4-0.6-0.6-0.7c-0.9-0.1-1.6-0.3-1.3-1.5c0-0.1-0.1-0.2-0.2-0.2c-0.9,0-1.1-0.8-1.6-1.3
						c-1.6-2-3.8-3.4-5.3-5.5c-0.2-0.3-0.7-0.7-0.7-1c0-0.7-0.7-0.4-0.9-0.9c-0.1-0.4-0.7-0.6-0.8-1c-0.2-1.3-1.2-2.1-2.1-2.8
						c-0.8-0.6-1.6-1.3-2.1-2.1c-0.8-1.6-2.1-2.9-3.2-4.2c-1.1-1.4-2.3-2.8-3.5-4.2c-0.5-0.6-0.8-1.3-1.7-1.5
						c-0.2,0-0.3-0.3-0.5-0.5c-0.3-0.5-0.5-1.1-0.8-1.5c-0.4-0.4-0.9-0.7-1.3-1.1c-0.3-0.3-0.6-0.7-1.1-0.8
						c-0.4-0.1-0.6-0.7-0.7-1.3c-0.2-1.2-0.5-2.4-1.4-3.4c-0.8-0.9-1.5-1.9-2.3-2.8c-0.3-0.4-0.6-0.8-1.2-1
						c-0.5-0.2-0.9-0.9-1.2-1.5c-0.4-0.9-0.9-1.6-1.7-2.1c-0.3-0.2-0.5-0.5-0.7-0.7l-4-4.9c-0.3-0.4-0.8-0.7-0.7-1.3
						c-0.6,0.1-0.8-0.5-1.1-0.8c-0.4-0.6-0.6-1.2-1-1.8c-0.5-0.7-1-1.2-1.7-1.7c-0.7-0.4-0.9-1.4-1.7-1.8c-0.2-0.1-0.1-0.5-0.3-0.7
						c-0.7-0.7-0.9-1.7-2-2c-0.1,0-0.2-0.2-0.2-0.3c-0.1-1.3-1.2-1.7-2-2.5c-0.9-0.8-1.1-1.9-1.8-2.8c-0.8-1-1.8-1.9-2.3-3
						c-0.9-1.9-2.4-3.4-3.6-5.1c-1.3-1.7-2.6-3.4-3.9-5c-0.6-0.7-1.3-1.3-1.9-2c-0.7-0.8-1.3-1.6-1.9-2.5c-0.6-0.8-1.2-1.5-1.7-2.3
						c-0.3-0.4-0.7-0.6-0.6-1.2c0-0.1-0.1-0.4-0.2-0.4c-0.9-0.4-1.3-1-1.5-2c0-0.3-0.4-0.5-0.5-0.7c-0.3-0.7-1.1-1-1.6-1.5
						c-0.5-0.5-0.6-1.3-1.5-1.4c-0.1,0-0.3-0.3-0.3-0.4c0.1-1.7-2.3-1.9-2.3-3.6c-0.8-0.1-0.6-0.9-0.9-1.2c-0.5-0.4-1-0.8-1.3-1.3
						c-0.3-0.5-0.7-1-1.1-1.5c-0.7-0.8-1.1-1.9-2.2-2.5c-0.4-0.2-0.9-0.7-0.7-1.3c0-0.1-0.1-0.3-0.2-0.4c-0.9-0.9-1.3-2.4-0.8-3.1
						c0.3-0.4,0.9-0.8,1.4-1c0.3-0.1,0.7,0.2,1.1,0.4c0.6,0.3,1.3,0.4,1.8,0.9C79.9,12.6,80.3,13.3,80.9,14.1z"/>
				</g>
			</g>
		</g>
	</g>
	<g>
		<g>
			<g>
				<g>
					<path class="st0" d="M6.9,74.5c1.6,1,2.5,2.9,4.2,4.2c1.6,1.3,3.2,2.7,4.7,4.2c0.8,0.7,1.6,1.3,2.5,1.8
						c0.9,0.5,1.4,1.6,2.5,1.8c0.1,0,0.2,0.2,0.3,0.3c1.9,1.7,4,3.2,5.6,5.1c1.9,2.2,4.1,3.9,6.1,5.9c3.9,2.5,7,6.1,10.5,9.1
						c1.1,1,2.3,1.8,3,3.2c0.7,1.2,2.3,1.7,2.8,3.1c0,0.1,0.3,0.2,0.5,0.3c0.4,0.3,0.9,0.5,1.2,0.8c1.7,2.1,1.7,2.1,3.5,3.4
						c0.2,0.2,0.3,0.6,0.5,0.8c0.9,0.9,1.7,1.7,2.7,2.5c0.8,0.7,1.4,1.8,2.6,2c0.3,0.1,0.5,0.5,0.8,0.7c0.8,0.8,1.7,1.6,2.5,2.4
						c1,0.9,1.8,2,3.1,2.5c0.6,0.2,0.7,1.2,1.1,1.4c0.6,0.2,1.1,0.6,1.5,1.1c0.4,0.4,0.6,1,1.1,1.5c0.4,0.4,0.9,0.5,1.3,0.9
						c1,0.9,1.8,2,2.8,2.6c1.1,0.7,2,1.6,2.9,2.4c1,0.9,1.8,1.9,2.8,2.7c0.8,0.7,1.2,1.5,1.8,2.3c0.6,0.8,1.6,1.2,1.8,2.3
						c0,0,0.1,0.1,0.1,0.2c1.3,1.5,2.6,3,4,4.4l7.2,7.2c0.7,0.7,1.5,1.3,1.8,2.3c0.1,0.2,0.5,0.4,0.6,0.6c0.4,0.9,1.7,0.7,2,1.7
						c0.3,0.9,1,1.3,1.6,1.9c0.6,0.7,1.3,1.3,1.9,2c0.4,0.5,0.9,0.8,1.5,1c0.1,0.9,1.1,1.4,1.4,2.2c0.2,0.5,0.7,1.3,1.1,1.4
						c1,0.3,1.4,1.1,2.1,1.7c1,0.9,1.7,2,2.9,2.7c0.5,0.3,0.9,0.9,1.3,1.4c0.4,0.5,0.6,1.1,1,1.5c0.7,0.9,1.5,1.6,2.4,2.2
						c0.9,0.5,1.2,1.8,2.3,2c0.1,0,0.3,0.3,0.4,0.5c0.5,1,1,1.8,2,2.4c0.8,0.5,1.5,1.6,2.2,2.4c0.8,0.9,1.6,1.7,2.2,2.7
						c0.4,0.6,1.3,0.3,1.4,1.3c0.1,0.5,0.8,1.1,1.2,1.7c0.4,0.6,1,1.1,1.4,1.7c1.7,3.3,4.5,5.8,6.5,8.9c0.8,1.3,2.2,2.3,2.4,4
						c1.1,0.6,1.4,2,2.3,2.6c0.6,0.4,0.9,0.9,1.2,1.5c1.1,1.7,2.1,3.5,3,5.3c0.9,1.8,1.8,3.8,2.5,5.8c0.1,0.3,0.2,0.7,0.3,1l0.3,1.1
						c0.2,0.7,0.3,1.4,0.4,2.1c0.1,0.7,0.2,1.4,0.3,2c0.1,0.7,0.2,1.4,0.2,2c0,0.8,0.2,1.5-0.2,2.3c-0.3,0.6-0.2,1.7,0.2,2.5
						c0.1,0.2,0.2,0.5,0.1,0.6c-0.8,1.5,0,3,0.1,4.4c0.1,2.8-0.3,5.6-0.1,8.4c0,0.6-0.2,1.3,0.4,1.7c-0.4,0.5-0.2,0.8,0.1,1.4
						c0.3,0.6,0.4,1.5,0.2,2.1c-0.3,0.7-0.1,1.4-0.1,2c0,0.7,0.2,1.4,0.2,2.1c0.1,1.5,0.2,3,0.4,4.5c0.1,1.5,0.2,3,0.4,4.5
						c0.1,0.6-0.1,1.2-0.1,1.8c0,0.6,0.3,1.2,0,1.8c-0.1,0.2,0.1,0.8,0.1,1.2c0.2,1.5,0.2,3.2,0.8,4.4c0.6,1.3,0.4,2.8,1.2,3.9
						c0.2,0.3,0.2,1,0.3,1.5c0.5,2,0.4,4.1,1.4,5.9c-0.3,0.8-0.1,1.6,0.1,2.4c0.1,0.6,0,1.3,0.6,1.7c0.1,0,0.1,0.3,0.1,0.4
						c0,0.7-0.2,1.4,0.1,2.2c0.2,0.7,0.6,1.1,0.8,1.9c0.5,2.7,0.5,5.3,1.4,7.9c-0.2,0.8,0,1.6,0.2,2.4c0.3,1.4,1.2,2.6,1.5,4.1
						c0.3,1.4,0.6,2.9,1.2,4.1c0.3,0.5,0.5,1.1,0.7,1.6c0.2,0.5,0.4,1.1,0.6,1.6c0.4,1.1,0.7,2.2,1.1,3.2c0.2,0.5,0.6,1.1,0.3,1.8
						c-0.1,0.2,0.2,0.8,0.4,0.9c0.4,0.2,0.4,0.7,0.7,1c0.7,0.8-0.1,2.2,1.2,2.8c0.4,1,0.9,2.1,1.4,3.1c0.5,1,1,2,1.5,3
						c0.2,0.5,0.5,0.9,0.5,1.5c0,0.4,0.4,1.2,0.8,1.4c0.9,0.5,1.1,1.3,1.6,2.1c0.7,1.1,1.5,2.1,2.2,3.1c0.4,0.5,0.8,1,1.2,1.5
						l1.2,1.4l2.1,2.5c0.4,0.4,0.9,0.7,1.3,1c0.5,0.3,0.8,0.7,1.2,1.2c0,0.1,0.2,0.1,0.2,0.1c0.4,0.2,0.9,0.3,1.2,0.5
						c0.4,0.3,0.9,1,1.3,0.9c0.7-0.1,0.9,0.4,1.3,0.6c1.2,0.5,1.8,1.4,1.7,2.6c0,0.3-0.3,0.5-0.6,0.7c-1.7,0.9-1.9,0.9-4.2,0.1
						c-1.5-0.6-2.7-1.5-3.8-2.4c-1.1-1-2.2-1.9-3.3-2.9c-1-1.7-2.5-2.9-3.7-4.4c-0.6-0.8-1-1.7-1.5-2.6c-0.5-0.9-1-1.6-1.7-2.4
						c-0.6-0.7-1.2-1.5-1.7-2.3c-0.3-0.4-0.5-0.8-0.7-1.2l-0.6-1.3c-0.6-1.3-1-2.6-1.6-3.9c-0.6-1.3-1.3-2.7-1.7-4.1
						c-0.2-0.9-0.2-1.9-0.8-2.6c-1.1-1.5-1.3-3.5-2.2-5.1c-1.2-2.2-1.6-4.7-2.5-7c-0.5-1.2-1-2.5-1.4-3.8c-0.1-0.6-0.3-1.2-0.2-1.9
						c0.1-0.7-0.1-1.7-0.7-2.4c-0.2-0.3-0.5-0.8-0.4-1.2c0.2-1.3-0.3-2.5-0.6-3.7c-0.2-0.8,0.1-1.7-0.2-2.2
						c-0.5-0.7-0.5-1.5-0.7-2.2c-0.1-0.5-0.4-1.1-0.1-1.6c0.1-0.1,0-0.7-0.1-0.8c-0.8-0.8-0.7-1.8-0.9-2.8c-0.5-2.3-0.9-4.5-1.3-6.8
						c-0.3-1.9-1.3-3.6-1.3-5.5c-0.8-1.1-0.7-2.4-0.9-3.6c-0.2-0.9-0.1-1.9-0.1-2.9c0-1-0.3-1.9-0.2-2.9c0.1-1.3-0.4-2.7-0.5-4.1
						c-0.1-0.7-0.5-1.5,0-2.3c0.1-0.1,0-0.4-0.1-0.6c-0.7-0.9-0.7-2.2-0.6-3.1c0.2-1.5-0.1-2.8-0.2-4.2c0-1.2-0.2-2.3-0.3-3.5
						c0-0.8-0.2-1.6,0-2.5c0.2-0.7-0.2-1.5-0.3-2.3c-0.1-0.8-0.1-1.6-0.1-2.4l-0.1-2.6l0-2.6c0-0.9-0.1-1.9,0-2.8
						c0.1-0.9,0.3-1.7,0.3-2.6c0-2.5-0.8-4.8-0.9-7.2c-0.6-0.5-0.3-1.1-0.4-1.8c-0.1-0.6-0.1-1.3-0.8-1.8c-0.2-0.1-0.3-0.4-0.4-0.6
						c-0.2-0.5-0.1-1.1-0.7-1.6c-0.4-0.3-0.5-1.1-0.9-1.6c-0.3-0.6-0.4-1.4-1.2-1.6c0.1-1.4-1.5-1.7-1.8-2.9
						c-0.1-0.4-0.3-0.7-0.4-1.1c-0.1-0.2-0.1-0.4-0.2-0.5c-2.3-2.2-3.6-5.1-5.7-7.5c-0.3-0.3-0.6-0.5-0.9-0.8
						c-0.1-0.1-0.3-0.3-0.4-0.4c-0.8-1.5-0.8-1.5-2-2.6c-0.3-0.3-0.5-0.7-0.8-1c-0.7-0.8-1.3-1.7-2.3-2.4c-1-0.7-1.3-2-1.8-3.1
						c-0.5-1-1-1.9-1.7-2.8l-5.7-6.5c-0.2-0.3-0.5-0.7-0.7-0.8c-1-0.2-1.8-0.5-1.5-1.8c0-0.1-0.2-0.3-0.3-0.3
						c-0.9-0.1-1.3-1-1.9-1.6c-2-2.3-4.5-4-6.4-6.4c-0.3-0.4-0.9-0.8-0.9-1.1c-0.1-0.7-0.8-0.5-1.1-1c-0.2-0.4-0.9-0.7-1-1.1
						c-0.5-1.4-1.7-2.4-2.7-3.2c-1-0.7-2-1.4-2.6-2.4c-1.2-1.8-2.8-3.2-4.2-4.7c-1.5-1.6-3-3.1-4.6-4.6c-0.6-0.6-1.1-1.5-2.1-1.7
						c-0.2,0-0.4-0.4-0.6-0.6c-0.4-0.5-0.7-1.2-1.2-1.6c-0.5-0.5-1.1-0.8-1.6-1.2c-0.4-0.3-0.7-0.7-1.3-0.9
						c-0.4-0.1-0.8-0.8-1.1-1.4c-0.5-1.3-1-2.7-2.2-3.7c-1.1-0.9-2.1-2-3.1-3c-0.4-0.4-0.8-0.8-1.5-1.1c-0.6-0.2-1.2-1-1.6-1.6
						c-0.6-1-1.3-1.7-2.3-2.2c-0.4-0.2-0.7-0.5-1-0.8l-5.5-5.2c-0.4-0.4-1-0.8-1.1-1.4c-0.6,0.1-1-0.5-1.3-0.9
						c-0.6-0.6-1-1.3-1.5-1.9c-0.7-0.7-1.4-1.3-2.3-1.8c-0.8-0.4-1.3-1.5-2.3-1.8c-0.2-0.1-0.3-0.5-0.5-0.7c-0.9-0.7-1.4-1.8-2.6-2
						c-0.1,0-0.3-0.2-0.3-0.3c-0.4-1.4-1.7-1.8-2.8-2.6c-1.1-0.8-1.7-2-2.6-2.9c-1.1-1-2.4-1.9-3.3-3.1c-1.5-2-3.5-3.5-5.3-5.2
						c-1.8-1.7-3.7-3.4-5.6-5.1c-0.8-0.7-1.8-1.3-2.6-2c-0.9-0.8-1.8-1.6-2.7-2.5c-0.9-0.8-1.7-1.5-2.6-2.3c-0.4-0.4-1-0.6-1-1.3
						c0-0.1-0.2-0.4-0.4-0.4c-1-0.3-1.7-1-2.2-2c-0.1-0.3-0.5-0.5-0.7-0.8c-0.6-0.8-1.5-1-2.2-1.5c-0.7-0.5-1.1-1.4-2-1.4
						c-0.1,0-0.4-0.3-0.5-0.4c-0.5-1.9-3.1-1.8-3.6-3.6c-0.9,0-0.9-0.9-1.4-1.2c-0.6-0.4-1.3-0.7-1.9-1.3c-0.5-0.5-1.1-1-1.6-1.4
						c-1-0.8-1.9-1.9-3.2-2.4c-0.4-0.2-1.1-0.6-1.2-1.3c0-0.1-0.2-0.3-0.4-0.4c-1.2-0.8-2.2-2.4-1.9-3.3c0.2-0.5,0.6-1,1.1-1.3
						c0.2-0.2,0.8,0.1,1.3,0.2c0.7,0.2,1.6,0.3,2.2,0.7C5.4,73,6.1,73.7,6.9,74.5z"/>
				</g>
			</g>
		</g>
	</g>
</g>
<g id="Layer_2">
	<g>
		<path class="st1" d="M316.2,4.6c-30.3,67.1-139.1,194-152.5,210.3s-23.1,18.4-30,29.8c-6.9,11.4,0,26.9,4.1,30.3l0,0
			c-2.9,4.2-4.6,7.1-6,10.8c-2.6,7,9.3,20.1,9.3,20.1l0,0c-1,2.6-1,3.6-1,6c0,9.7,12.8,21.7,12.8,21.7l0,0
			c-0.1,12.5,5.4,24.7,27.7,18.3c0.1,0,0-0.1,0.1-0.1c0,0,0-0.1-0.1-0.2c-5.4-4.8-3.9-14.8-2.5-22.5c1.7-9.6,3.3-25.6,19.3-24.3
			c0.5,0,1,0.1,1.4,0.2l0.3,0.1c-2.1-31.7,1.2-40.5,12.7-42.7c1.4-0.3,2.7-0.3,3.9,0l0.8,0.2c0,0-5.6-28.1,11.8-31.2
			c6.5-1.2,10.6,1.6,13.3,6.4l0,0.1c0,0,1-6.7,10.2-7.9c9.2-1.2,13.9,9.3,21.2,33.7c4.8,16,21.2,36,4.6,49.4
			c-1.6,1.3-3.3,2.1-5.2,2.7c-0.2,0.1-0.5,0.2-0.5,0.2c0.1,0.1,0.1,0.2,0.2,0.4c11.3,12.8,16.6-2.2,18.7-6.5c2.2-4.3,8.5-2.3,13.1-9
			c1.9-2.8-0.9-14.2-4.8-29.8l0,0c-3.4-2.9-6.4-7.6-7.5-14.9c-0.6-4-0.1-7.5,0.9-10.5l0.3-0.9c-3.7-17-6.8-35.8-6.7-53.2
			c0.3-32.9,119.5-150.9,119.5-150.9s-18.5,9.5-31.4,1.7C361.7,34.7,353,4.4,340.3,1.3C323-3,316.2,4.6,316.2,4.6z"/>
	</g>
	<g>
		<g>
			<g>
				<g>
					<path class="st0" d="M198.4,288.3c-0.2,0.4-0.9-0.2-1.2,0.1c-0.3,0.3-0.7,0.4-1.1,0.5c-0.2,0.1-0.3,0.3-0.4,0.6
						c-0.1,0.3-0.5-0.1-0.4,0.6c0,0.1,0,0-0.1,0c-0.4,0.2-0.8,0.7-1.4,0.6c-0.7-0.1-1.1,0.4-1.6,0.5c-0.5,1.1-1.5,1-2.3,1.5
						c-0.2,0.2-0.4,0.4-0.9,0.1c-0.4-0.2-0.4,0.5-0.9,0c0,0,0,0.1,0,0.2c0,0.1-0.1,0.3-0.2,0.3c-0.6-0.1-0.6-0.1-0.9,0.4
						c0,0.1-0.2-0.2-0.3-0.1c-0.2,0.1-0.5,0.2-0.6,0.3c-0.2,0.2-0.6-0.1-0.4,0.6c0,0.1-0.1,0.1-0.2,0.1c-0.2,0.1-0.4,0.2-0.6,0.3
						c-0.2,0.2-0.6,0-0.5,0.6c0,0.3-0.4-0.2-0.4-0.1c0,0.3,0,0.4-0.2,0.4c-0.1,0-0.3-0.1-0.5-0.1c-0.1,0,0,0.4-0.1,0.4
						c-0.2,0.2-0.6,0.1-0.6,0.5c-0.1,0.4-0.3,0.5-0.5,0.6c-0.2,0.2-0.5,0.2-0.6,0.4c-0.1,0.1-0.4,0-0.7,0c-0.2,0-0.2,0.5-0.7,0
						c0,0,0,0,0,0c-0.4,0.1-0.8,0.2-1.1,0.3c-0.6,0.3-1.1,0.7-1.7,1.1c-0.2,0.1-0.2,0.4-0.7,0c-0.1-0.1-0.1,0.1-0.2,0.1
						c-0.3-0.2,0.1,0.8-0.3,0.5c-0.4-0.3-0.4,0-0.5,0.1c-0.2,0.1-0.3,0.2-0.5,0.3c-0.1,0.1-0.2,0.2-0.1,0.5c-0.5-0.4-0.4,0-0.7-0.1
						c-0.2-0.1-0.4-0.1-0.4,0.1c0.1,0.5-0.1,0.4-0.3,0.5c-0.2,0.2-0.5,0.2-0.4,0.7c0,0.2-0.2,0.2-0.3,0.2c-0.1,0-0.4-0.1-0.5,0
						c-0.2,0.1-0.4,0.2-0.3,0.6c0,0.3-0.5,0-0.3,0.7c0,0.1,0,0.1-0.1,0.1c-0.3-0.1-0.6-0.1-0.5,0.3c0,0.3-0.3,0.3-0.5,0.4
						c-0.2,0.1-0.3,0.4-0.6,0.4c-0.2,0,0.3,0.7-0.2,0.4c-0.3-0.2-0.3,0.1-0.4,0.1c-0.1,0.1-0.2,0.3-0.3,0.2c-1-0.1-1.2,0.8-1.8,1.1
						c-0.3,0.1-0.2,0.7-0.9,0.4c0.2,0.6-0.3,0.4-0.2,0.8c0.1,0.3,0,0.3-0.1,0.4c-0.6,0.5-1.1,1-1.6,1.6c-0.3,0.4-0.5,0.9-0.8,1.3
						c-0.1,0.1-0.1,0.3-0.5,0.1c-0.3-0.1-0.4,0-0.2,0.5c0,0.1,0.1,0.2,0,0.1c-0.8-0.3-0.3,0.4-0.5,0.7c-0.3,0.4-1.1,0.5-1.3,1
						c-0.1,0.1-0.3,0.1,0,0.5c-0.4-0.2-0.3,0-0.2,0.2c0.1,0.2,0,0.4-0.3,0.3c-0.4-0.1-0.3,0.1-0.4,0.1c-0.1,0.1-0.2,0.2-0.3,0.3
						c-0.5,0.4-0.8,0.8-1.3,1.2c-0.1,0.1-0.3,0.1-0.5,0.1c-0.1,0,0,0.3-0.4,0.1c-0.2-0.1-0.1,0.1-0.2,0.2c-0.2,0.2-0.6,0.4-0.4,0.8
						c0.2,0.4-0.3,0.4,0.2,0.9c0.1,0.1-0.1,0.2-0.1,0.3c0,0.4-0.7,0.5-0.2,1.1c-0.5-0.1-0.4,0.1-0.5,0.3c0,0.1-0.3,0.1,0.2,0.4
						c0.1,0,0,0.1,0,0.1c-0.2,0.1-0.5,0.1-0.5,0.2c0,0.1,0.3,0.3,0.2,0.5c-0.2,0.4-0.9,0.7-0.8,1.2c-0.4,0-0.4,0.2-0.4,0.4
						c-0.1,0.3,0.4,0.6,0.2,0.9c-0.2,0.2-0.4,0.5-0.1,0.8c0.4,0.5,0,0.9,0.1,1.4c0,0.1,0.2,0.3-0.3,0.3c-0.1,0-0.1,0.1,0.1,0.2
						c0.3,0.1,0.1,0.2,0.2,0.3c0.3,0.2-1,0.3-0.1,0.6l-0.1,0.7c0,0.2,0,0.4-0.1,0.7c0,0.1,0.1,0.2-0.3,0.3c-0.2,0.1-0.3,0.2-0.1,0.3
						c0.5,0.2,0.3,0.4,0.3,0.5c0,0.5,0,1-0.1,1.5c0,0.2-0.2,0.4-0.4,0.7c-0.1,0.2,0.2,0.5-0.3,0.7c0,0,0,0,0,0.1
						c0.1,0.1,0.2,0.2,0.2,0.3c0,0.1-0.5,0.3-0.3,0.3c0.4,0.1,0,0.2-0.1,0.3c-0.1,0.3-1.1,0.4-2.2,0.4c-0.3,0-0.5,0-0.7-0.1
						c-1.2-0.3-1.2-0.3-1.2-0.7c-0.1-0.6,0.7-1.1,0.4-1.7c0.7-0.3,0.3-0.7,0.4-1.1c0.2-0.4,0.7-0.7,0.4-1.1
						c-0.3-0.4-0.2-0.8-0.2-1.1c0-0.3,0.3-0.5,0.4-0.8c0.1-0.3,0-0.6,0.2-0.9c0.1-0.2,0.6-0.3,0.3-0.5c-0.5-0.4,0-0.8-0.2-1.2
						c-0.3-0.6,0-1-0.1-1.6c-0.1-0.3-0.2-0.6-0.1-0.9c0-0.1,0-0.3,0.3-0.3c0.3-0.1,0.3-0.3,0-0.5c-0.1-0.1-0.2-0.3-0.1-0.3
						c0.6-0.1,0.4-0.5,0.5-0.7c0-0.2,0.6-0.2,0.4-0.4c-0.3-0.3-0.1-0.4-0.1-0.5c0-0.1-0.1-0.3,0.4-0.2c0.1,0,0.2-0.1,0.1-0.1
						c-0.5-0.4-0.1-0.5-0.1-0.7c0.1-0.5,0.4-0.9,0.6-1.4c0.2-0.3-0.2-1,0.2-1.3c-0.4-0.5-0.1-0.7,0.1-0.9c0.1-0.2,0.4-0.2,0.6-0.4
						c0.2-0.1,0.2-0.3,0.6-0.4c0.4,0,0.3-0.5,0.5-0.7c0.1-0.1-0.1-0.5,0.5-0.2c0.1,0,0.1,0,0.1-0.1c-0.4-0.5-0.1-0.6,0.2-0.6
						c0.5,0,0.5-0.3,0.7-0.5c0.2-0.2,0.3-0.4,0.5-0.6c0.1-0.1,0.1-0.3,0.4-0.3c0.2,0,0.1-0.3,0.2-0.5c0.1-0.1,0.2-0.3,0.3-0.4
						l0.4-0.4l0.4-0.4c0.1-0.1,0.2-0.3,0.4-0.4c0.2-0.1,0.5-0.1,0.6-0.2c0.4-0.3,0.3-1.1,0.8-1.3c-0.2-0.4,0.1-0.3,0.3-0.3
						c0.1,0,0.4,0,0.2-0.4c-0.1-0.1,0-0.1,0-0.2c0-0.1,0.4,0.1,0.3-0.2c-0.1-0.2,0.2-0.2,0.2-0.3c0.1-0.1,0.4,0,0.1-0.5
						c0.7,0.4,0.1-0.6,0.5-0.5c0.1,0,0.2,0,0.3,0c0.1,0,0.2,0,0.2,0c0-1,0.9-1,1.2-1.6c0-0.1,0-0.2,0-0.4c0-0.1,0-0.1,0.1-0.1
						c0.5,0,0.5,0,0.5-0.5c0-0.1,0.1-0.1,0.2-0.2c0.1-0.2,0.4-0.2,0.3-0.7c0-0.4,0.6-0.1,0.9-0.1c0.3,0,0.6,0.1,0.8-0.1
						c0.4-0.4,0.9-0.7,1.4-1.1c0.1,0,0.2,0,0.2-0.1c-0.2-0.6-0.3-1,0.4-0.3c0,0,0.1,0,0.1-0.1c-0.3-0.6,0.1-0.5,0.2-0.5
						c0.5-0.3,0.6-1.3,1.3-1.4c0.1,0,0.1-0.2,0.3-0.1c0.4,0.3,0-0.3,0.2-0.3c0.2,0.1,0.1-0.2,0.3-0.1c0.6,0.4,0.7,0,0.8-0.3
						c0.1-0.3,0.2-0.6,0.5-0.6c0.6,0.1,0.8-0.3,1.2-0.5c0.4-0.2,0.8-0.4,1.1-0.7c0.1-0.1,0.4,0,0.3-0.6c0-0.1,0.1-0.1,0.1-0.1
						c0.2,0,0.4,0.1,0.5,0s0.1-0.3,0.2-0.5c0.1-0.1,0.2-0.1,0.1-0.4c0-0.2,0.2-0.2,0.4,0c0.5,0.4,1.1,0.8,1.3,0.5
						c0.2-0.2,0.5-0.3,0.7-0.5c0.1-0.1,0.2-0.1,0.2-0.4c0-0.3,0.2-0.3,0.4-0.2c0.3,0.1,0.5,0.1,0.6-0.3c0-0.1,0.1-0.2,0.2-0.2
						c0.4-0.3,0.9-0.5,1.3-0.8c0.1-0.1,0.2-0.2,0.5,0.1c-0.2-0.5,0-0.4,0.1-0.4c0.2,0,0.4,0.1,0.6,0c0.2,0,0.3-0.2,0.4-0.5
						c0-0.3,0.4,0,0.4-0.5c0-0.1,0.2,0.1,0.2,0.1c0.1-0.2,0.6,0.1,0.4-0.6c0-0.1,0-0.1,0.1,0c0.5,0.5,0.5-0.1,0.7-0.4
						c0.2-0.3,0.6,0.1,0.9,0c0.3-0.2,0.5-0.5,0.8-0.4c0.7,0.2,1-0.2,1.5-0.4c0.5-0.2,0.9-0.4,1.4-0.7c0.2-0.1,0.3-0.4,0.5-0.6
						c0.2-0.2,0.4-0.2,0.7-0.3c0.2-0.1,0.4-0.2,0.6-0.3c0.1,0,0.1-0.3,0.4,0.1c0.1,0.1,0.1,0.1,0.1,0c0-0.5,0.2-0.6,0.5-0.3
						c0.1,0.1,0.1-0.1,0.2,0c0.2,0.1,0.2-0.4,0.3-0.6c0.1-0.2,0.4,0.1,0.3-0.5c0-0.1,0.1-0.1,0.1-0.1c0.7,0.9,0.4-0.9,1.1-0.2
						c-0.1-0.6,0.3,0,0.3-0.2c0.1-0.2,0.1-0.4,0.3-0.4c0.1,0,0.3-0.1,0.4-0.2c0.2-0.2,0.6,0,0.6-0.6c0-0.2,0.1-0.4,0.4,0
						c0.1,0.1,0.1,0,0.1,0c0.2-0.3,0.7,0.1,1.1,0.9c0.2,0.5,0.5,1.1,0.7,1.6c0.1,0.3,0,0.5,0,0.7c0,0.4,0.1,0.9,0,1
						C198.8,288.3,198.6,288.2,198.4,288.3z"/>
				</g>
			</g>
		</g>
	</g>
	<g>
		<g>
			<g>
				<g>
					<path class="st0" d="M171.3,269c0.1,0.4-0.7,0.1-0.8,0.4c-0.1,0.3-0.3,0.5-0.5,0.7c-0.1,0.1-0.1,0.3,0,0.5c0.1,0.2-0.4,0,0,0.6
						c0,0,0,0,0,0c-0.2,0.3-0.3,0.7-0.7,0.7c-0.6,0-0.6,0.5-1,0.7c0.2,1-0.7,1.1-1,1.7c-0.1,0.2-0.1,0.4-0.6,0.3
						c-0.4-0.1,0,0.5-0.7,0.2c-0.1,0,0,0.1,0,0.1c0,0.1,0.1,0.3,0,0.3c-0.5,0-0.5,0-0.5,0.5c0,0.1-0.2-0.1-0.3-0.1
						c-0.1,0.1-0.3,0.2-0.3,0.4c-0.1,0.2-0.5,0-0.1,0.5c0.1,0.1,0,0.1-0.1,0.1c-0.1,0.1-0.2,0.2-0.3,0.4c-0.1,0.2-0.4,0.1-0.1,0.6
						c0.1,0.2-0.4-0.1-0.4,0c0.1,0.2,0.1,0.3,0,0.4c-0.1,0-0.3-0.1-0.4,0c0,0.1,0.1,0.3,0.1,0.4c-0.1,0.2-0.4,0.1-0.3,0.5
						c0.1,0.3,0,0.4-0.1,0.6c-0.1,0.2-0.3,0.2-0.3,0.4c0,0.1-0.3,0.1-0.5,0.1c-0.2,0,0.1,0.4-0.5,0.1c0,0,0,0,0,0
						c-0.3,0.1-0.6,0.2-0.8,0.4c-0.3,0.3-0.6,0.7-0.9,1.1c-0.1,0.1,0,0.3-0.5,0.1c-0.1-0.1,0,0.1-0.1,0.1c-0.3-0.1,0.4,0.6,0,0.4
						c-0.4-0.2-0.3,0.1-0.4,0.1c-0.1,0.1-0.2,0.2-0.3,0.3c-0.1,0.1-0.1,0.2,0.1,0.4c-0.5-0.3-0.3,0.1-0.6,0
						c-0.2-0.1-0.4-0.1-0.3,0.1c0.3,0.4,0,0.3,0,0.5c-0.1,0.2-0.3,0.2-0.1,0.6c0.1,0.2-0.1,0.2-0.2,0.2c-0.1,0-0.3-0.1-0.4,0
						c-0.1,0.1-0.2,0.2,0,0.5c0.1,0.3-0.4,0,0,0.6c0.1,0.1,0,0.1-0.1,0.1c-0.3-0.1-0.5-0.1-0.3,0.3c0.2,0.3-0.1,0.3-0.2,0.4
						c-0.1,0.1-0.1,0.3-0.3,0.3c-0.1,0,0.5,0.6,0,0.3c-0.3-0.1-0.2,0.1-0.3,0.1c-0.1,0.1,0,0.2-0.2,0.2c-0.9,0-0.7,0.7-1.2,1
						c-0.2,0.1,0.1,0.6-0.6,0.3c0.4,0.5-0.1,0.3,0.1,0.7c0.1,0.2,0.1,0.3,0,0.3c-0.3,0.4-0.7,0.8-1,1.3c-0.2,0.3-0.2,0.7-0.4,1
						c0,0.1,0,0.2-0.4,0.1c-0.3-0.1-0.4,0-0.1,0.4c0.1,0.1,0.1,0.1,0,0.1c-0.8-0.3-0.2,0.3-0.3,0.5c-0.2,0.3-0.8,0.3-1,0.7
						c0,0.1-0.3,0,0.1,0.4c-0.4-0.2-0.3-0.1-0.1,0.1c0.1,0.2,0.1,0.3-0.2,0.2c-0.3-0.1-0.3,0-0.4,0.1c-0.1,0.1-0.1,0.2-0.2,0.2
						c-0.3,0.3-0.6,0.5-1,0.8c-0.1,0-0.3,0-0.4,0c-0.1,0,0,0.2-0.4,0c-0.2-0.1-0.1,0.1-0.1,0.1c-0.1,0.2-0.5,0.2-0.3,0.5
						c0.2,0.4-0.3,0.3,0.2,0.8c0.1,0.1-0.1,0.1-0.1,0.2c0,0.3-0.6,0.2-0.2,0.9c-0.4-0.2-0.4,0-0.5,0.1c0,0.1-0.3,0,0.1,0.4
						c0,0,0,0.1,0,0.1c-0.2,0-0.5-0.1-0.5,0c0,0.1,0.2,0.4,0.2,0.4c-0.2,0.3-0.9,0.3-0.9,0.7c-0.4-0.1-0.4,0-0.5,0.1
						c-0.1,0.2,0.2,0.6,0,0.7c-0.2,0.1-0.4,0.2-0.3,0.5c0.3,0.5-0.2,0.6-0.2,0.9c0,0.1,0.1,0.2-0.4,0.1c-0.1,0-0.1,0.1,0,0.2
						c0.3,0.2,0,0.2,0.1,0.3c0.2,0.3-1-0.2-0.2,0.4l-0.2,0.4c-0.1,0.1-0.1,0.3-0.2,0.4c0,0.1,0,0.2-0.3,0.1c-0.2-0.1-0.3,0-0.2,0.2
						c0.4,0.3,0.2,0.3,0.1,0.4c-0.1,0.3-0.3,0.6-0.5,0.9c-0.1,0.1-0.3,0.2-0.5,0.3c-0.2,0.1,0.1,0.4-0.4,0.3c0,0,0,0,0,0
						c0,0.1,0.2,0.2,0.1,0.2c-0.1,0.1-0.5,0-0.3,0.1c0.3,0.2-0.1,0.1-0.2,0.2c-0.2,0.1-1.1-0.1-2.2-0.5c-0.2-0.1-0.5-0.2-0.7-0.3
						c-1.1-0.6-1-0.6-1-0.9c0.1-0.4,0.9-0.5,0.8-1c0.7,0,0.4-0.4,0.7-0.6c0.2-0.2,0.8-0.2,0.6-0.6c-0.2-0.4,0-0.6,0.1-0.8
						c0.1-0.2,0.4-0.2,0.6-0.4c0.1-0.2,0.1-0.4,0.3-0.5c0.2-0.1,0.6,0,0.4-0.2c-0.3-0.5,0.2-0.5,0.1-0.8c-0.2-0.5,0.2-0.7,0.2-1.1
						c0-0.2-0.1-0.5,0.1-0.6c0.1-0.1,0.1-0.1,0.3-0.1c0.3,0.1,0.3-0.1,0.1-0.3c-0.1-0.1-0.1-0.2,0-0.2c0.5,0.1,0.5-0.1,0.5-0.3
						c0.1-0.1,0.5,0.1,0.4-0.1c-0.2-0.3,0-0.3,0-0.4c0-0.1-0.1-0.2,0.3,0c0.1,0.1,0.2,0,0.1-0.1c-0.4-0.4-0.1-0.4,0-0.5
						c0.1-0.3,0.3-0.6,0.5-0.8c0.2-0.2-0.2-0.8,0.1-0.9c-0.4-0.5-0.1-0.5,0-0.6c0.1-0.1,0.3-0.1,0.5-0.1c0.2,0,0.2-0.2,0.5-0.2
						c0.4,0,0.2-0.3,0.4-0.4c0.1-0.1-0.1-0.4,0.4-0.1c0.1,0,0.1,0,0-0.1c-0.4-0.5-0.2-0.5,0.1-0.5c0.4,0.1,0.4-0.2,0.6-0.3
						c0.1-0.1,0.2-0.3,0.3-0.4c0.1-0.1,0.1-0.2,0.3-0.2c0.2,0,0-0.3,0.1-0.4c0-0.1,0.1-0.2,0.2-0.3l0.2-0.3l0.2-0.3
						c0.1-0.1,0.1-0.2,0.2-0.3c0.1-0.1,0.4,0,0.5-0.1c0.3-0.2,0-0.9,0.4-1c-0.3-0.3,0-0.2,0.1-0.2c0.1,0,0.3,0,0-0.3
						c-0.1-0.1,0-0.1,0-0.2c0-0.1,0.4,0.1,0.2-0.2c-0.1-0.2,0.1-0.1,0.1-0.2c0-0.1,0.3,0-0.1-0.4c0.7,0.4-0.1-0.5,0.3-0.4
						c0.1,0,0.2,0,0.3,0c0,0,0.1,0,0.1,0c-0.3-0.8,0.4-0.8,0.5-1.3c0-0.1-0.1-0.2-0.1-0.3c0,0,0-0.1,0-0.1c0.4,0,0.4,0,0.3-0.4
						c0-0.1,0.1-0.1,0.1-0.2c0-0.2,0.2-0.2,0.1-0.5c-0.2-0.3,0.4-0.1,0.7-0.1c0.3,0,0.6,0.1,0.7-0.1c0.2-0.4,0.5-0.6,0.7-0.9
						c0,0,0.2,0,0.1-0.1c-0.4-0.5-0.6-0.8,0.2-0.2c0,0,0.1,0,0-0.1c-0.4-0.5-0.1-0.4,0-0.5c0.3-0.3,0-1,0.5-1.2c0.1,0,0-0.2,0.2-0.1
						c0.4,0.2-0.1-0.3,0-0.2c0.1,0,0-0.2,0.2-0.1c0.6,0.3,0.6,0,0.5-0.3c0-0.3-0.1-0.5,0.1-0.5c0.5,0,0.6-0.3,0.8-0.5
						c0.2-0.2,0.4-0.4,0.6-0.7c0.1-0.1,0.4,0,0-0.5c-0.1-0.1,0-0.1,0.1-0.1c0.1,0,0.4,0.1,0.4,0s-0.1-0.3-0.1-0.4
						c0-0.1,0.1-0.1-0.1-0.4c-0.1-0.2,0.1-0.1,0.4,0c0.6,0.2,1.2,0.5,1.2,0.3c0.1-0.2,0.3-0.3,0.4-0.5c0-0.1,0.1-0.1,0-0.4
						c-0.1-0.2,0-0.3,0.2-0.2c0.3,0.1,0.4,0,0.3-0.3c-0.1-0.1,0-0.2,0-0.2c0.2-0.3,0.4-0.5,0.7-0.8c0.1-0.1,0-0.2,0.4,0
						c-0.3-0.4-0.2-0.3-0.1-0.4c0.1-0.1,0.4,0,0.5-0.1c0.1-0.1,0.2-0.2,0-0.5c-0.1-0.3,0.3-0.1,0.1-0.5c0-0.1,0.2,0.1,0.2,0
						c0-0.2,0.5,0,0-0.6c0,0,0-0.1,0,0c0.6,0.3,0.4-0.2,0.3-0.4c0-0.3,0.5,0,0.6-0.2c0.1-0.2,0.1-0.5,0.4-0.4c0.6,0,0.6-0.4,0.9-0.6
						c0.3-0.2,0.5-0.5,0.7-0.8c0.1-0.1,0-0.4,0.1-0.6c0.1-0.2,0.2-0.3,0.3-0.4c0.1-0.1,0.2-0.3,0.3-0.4c0.1,0,0-0.2,0.3,0
						c0.1,0,0.1,0,0.1,0c-0.3-0.4-0.2-0.5,0.3-0.3c0.1,0,0.1-0.1,0.1-0.1c0.2,0,0-0.3,0-0.5c0-0.2,0.4,0,0-0.5
						c-0.1-0.1,0-0.1,0.1-0.1c1,0.5-0.2-0.8,0.7-0.3c-0.4-0.5,0.2-0.1,0.2-0.2c0-0.2-0.1-0.3,0-0.4c0.1-0.1,0.2-0.1,0.2-0.2
						c0.1-0.2,0.4-0.1,0.1-0.6c-0.1-0.2-0.1-0.3,0.3-0.1c0.1,0,0.1,0,0.1,0c0-0.3,0.6-0.1,1.3,0.4c0.4,0.3,0.9,0.7,1.3,1.1
						c0.2,0.2,0.3,0.4,0.4,0.5c0.2,0.3,0.5,0.7,0.5,0.8C171.5,268.9,171.4,268.9,171.3,269z"/>
				</g>
			</g>
		</g>
	</g>
	<g>
		<g>
			<g>
				<g>
					<path class="st0" d="M159.7,234.4c0.3,0.2-0.4,0.6-0.3,0.9c0.2,0.3,0.1,0.6,0.1,0.9c0,0.2,0.1,0.3,0.3,0.4
						c0.2,0.1-0.3,0.3,0.4,0.5c0.1,0,0,0,0,0.1c0,0.4,0.2,0.8-0.1,1.1c-0.4,0.4-0.1,0.8-0.4,1.2c0.7,0.8,0,1.4,0,2
						c0,0.2,0.1,0.5-0.4,0.6c-0.4,0.1,0.2,0.5-0.5,0.5c-0.1,0,0.1,0.1,0.1,0.1c0.1,0.1,0.2,0.2,0.1,0.2c-0.5,0.3-0.5,0.3-0.2,0.7
						c0,0-0.3,0-0.3,0.1c-0.1,0.2-0.2,0.3-0.1,0.5c0,0.2-0.4,0.2,0.2,0.5c0.1,0.1,0,0.1,0,0.1c-0.1,0.2-0.1,0.3-0.1,0.5
						c0,0.2-0.3,0.3,0.1,0.6c0.2,0.2-0.4,0.1-0.3,0.1c0.2,0.2,0.2,0.3,0.2,0.3c-0.1,0.1-0.3,0.1-0.4,0.1c0,0.1,0.2,0.2,0.2,0.3
						c0,0.2-0.3,0.3-0.1,0.5c0.2,0.3,0.1,0.4,0.1,0.6c0,0.2-0.2,0.3-0.2,0.5c0,0.2-0.3,0.2-0.5,0.2c-0.2,0.1,0.2,0.4-0.5,0.2
						c0,0,0,0,0,0c-0.2,0.2-0.5,0.4-0.6,0.6c-0.2,0.4-0.4,0.8-0.6,1.2c-0.1,0.1,0.1,0.3-0.5,0.2c-0.1,0,0,0.1-0.1,0.1
						c-0.3,0,0.5,0.5,0.1,0.4c-0.4-0.1-0.3,0.1-0.4,0.2c-0.1,0.1-0.1,0.2-0.2,0.3c-0.1,0.1,0,0.2,0.2,0.4c-0.6-0.2-0.3,0.1-0.6,0.1
						c-0.2,0-0.4,0-0.3,0.1c0.4,0.3,0.1,0.3,0.1,0.5c0,0.2-0.3,0.3,0,0.6c0.1,0.2,0,0.2-0.1,0.2c-0.1,0-0.3,0-0.4,0.1
						c-0.1,0.1-0.2,0.2,0.1,0.5c0.2,0.3-0.4,0.1,0.1,0.5c0.1,0.1,0,0.1,0,0.1c-0.3,0-0.5,0-0.3,0.3c0.2,0.3-0.1,0.3-0.2,0.4
						c-0.1,0.1-0.1,0.3-0.3,0.4c-0.1,0,0.6,0.5,0,0.3c-0.3-0.1-0.2,0.1-0.3,0.2c-0.1,0.1,0,0.2-0.2,0.2c-0.8,0.1-0.6,0.8-1,1.1
						c-0.2,0.1,0.1,0.6-0.6,0.3c0.4,0.4-0.1,0.3,0.1,0.6c0.2,0.2,0.1,0.3,0.1,0.3c-0.3,0.5-0.6,0.9-0.8,1.4c-0.2,0.3-0.2,0.7-0.3,1
						c0,0.1,0,0.2-0.4,0.1c-0.3-0.1-0.4,0,0,0.4c0.1,0.1,0.1,0.1,0,0.1c-0.8-0.3-0.2,0.3-0.3,0.5c-0.2,0.4-0.8,0.4-1,0.7
						c0,0.1-0.3,0,0.1,0.4c-0.4-0.2-0.3,0-0.1,0.1c0.1,0.2,0.1,0.3-0.2,0.2c-0.3-0.1-0.3,0-0.4,0.1c-0.1,0.1-0.1,0.2-0.2,0.2
						c-0.3,0.3-0.6,0.5-1,0.8c-0.1,0-0.3,0-0.4,0c-0.1,0,0,0.2-0.4,0c-0.2-0.1-0.1,0.1-0.1,0.1c-0.1,0.2-0.5,0.2-0.3,0.5
						c0.2,0.4-0.3,0.2,0.2,0.8c0.1,0.1-0.1,0.1-0.1,0.2c0,0.3-0.6,0.2-0.2,0.9c-0.4-0.2-0.4,0-0.5,0.1c0,0.1-0.3,0,0.1,0.4
						c0,0,0,0.1,0,0.1c-0.2,0-0.5-0.1-0.5,0c0,0.1,0.2,0.4,0.2,0.4c-0.2,0.3-0.9,0.2-0.9,0.6c-0.4-0.2-0.4,0-0.5,0.1
						c-0.1,0.1,0.2,0.6,0,0.7c-0.2,0.1-0.4,0.2-0.3,0.5c0.2,0.5-0.2,0.6-0.3,0.9c0,0.1,0.1,0.3-0.4,0c-0.1-0.1-0.1,0,0,0.2
						c0.2,0.2,0,0.2,0.1,0.3c0.2,0.3-0.9-0.3-0.2,0.3l-0.3,0.4c-0.1,0.1-0.2,0.3-0.3,0.4c-0.1,0.1,0,0.2-0.3,0
						c-0.2-0.1-0.3,0-0.2,0.1c0.3,0.4,0.1,0.4,0,0.5c-0.2,0.3-0.4,0.6-0.6,0.9c-0.1,0.1-0.4,0.1-0.5,0.2c-0.2,0.1,0,0.4-0.4,0.3
						c0,0,0,0,0,0c0,0.1,0.1,0.2,0.1,0.3c-0.1,0-0.5-0.1-0.4,0c0.3,0.3-0.1,0.1-0.2,0.1c-0.2,0.1-1.1-0.3-2-1
						c-0.2-0.1-0.4-0.3-0.6-0.5c-0.9-0.8-0.9-0.8-0.8-1.1c0.1-0.3,0.9-0.2,0.9-0.7c0.7,0.2,0.5-0.3,0.7-0.4c0.3-0.1,0.8,0,0.7-0.4
						c-0.2-0.4,0-0.6,0.2-0.7c0.1-0.1,0.4-0.1,0.6-0.3c0.2-0.1,0.1-0.4,0.4-0.4c0.2,0,0.6,0.1,0.4-0.1c-0.3-0.5,0.2-0.4,0.1-0.8
						c-0.1-0.5,0.3-0.6,0.3-1c0-0.2,0-0.4,0.1-0.6c0.1-0.1,0.1-0.1,0.3-0.1c0.3,0.1,0.3,0,0.1-0.3c-0.1-0.1-0.1-0.2,0-0.2
						c0.5,0.2,0.4-0.1,0.5-0.2c0.1-0.1,0.5,0.1,0.4-0.1c-0.2-0.3,0-0.3,0-0.4c0-0.1-0.1-0.2,0.3,0c0.1,0.1,0.2,0,0.1-0.1
						c-0.4-0.4-0.1-0.4,0-0.5c0.1-0.3,0.3-0.5,0.5-0.7c0.2-0.2-0.2-0.8,0.1-0.8c-0.4-0.5-0.1-0.5,0-0.6c0.1-0.1,0.3-0.1,0.5-0.1
						c0.2,0,0.1-0.2,0.4-0.2c0.4,0.1,0.2-0.3,0.4-0.4c0.1-0.1-0.1-0.3,0.4-0.1c0.1,0,0.1,0,0-0.1c-0.4-0.4-0.2-0.5,0.1-0.4
						c0.4,0.1,0.4-0.2,0.5-0.3c0.1-0.1,0.1-0.3,0.3-0.4c0.1-0.1,0-0.2,0.3-0.2c0.2,0,0-0.2,0-0.3c0-0.1,0.1-0.2,0.2-0.3l0.2-0.3
						l0.2-0.3c0.1-0.1,0.1-0.2,0.2-0.3c0.1-0.1,0.4,0,0.5-0.1c0.2-0.2-0.1-0.8,0.3-1c-0.3-0.3,0-0.2,0.1-0.2c0.1,0,0.3,0,0-0.3
						c-0.1-0.1,0-0.1-0.1-0.2c0-0.1,0.4,0.1,0.2-0.2c-0.1-0.2,0.1-0.1,0.1-0.2c0-0.1,0.3,0-0.1-0.4c0.8,0.3-0.2-0.5,0.2-0.4
						c0.1,0,0.2,0,0.3,0c0,0,0.2,0,0.1,0c-0.4-0.7,0.3-0.8,0.4-1.2c0-0.1-0.1-0.2-0.1-0.3c0,0,0-0.1,0-0.1c0.4,0,0.4,0,0.2-0.4
						c0-0.1,0-0.1,0-0.2c0-0.2,0.2-0.2,0-0.5c-0.2-0.3,0.4-0.1,0.7-0.1c0.3,0,0.6,0,0.6-0.1c0.1-0.4,0.4-0.6,0.5-1c0,0,0.2,0,0-0.1
						c-0.5-0.4-0.8-0.7,0.2-0.3c0,0,0.1,0,0-0.1c-0.5-0.4-0.2-0.3-0.1-0.4c0.3-0.3-0.2-1,0.2-1.2c0.1,0,0-0.2,0.2-0.1
						c0.4,0.1-0.2-0.2,0-0.2c0.1,0,0-0.2,0.1-0.1c0.7,0.1,0.6-0.1,0.4-0.4c-0.1-0.2-0.2-0.5,0-0.5c0.5,0,0.5-0.4,0.6-0.6
						c0.2-0.2,0.3-0.5,0.4-0.7c0-0.1,0.3-0.1-0.1-0.4c-0.1-0.1,0-0.1,0-0.1c0.1,0,0.4,0,0.4-0.1c0-0.1-0.1-0.2-0.2-0.4
						c0-0.1,0.1-0.1-0.2-0.3c-0.2-0.1,0-0.1,0.3-0.1c0.6,0.1,1.2,0.2,1.2-0.1c0-0.2,0.1-0.3,0.2-0.5c0-0.1,0.1-0.1-0.1-0.3
						c-0.2-0.2-0.1-0.2,0.1-0.2c0.3,0,0.4-0.1,0.1-0.4c-0.1-0.1-0.1-0.1-0.1-0.2c0.1-0.3,0.2-0.6,0.3-0.9c0-0.1-0.1-0.2,0.4-0.1
						c-0.5-0.2-0.3-0.2-0.2-0.3c0.1-0.1,0.3-0.1,0.4-0.2c0.1-0.1,0.1-0.2-0.2-0.4c-0.2-0.2,0.2-0.2-0.1-0.4c-0.1,0,0.2,0,0.2,0
						c-0.1-0.2,0.4-0.2-0.2-0.5c-0.1,0,0-0.1,0,0c0.7,0,0.2-0.3,0.1-0.4c-0.2-0.2,0.4-0.2,0.5-0.4c0-0.2-0.1-0.4,0.2-0.5
						c0.5-0.2,0.3-0.6,0.4-0.8c0.1-0.3,0.1-0.6,0.1-0.9c0-0.1-0.2-0.3-0.3-0.4c0-0.2,0-0.3,0-0.4c0-0.1,0-0.3,0-0.4
						c0-0.1-0.2-0.1,0.2-0.2c0.1,0,0.1,0,0.1-0.1c-0.5-0.1-0.4-0.2,0-0.4c0.1,0,0-0.1,0.1-0.1c0.2-0.1-0.2-0.2-0.4-0.3
						c-0.1-0.1,0.3-0.2-0.3-0.3c-0.1,0-0.1-0.1,0-0.1c1.1-0.2-0.7-0.4,0.3-0.6c-0.6,0,0.1-0.2,0-0.2c-0.1-0.1-0.3-0.1-0.3-0.2
						c0-0.1,0-0.2,0-0.2c-0.1-0.1,0.2-0.3-0.3-0.4c-0.2,0-0.3-0.1,0.2-0.2c0.1,0,0.1-0.1,0-0.1c-0.2-0.1,0.3-0.4,1.2-0.6
						c0.5-0.1,1.1-0.2,1.7-0.3c0.3,0,0.4,0,0.6,0c0.3,0,0.8,0.1,1,0.2C159.8,234.1,159.7,234.2,159.7,234.4z"/>
				</g>
			</g>
		</g>
	</g>
	<g>
		<g>
			<g>
				<g>
					<path class="st0" d="M309.4,23c-1.2,2.6-2.8,5-4.4,7.5c-1.6,2.5-3.4,5.1-5,7.8c-3.2,5.5-6.7,10.9-10.3,16.2
						c-1.8,2.7-3.4,5.3-4.9,8c-1.5,2.6-3.9,5.2-5,8c-0.1,0.2-0.5,0.7-0.7,1.1c-2.2,3.2-4.4,6.4-6.6,9.6c-2.2,3.2-4.5,6.3-6.8,9.2
						c-5.5,6.8-10.3,13.9-15.7,20.7c-7.9,11.7-17,22.6-25.7,33.8c-2.7,3.5-5.4,7.1-8.5,10.3c-2.7,2.8-5.1,6.9-8.2,9.6
						c-0.3,0.2-0.6,0.9-1,1.4c-0.8,1.2-1.7,2.4-2.6,3.4c-5.4,6.1-5.4,6-9.4,11.5c-0.5,0.6-1.3,1.2-1.9,1.9c-2.4,2.9-4.8,5.7-7.1,8.6
						c-2.1,2.6-4.7,5.1-6.2,8c-0.3,0.6-1.4,1.7-2.1,2.5c-2.3,2.7-4.6,5.4-6.8,8.1c-2.6,3.1-5.3,6-7.6,9.5c-0.5,0.7-1.3,1.5-2.1,2.1
						c-0.8,0.6-1.5,1.2-1.8,1.6c-0.6,0.8-1.2,1.5-1.9,2.2c-0.6,0.7-1.3,1.3-2.1,1.9c-1.4,1.2-3,2.2-4.4,3.4c-1.2,1-2.3,2.2-3.5,3.2
						c-1.5,1.3-3.1,2.5-4.5,3.7c-1.4,1.3-2.8,2.6-3.7,4c-0.6,0.7-1,1.5-1.5,2.2c-0.5,0.7-0.9,1.5-1.4,2.2c-0.3,0.7-0.8,1.4-1,2.2
						c-0.3,0.8-0.6,1.5-0.7,2.3l-0.3,1.2l-0.2,1.3c-0.2,0.8-0.1,1.7-0.2,2.6c0,1.8,0.2,3.5,0.6,5.3c0.6,2.7,1.2,5.2,2.3,7.6
						c0.2,0.4,0.4,0.8,0.6,1.2c0.2,0.4,0.5,0.8,0.7,1.1l0.2,0.3l0.1,0.1l0,0.1l0.1,0.1l0.9,0.9c0.5,0.6,1.3,1.3,2,2
						c-0.5,0.7-1,1.4-1.5,2c-0.2,0.3-0.5,0.6-0.7,0.9l-0.4,0.4l-0.2,0.2l-0.1,0.1c-0.1,0.1-0.2,0.3-0.3,0.5
						c-1.6,2.4-3.1,4.8-4.1,7.4c-0.9,1.8-0.1,4.6,1,7.1c0.9,2,2.1,3.9,3.4,5.8c0.7,0.9,1.3,1.9,2,2.8l1.1,1.3
						c0.5,0.7,1.3,1.4,1.9,2.2l-0.6,1.6c-0.1,0.3-0.2,0.5-0.3,0.8l-0.1,0.4c-0.1,0.6-0.2,1.1-0.2,1.7c0,0.6,0,1.3,0,2l0.1,0.9
						c0,0.3,0,0.6,0.1,0.9c0.5,2.4,1.6,4.8,2.9,7.1c1.4,2.4,3.4,4.6,4.7,7c0.3,0.5,1.2,1.3,1.6,1.9c0.4,0.5,0.8,1,1.3,1.4
						c0.3,0.3,1.2,1,1.9,1.6l0.1,1.6c0,0.3,0,0.4,0.1,0.6l0,0.5c0.1,0.7,0.1,1.3,0,2c-0.2,2.4,0.6,4.7,1.5,6.8
						c1,2.4,2.7,4.4,4.9,5.7c1.5,0.9,3.1,1.4,4.6,1.3c1.8,1,4.8,0.7,7.2,0.6c0.8,0,1.8-0.1,2.8-0.2c0.3,0,0.4,0,0.5-0.1
						c0.1,0,0.3-0.1,0.4-0.1c0.3-0.1,0.5-0.1,0.6-0.2c0,0,0,0,0,0c0.3-0.2,0.5-0.3,0.7-0.5c0.1-0.1-0.1-0.2-0.1-0.2l-0.2-0.2
						c-0.1-0.1-0.3-0.2-0.3-0.4c-0.1-0.1-0.2-0.3-0.3-0.4l-0.3-0.6L177,349l-0.1-0.3l-0.2-0.5c-0.1-0.4-0.3-0.7-0.4-1.1
						c-0.7-2.1-0.9-4.3-0.9-6.4c0-2.1,0.1-4.2,0.1-6.2c0-1.7,0.5-4,0.9-5.9c0.4-1.8,0.9-3.5,1.3-5.3c0.7-3.4,1.4-6.7,2.6-10.1
						c0.5-1.5,1.4-3,2.6-4.4c1.1-1.4,2.5-2.7,3.7-3.9c0.3-0.3,1.3-0.9,2-1.1c1.8-0.6,3.5-0.9,5.2-1c0.4,0,0.9-0.1,1.3-0.1
						c0.3,0,0.7,0,1.1,0c0.3,0,0.5-0.1,0.6-0.1l0,0c0,0,0,0,0,0l0-0.1l0-0.2c0-0.1,0-0.2-0.1-0.3c0-0.1,0-0.2,0-0.3c0-0.3,0-0.7,0-1
						c-0.1-1.7-0.1-3.4-0.1-5c-0.1-3.6-0.3-7.2,0-10.7c0.2-2.2-0.6-3.4,0.3-6c0.2-0.7,0.4-1.8,0.6-2.9c0.2-1.2,0.5-2.5,0.8-3.6
						c0.7-2.3,1.6-4.8,3.3-6.6c1.9-2.2,4.6-3.8,7.2-4.6c0.7-0.2,1.3-0.4,2-0.5l1-0.2c0.3-0.1,0.7-0.1,1.1-0.1c0.7-0.1,1.5-0.1,2.2,0
						c0.4,0,0.8,0.1,1.1,0.2c0.1,0,0.2,0,0.4,0.1l0.2,0.1l0.5,0.1l-2.4,2.2c-0.6-3.2-0.9-6.2-0.9-9.4c0-3.1,0.1-6.3,0.9-9.5
						c0.6-2.4,1.3-4.9,2.6-7.2c1.3-2.3,3.4-4.3,5.7-5.2c1.5-1.2,3.5-1.9,5.5-2.2c2-0.3,4-0.3,5.9,0c2.4,0.3,4.4,1.5,5.9,2.9l0.4,0.4
						l0.1,0.1c0.1,0.1,0.1,0.1,0.2,0.2c0.1,0.1,0.1,0.2,0.2,0.3l0.1,0.2c0,0,0.1,0.2,0.1,0c0.1-0.2,0.1-0.4,0.3-0.6
						c0.1-0.2,0,0,0.6-0.8l0.8-0.8c0.3-0.2,0.6-0.5,0.8-0.7c1.2-0.8,2.4-1.5,3.7-2c0.6-0.3,1.3-0.4,2-0.6c0.7-0.2,1.3-0.2,2-0.4
						c0.7-0.1,1.4-0.1,2.2-0.1c0.7,0.1,1.5,0.1,2.2,0.3c1.4,0.4,2.8,1,4,1.9c0.6,0.4,1.1,0.9,1.6,1.4c0.5,0.5,1,1,1.4,1.5
						c1.7,2.1,2.9,4.3,4,6.5c3.6,7.5,6,15.1,8.5,22.7c0.3,1,0.7,2,1,3.1c0.3,1,0.7,2.1,0.9,3.3c0.4,1.7,1.7,4.7,3.1,6.6
						c0.3,0.4,0.7,1.2,0.8,1.6c1.1,4.5,3.7,8.3,5.1,12.9c1.3,4.4,1.9,9.3,0.7,14.1c-0.6,2.4-1.7,4.7-3.1,6.6c-1.4,2-3.1,3.6-5,5.1
						c-0.6,0.4-1.2,0.9-1.9,1.2c-0.2,0.1-0.3,0.1-0.4,0.2c-0.1,0.1-0.1,0.2,0.1,0.3c-0.1,0-0.2,0-0.3,0c-0.3,0.1,0.3,0.4,0.6,0.4
						c0,0,0.1,0,0.1,0c0,0,0,0,0.1,0l0.3,0.2c0.4,0.3,0.8,0.5,1.2,0.7c0.8,0.4,1.4,0.6,1.9,0.8c1.2,0.5,2.5-0.3,3.7-1.5
						c1.3-1.3,2.3-3.1,3.2-4.9c0.5-1,1-2,1.5-3.1l0.2-0.4l0.3-0.5l0.3-0.5c0.1-0.2,0.3-0.3,0.4-0.5c0.3-0.3,0.6-0.6,0.9-0.8
						c0.3-0.3,0.6-0.5,1-0.6c1.3-0.7,2.5-1.1,3.6-1.5c1.1-0.4,2-0.7,2.9-1.2c0.9-0.5,1.7-1,2.4-1.7c0.3-0.4,0.7-0.7,1-1.1l0.5-0.6
						c0.1-0.1,0.1-0.1,0.1-0.2c0,0,0-0.1,0.1-0.1c0-0.1,0.1-0.3,0.1-0.5l0.1-0.7c0-0.5,0.1-1,0-1.5c0-1.1-0.2-2.2-0.3-3.3
						c-0.2-1.7-0.4-3.5-0.6-5.3c-0.3-1.8-1-3.6-0.9-5.4c0-0.7-0.5-2.4-0.8-3.7c-0.5-2.2-1.1-4.6-1.6-6.9l-0.1-0.6l0-0.1l-0.1-0.1
						l-0.2-0.2l-0.1-0.1l-0.2-0.2l-0.3-0.3c-0.2-0.2-0.4-0.4-0.6-0.6c-0.8-0.9-1.6-1.8-2.2-2.6c-1.4-1.7-2.3-3.8-3-5.9
						c-0.7-2.1-1.2-4.1-1.8-6.1c-0.3-1.1-0.3-3.3-0.1-4.9c0.1-1.7,0.5-3.4,1-5l0.2-0.6l0.1-0.2c0.1-0.2,0-0.3,0-0.4l-0.4-2.3
						c-0.6-3.1-1.3-6.1-2.2-9c0-2.3-0.5-4.9-0.9-7.4c-0.3-1.8-0.4-4-1.1-5.4c-0.1-0.2-0.2-0.8-0.2-1.2c-0.2-2.2-0.1-4.3-0.5-6.8
						c-0.3-2.1-0.8-3.7-1-6c-0.3-4.1-0.4-8.3-0.3-12.4c0-1.1,0-2,0.1-3.2l0.1-0.9l0.1-0.8c0.1-0.6,0.2-1.1,0.3-1.6
						c0.5-2.1,1.2-4.2,1.9-6.2c1.2-2,2.3-4.4,3.5-6.7c2.1-4,3.9-7.9,6.5-11.8c2.5-3.6,5.3-7.4,7.5-10.9c3.8-6.1,8.4-11.6,12.8-17.2
						c1.1-1.4,2.3-3.2,3.7-4.1c0.3-0.2,1.6-1.8,1.8-2.3c0.5-1.1,1.5-2,2.1-3c1.8-2.7,4.8-4.2,6.1-7.3l6.9-8c2.3-2.7,4.6-5.3,7-7.9
						c1.1-1.2,2.1-2.5,3.5-3.5c0.9-0.7,2.8-2.7,3.4-3.7c1.4-2.3,3.4-4.2,5.3-6.2c5.5-6,11-12,16.7-17.9c2.5-2.6,5.1-5,7.6-7.5
						c2.6-2.5,4.9-5.5,7.7-7.7c0.2-0.2,0.4-0.4,0.6-0.7c0.9-1.1,1.8-2.2,2.8-3.2c1.3-1.3,3.3-2.7,3.9-3.6c1.2-1.7,2.4-2.4,3.6-3.5
						c3.3-3.1,5.9-4.4,6.3-3.2c0.1,0.3-0.1,0.8-0.4,1.4c-2,3.7-2,3.7-6.6,8.4c-5.7,5.9-11.8,11.2-17.3,17.3
						c-4.2,3.4-7.8,7.9-11.7,11.8c-4,4.1-8.4,8-11.9,12.4c-3.5,4.4-7.2,8.4-10.9,12.5c-2.8,3.1-5.8,6.1-8.6,9.3
						c-2.9,3.3-5.7,6.8-8.6,10c-1.8,2-3.9,3.9-5.3,6c-3.1,4.6-7,8.7-10.1,13.2c-4.3,6.2-9,12.1-12.9,18.4c-2.1,3.4-4.1,6.8-6.1,10.2
						c-0.9,1.6-1.7,3.1-2.8,4.7c-1.1,1.6-2.4,4.3-2.9,6.6c-0.1,0.5-0.3,1.1-0.4,1.7c-0.2,0.6-0.3,1.2-0.5,1.6
						c-0.7,1.6-1.1,3.3-1.1,5c0,1.9,0.1,3.8,0.1,5.7c0.1,2.4-0.3,5.1,0.1,6.5c0.5,2.4,0.6,4.6,0.8,6.8c0.2,1.6,0.6,3.4,0.3,4.8
						c-0.1,0.4,0.1,2,0.3,2.4c1,2.6,1.1,5.7,1.6,8.5c0.6,3.4,1.2,6.9,1.9,10.3l1,5.2l0.3,1.3l0.2,0.9l0.1,0.5c0,0.1,0.1,0.2,0,0.3
						l-0.1,0.2l-0.4,1c-0.1,0.2-0.1,0.2-0.1,0.3l-0.1,0.3c-0.1,0.4-0.2,0.8-0.3,1.1c-0.7,2.5-0.6,5.2-0.1,7.8
						c0.5,2.6,1.3,5.2,2.3,7.6c1,1.3,1.9,2.7,3,3.9c0.3,0.3,0.5,0.6,0.8,0.9c0.2,0.2,0.2,0.3,0.5,0.5l1,0.9c0.1,0.1,0.1,0.2,0.1,0.3
						l0.1,0.3l0.2,0.7l0.2,0.9c0.1,0.5,0.2,0.9,0.3,1.4c0.7,2.8,1.2,5.7,1.8,8.6c0.6,2.9,1.3,5.6,1.6,8.7c0.2,1.9,0.5,4,0.7,6.3
						c0.1,1.2,0.1,2.3-0.2,3.8c-0.2,0.7-0.7,1.7-1,2l-0.5,0.7c-0.2,0.2-0.4,0.4-0.6,0.7c-1.7,1.9-4.4,3.6-6.6,3.8
						c-0.3,0-1.3,0.4-1.6,0.6c-0.6,0.4-1.2,0.7-1.8,1.1c-0.5,0.4-0.8,0.7-1.1,1.1c-0.1,0.1-0.1,0.2-0.2,0.3
						c-0.1,0.1-0.2,0.3-0.3,0.5c-0.2,0.4-0.4,0.7-0.5,1c-0.4,0.7-0.7,1.3-1.1,1.9c-1.2,1.9-2.4,3.9-4,5.6c-0.8,0.9-1.7,1.7-2.9,2.3
						c-1.1,0.6-2.5,0.9-3.9,0.9c-2.2-0.1-4-1.1-5.5-2.2c-0.2-0.1-0.4-0.3-0.7-0.5l-0.7-0.6c-0.5-0.4-0.9-0.9-1.3-1.3
						c-0.2-0.2-0.5-0.5-0.6-0.7l-0.1-0.6c-0.1-0.4-0.2-0.8-0.2-1.2l0.2-0.3c0.3-0.3,0.6-0.7,1-1.3c0.7-0.3,1.4-0.6,2.1-0.9
						c0.8-0.4,1-0.5,1.4-0.8c0.7-0.4,1.4-1,2.2-1.6c1.6-1.1,2.9-3.3,3.8-5.3c0.9-2,1.4-4.2,1.5-6.4c0.1-2.4-0.3-4.9-0.9-7.4
						c-0.6-2.5-1.5-4.9-2.4-7.3c-1-2.6-2.3-5.2-3.4-7.8c-1.1-2.5-1.9-5-2.9-7.6c-0.7-1.8-1.4-3.6-2-5.4c-0.6-1.8-1.2-3.5-1.8-5.3
						c-1.2-3.5-2.5-7-3.7-10.6c-1.1-1.8-1.5-3.7-2.3-5.6c-0.7-1.8-1.6-3.9-3-5.2c-0.2-0.2-0.4-0.5-0.6-0.8c-0.2-0.3-0.5-0.6-0.8-0.9
						c-0.3-0.3-0.5-0.6-0.8-0.9c-0.3-0.3-0.5-0.6-0.8-0.9c-0.3-0.2-0.6-0.5-0.9-0.7c-0.3-0.2-0.7-0.3-1.1-0.5
						c-0.6-0.1-1.3-0.4-2.1-0.4c-0.4-0.1-0.8-0.1-1.2-0.1c-0.2,0-0.4,0-0.6,0c-0.2,0-0.4,0.1-0.7,0.1c-0.2,0-0.5,0.1-0.7,0.1
						c-0.2,0.1-0.5,0.1-0.7,0.2c-0.2,0.1-0.5,0.1-0.7,0.2l-0.6,0.2c-0.9,0.3-1.6,0.8-2,1.4c-0.2,0.1-0.5,0.2-0.7,0.3
						c-0.2,0.1-0.4,0.3-0.6,0.5c-0.1,0.1-0.2,0.2-0.3,0.3l-0.1,0.1c-0.1,0.1-0.2,0.2-0.2,0.3c-0.3,0.5-0.5,1-0.7,1.5
						c-1.3,0.5-1.8,1-2.2,1.3c0,0.1-0.2,0-0.4,0c-0.2,0-0.3-0.1-0.5-0.1l-0.7,0l-1,0c-0.4-0.7-0.9-1.3-1.3-1.9
						c-0.2-0.2-0.3-0.4-0.5-0.6l-0.2-0.3c-0.2-0.2-0.3-0.3-0.5-0.5c-0.4-0.3-0.8-0.6-1.2-0.9c-0.4-0.3-0.9-0.6-1.3-0.7
						c-1.9-0.5-4-0.4-6,0.1c-2,0.5-3.8,1.3-5.3,2.8c-0.8,0.7-1.4,1.5-1.9,2.4c-0.5,0.9-1,1.9-1.4,2.9c-0.8,2-1.2,4.3-1.4,6.6
						c-0.1,1.1,0,2.2,0,3.4c0,0.5,0,1.2,0,1.7c-0.1,2.3-0.1,3.6,0,4.7c0.1,1.1,0.3,2.3,0.7,4.1l0.6,2.3l-3.6,0.6c0,0-0.1,0-0.3,0
						c-0.1,0-0.2,0-0.3-0.1c-0.1,0,0,0-0.1,0c-0.8-0.1-1.8-0.1-2.9,0.1c-1.4,0.4-2.8,0.7-4,1.4c-0.6,0.3-1.1,0.7-1.6,1.1
						c-0.3,0.2-0.4,0.5-0.7,0.7c-0.2,0.3-0.4,0.5-0.6,0.8c-0.2,0.3-0.3,0.6-0.5,0.9c-0.2,0.3-0.3,0.6-0.5,1c-0.4,0.6-0.7,1.3-1,2.1
						c-0.7,1.5-1.2,3.1-1.6,4.8c-0.7,3-1.2,6-1.2,9.5c0,1.5,0,3,0,4.5c0,1.5,0,3,0.1,4.5c0.1,1.5,0.1,3,0.2,4.5l0.2,3.2l0.1,1.9
						l0.1,0.9l0,0.5c0,0.2,0,0.2-0.1,0.3l-1.8-0.4l-0.9-0.2l-0.9-0.1l-0.9-0.1l-0.4,0c-0.2,0-0.3,0-0.4,0l-1,0
						c-1.2,0.1-2.4,0.2-3.6,0.6c-0.9,0.2-2.1,0.7-2.5,1.1c-0.8,0.8-1.3,1.6-1.9,2.4c-0.6,0.7-1.3,1.4-2.3,2.1
						c-0.1,0.1-0.5,0.8-0.5,1c-0.3,2-1.4,4.4-2,6.6c-0.6,2.2-0.9,4.4-1.3,6.7c-0.3,2.3-0.7,4.6-0.9,6.8c-0.2,2.2-0.4,4.4-0.4,6.6
						c0.1,2.1,0.2,4.2,0.9,6c0.1,0.1,0.1,0.3,0.2,0.4l0.1,0.2l0,0.1l0.2,0.2c0.4,0.6,0.8,1.2,1.2,1.8c0.4,0.6,0.7,1.2,1,1.7l0.1,0.2
						c0,0,0,0.1,0,0.1c0,0.1,0,0.1,0,0.2c0,0.1,0,0.2,0,0.3c0,0.1,0,0.3-0.1,0.4c0,0.1,0,0.2-0.1,0.4c-0.2,0.3-0.5,0.4-0.7,0.6
						c-0.4,0.4-0.8,0.8-1.2,1.2c-0.7,0.2-1.5,0.5-2.4,0.6c-0.9,0.2-2.1,0.4-3.2,0.7c-0.9,0.2-1.7,0.3-2.3,0.3
						c-2.2-0.1-4.6-0.2-7-0.5c-2.4-0.3-4.7-1-6.8-2.1c-1.9-1-3.6-2.5-4.9-4.2c-1.3-1.7-2.2-3.6-2.6-5.4c-0.5-1.8-0.8-3.5-0.9-5.2
						c-0.1-0.9-0.1-1.7-0.2-2.6l0-1.3l0-0.3l-1.1-1.1c-0.6-0.6-1.1-1.2-1.7-1.8c-1.1-1.2-2.2-2.5-3.2-3.8c-2-2.8-3.9-5.7-5.3-9
						c-0.4-0.8-0.6-1.7-0.9-2.6l-0.3-1.4c-0.1-0.5-0.2-0.9-0.2-1.4l-0.1-1.5l0-1.3c0-0.9,0-1.9,0.3-2.9c0.1-0.2,0.1-0.5,0.2-0.7
						l0.1-0.3l0-0.1l0.1-0.3c-0.1-0.1-0.1-0.2-0.2-0.3c-0.3-0.3-0.6-0.7-0.8-1c-0.6-0.7-1.3-1.4-2-2c-0.4-0.4-1.1-1.4-1.6-2.2
						c-1.1-1.8-2-3.8-2.9-5.7c-0.9-2-1.9-4-2.2-6.7c-0.1-1.1,0-2.2,0.4-3.3c0.1-0.4,0.3-0.9,0.4-1.3c0.1-0.4,0.3-0.9,0.4-1.3
						c0.3-1.3,1.6-3.3,2.9-4.9c0.5-0.6,1.1-1.2,1.6-1.9c0.1-0.1,0.2-0.1,0.4-0.2c0.1-0.1,0.3-0.2,0.4-0.3c0-0.1-0.1-0.2-0.1-0.3
						l-0.2-0.4c-0.3-0.5-0.6-1.1-0.9-1.6c-0.7-1.3-1.3-2.6-2-4c-1-2.1-1.7-4.3-2.1-6.5c-0.5-2.3-0.7-4.6-0.7-6.9c0-1,0-1.9,0.2-2.9
						c0-0.5,0.1-1,0.1-1.5c0.1-0.5,0.2-1,0.2-1.6c0.1-1,0.5-2.2,1-3.5c0.6-1.2,1.3-2.5,2.1-3.3c2.2-2.8,4.4-5.2,6.7-7.8
						c0.8-0.9,1.9-1.8,2.8-2.6c3-2.5,6-4.8,8.9-7.3c2.8-2.5,5.5-5.1,8.1-7.9c1.2-1.4,2.4-2.9,3.7-3.8c0.4-1.3,1.8-2.7,2.8-3.9
						c1.6-1.9,3.4-3.6,5-5.5c1.9-2.2,3.7-4.5,5.4-6.9c1.5-2.3,4-4.5,5.5-7c0.3-0.5,1.2-1.2,1.7-1.8c2-2.6,4.7-5.1,6.1-8
						c0.1-0.2,0.6-0.8,0.8-1c3-2.5,5-5.8,7.2-8.9c2.5-3.3,5.3-5.9,7.8-9.1c2.9-3.6,5.7-7.5,8.7-10.7c5.1-5.6,9.5-11.7,14.2-17.6
						c4.8-6,9.5-12.1,14.1-18.3c2-2.7,3.8-5.5,5.8-8.2c2.2-3,4.5-6,6.7-9c2.1-2.8,4.2-5.7,6.2-8.5c1-1.3,1.9-2.9,3.1-3.8
						c0.2-0.2,0.9-1,1-1.4c1.4-2.7,3.1-5.1,5.2-7.3c0.6-0.6,1.2-1.8,1.9-2.6c1.8-2.3,2.9-4.5,4.3-6.8c1.3-2.1,3.2-4.1,3.9-6.3
						c0.1-0.3,0.8-1.3,1-1.6c3.7-3.5,5.2-9.2,8.7-12.7c0.5-2,2.2-3.3,2.9-4.7c1.1-2,2.1-3.9,3.3-5.9c1.1-1.9,2.3-3.7,3.4-5.6
						c1.9-3.5,4.2-6.8,5.7-10.6c0.5-1.2,1.6-3.5,2.8-4.7c0.2-0.2,0.6-1,0.8-1.5c1.9-3.9,4.5-8.5,5.9-9.1c0.8-0.4,1.3,0,1.6,0.6
						c0.1,0.3-0.5,2.2-0.9,3.3c-0.3,1-0.6,2.1-0.9,3.1c-0.3,1-0.7,2.1-1.1,3.1c-0.6,1.3-1.2,2.5-1.9,3.9
						C311.1,20,310.3,21.4,309.4,23z"/>
				</g>
			</g>
		</g>
	</g>
</g>
<g id="Layer_3">
	<g>
		<g>
			<g>
				<g>
					<path class="st0" d="M290.5,207.4c0.8,0.3,0.9,1.4,1.6,1.9c0.7,0.5,1.3,1.1,2,1.7c0.3,0.3,0.7,0.5,1.2,0.6
						c0.5,0.1,0.5,0.8,1.2,0.6c0.1,0,0.1,0.1,0.1,0.1c0.8,0.7,1.8,1.2,2.3,2.1c0.6,1.1,1.7,1.7,2.4,2.6c1.9,0.7,3,2.4,4.4,3.7
						c0.5,0.4,1,0.7,1.1,1.5c0.1,0.6,1.1,0.6,1,1.5c0,0.1,0.2,0,0.3,0.1c0.2,0.1,0.5,0.1,0.5,0.3c0.5,1,0.5,1,1.4,1.4
						c0.1,0,0,0.3,0.1,0.4c0.3,0.4,0.7,0.8,1.1,1.1c0.4,0.3,0.4,0.9,1.2,0.7c0.2,0,0.2,0.2,0.3,0.3c0.3,0.3,0.6,0.7,1,1
						c0.4,0.3,0.6,0.9,1.4,0.9c0.3,0,0.1,0.7,0.3,0.7c0.4,0,0.6,0.1,0.7,0.4c0.1,0.2,0.1,0.6,0.3,0.7c0.1,0.2,0.5,0.1,0.7,0.3
						c0.4,0.4,0.6,0.9,1.2,1.1c0.6,0.2,0.9,0.6,1.3,1c0.4,0.4,0.7,0.8,1.1,1.2c0.3,0.3,0.4,0.7,0.5,1.1c0.2,0.4,0.8,0.4,0.5,1.1
						c0,0,0,0,0.1,0.1c0.4,0.7,0.8,1.4,1.4,2.1l1.3,1.7l0.7,0.9c0.2,0.3,0.4,0.7,0.7,1.1c0.2,0.4,0.6,0.9,0.3,1.5
						c-0.1,0.1,0.2,0.3,0.1,0.4c-0.2,0.5,0.9,0.7,0.5,1.2c-0.3,0.4-0.1,0.8-0.2,1.2c0,0.4,0,0.9-0.1,1.3c-0.1,0.3,0,0.6,0.3,0.9
						c-0.6,0.2-0.4,0.7-0.7,1c-0.2,0.2-0.5,0.5-0.3,0.7c0.3,0.5,0,0.8-0.1,1.2c-0.1,0.6-0.5,1-0.3,1.7c0.1,0.3-0.1,0.6-0.3,0.8
						c-0.2,0.2-0.5,0.3-0.6,0.6c-0.2,0.4-0.4,0.8-0.4,1.4c0.1,0.5-0.7,0.7-0.3,1.3c0,0.1,0,0.2-0.1,0.2c-0.5,0.3-0.8,0.5-0.7,1.1
						c0,0.5-0.4,0.8-0.7,1.2c-0.3,0.4-0.5,0.9-0.9,1.2c-0.3,0.2,0.3,0.8-0.3,0.8c-0.4,0-0.5,0.4-0.7,0.6c-0.2,0.2-0.4,0.6-0.7,0.8
						c-0.2,0.1-0.5,0.3-0.8,0.4c-0.3,0-0.4,0.3-0.6,0.8c-0.2,0.5-0.3,1.1-0.6,1.6c-0.3,0.6,0.1,1.3-0.9,1.7c0.4,0.6-0.2,1,0,1.6
						c0.1,0.4,0,0.6-0.1,0.9c-0.3,0.9-0.8,1.8-1.4,2.6c-0.6,0.9-1.6,1.7-2.7,2.3c-0.4,0.2-0.8,0.3-1.2,0.5l-1.1,0.3
						c-0.4,0.1-0.7,0.1-1,0.2c-0.3,0.1-0.7,0.1-1,0.1c-0.4,0-0.8,0-1.1-0.4c-0.2-0.3-0.7-0.4-1.2,0c-0.1,0.1-0.3,0.1-0.3,0
						c-0.5-1-1.4-0.3-2.1-0.6c-0.7-0.2-1.3-0.6-1.8-1c-0.5-0.4-1.1-0.8-1.6-1.1c-0.2-0.1-0.4-0.5-0.9-0.2c0.1-0.5-0.2-0.4-0.5-0.4
						c-0.3,0-0.7-0.3-0.8-0.6c0-0.5-0.4-0.6-0.6-0.8c-0.2-0.3-0.5-0.5-0.7-0.7c-0.2-0.3-0.5-0.5-0.7-0.8l-0.6-0.9l-0.6-0.9
						c-0.2-0.3-0.3-0.6-0.5-0.9c-0.1-0.2-0.1-0.6-0.2-0.8c-0.1-0.3-0.5-0.4-0.2-0.8c0.1-0.2-0.1-0.3-0.2-0.5c-0.3-0.6-0.4-1.3-1-1.7
						c-0.6-0.4-0.4-1.1-1.2-1.4c-0.2-0.1-0.2-0.4-0.3-0.6c-0.4-0.8-0.1-1.8-1.1-2.5c0.3-0.4,0.2-0.8,0.1-1.1
						c-0.1-0.3,0.1-0.6-0.4-0.7c-0.1,0-0.1-0.1-0.1-0.2c0.1-0.3,0.3-0.7,0.2-1c-0.1-0.3-0.5-0.5-0.5-0.8c0-0.6,0.1-1.2,0.1-1.8
						c0-0.3,0.1-0.6,0.1-0.9c0-0.3,0-0.6,0-0.9c0.4-0.3,0.4-0.7,0.4-1.1c0-0.3-0.1-0.6-0.2-1c-0.1-0.3-0.1-0.7,0-1
						c0.2-0.6,0.5-1.3,0.3-1.9c-0.2-1.1,0.4-2.1,0.7-3.1c0.1-0.3,0-0.6,0.6-0.6c0.1,0,0.2-0.3,0.1-0.4c-0.2-0.3,0-0.4,0-0.6
						c-0.1-0.6,1.3-0.4,0.7-1.2c0.3-0.4,0.5-0.9,0.8-1.3c0.3-0.4,0.6-0.9,0.9-1.3c0.1-0.2,0.2-0.5,0.6-0.4c0.3,0,0.6-0.3,0.5-0.5
						c-0.1-0.6,0.3-0.8,0.5-1.1c0.4-0.4,0.8-0.9,1.2-1.3c0.4-0.4,0.9-0.8,1.3-1.2c0.4-0.3,0.9-0.5,1.4-0.7c0.5-0.2,0.7-0.8,1.4-0.7
						c0,0,0.1,0,0.1-0.1c0.1-0.2,0.2-0.4,0.4-0.5c0.2-0.1,0.8,0.1,0.8-0.2c0.1-0.5,0.4-0.2,0.7-0.3c0.6-0.2,1.4,0.4,1.8,1.5
						c0.1,0.2,0.2,0.5,0.2,0.7c0.1,1.3,0.1,1.3-0.5,1.7c-0.8,0.6-2,0.6-2.7,1.4c-0.9-0.1-1.2,0.7-1.8,1.1c-0.6,0.4-1.5,0.6-1.7,1.3
						c-0.2,0.8-0.7,1.2-1.1,1.8c-0.3,0.4-0.8,0.7-1.2,1.1c-0.3,0.4-0.4,1-0.9,1.4c-0.3,0.2-0.8,0.4-0.7,0.8c0.2,0.9-0.5,1.3-0.4,2.1
						c0.1,0.5,0,1-0.2,1.4c-0.1,0.4-0.1,0.9-0.1,1.4c0.1,0.5,0.1,1,0.1,1.5c0,0.2,0,0.4-0.3,0.7c-0.3,0.2-0.3,0.6,0.1,0.9
						c0.1,0.1,0.2,0.3,0.1,0.4c-0.5,0.5-0.2,0.9-0.2,1.4c0,0.3-0.4,0.7-0.2,0.8c0.4,0.3,0.2,0.5,0.3,0.8c0.1,0.2,0.3,0.4-0.1,0.7
						c-0.1,0.1-0.1,0.3,0,0.3c0.7,0.2,0.4,0.7,0.5,1c0.2,0.9,0.5,1.7,0.7,2.6c0.2,0.7,1.1,1.1,1.1,1.9c0.7,0.2,0.7,0.7,0.9,1.1
						c0.2,0.3,0.1,0.7,0.2,1.1c0.1,0.4,0.4,0.6,0.3,1c0,0.6,0.5,0.9,0.8,1.3c0.2,0.2,0.6,0.3,0.3,0.8c0,0.1,0.1,0.2,0.1,0.2
						c0.7-0.1,0.9,0.3,0.9,0.7c0.1,0.6,0.6,0.9,1,1.2c0.3,0.3,0.7,0.5,1,0.8c0.2,0.2,0.6,0.3,0.7,0.6c0.1,0.3,0.6,0.2,0.8,0.3
						c0.3,0.1,0.5,0.3,0.8,0.4c0.3,0.1,0.6,0.2,0.9,0.4c0.3,0.1,0.6,0.2,0.9,0.3c0.3,0.1,0.7,0.2,1,0.3c0.3,0.1,0.6,0.4,0.9,0.5
						c0.9,0.2,1.8-0.4,2.5-0.4c0.1-0.4,0.3-0.2,0.5-0.2c0.2,0,0.5,0.1,0.4-0.4c0-0.1,0.1-0.1,0.1-0.2c0.1-0.2,0.4,0.1,0.4-0.3
						c-0.1-0.2,0.2-0.3,0.3-0.5c0.1-0.2,0.5-0.3,0.1-0.7c0.5,0.1,0.4-0.2,0.4-0.4c-0.1-0.2-0.2-0.5,0.1-0.6c0.2-0.1,0.3-0.2,0.4-0.3
						c0.1-0.1,0.2-0.1,0.2-0.2c-0.3-1.3,0.6-2.4,0.8-3.8c0-0.2-0.1-0.4-0.1-0.6c0-0.1,0-0.2,0.1-0.3c0.6-0.7,0.5-0.7,0.7-1.6
						c0.1-0.3,0.3-0.5,0.4-0.8c0.2-0.4,0.6-0.7,0.9-1c0.1-0.1,0.1-0.2,0.1-0.4c0-0.3,0.2-0.3,0.4-0.4c0.2-0.1,0.5-0.1,0.8-0.2
						c0.4-0.1,0.9-0.3,1.1-0.7c0.6-0.9,1.2-1.9,1.8-2.8c0.1-0.1,0.3-0.2,0.2-0.4c-0.4-0.6-0.6-1,0.5-0.8c0,0,0.1-0.1,0.1-0.1
						c-0.4-0.5,0-0.7,0.2-1c0.6-1,0.4-2.3,0.9-3.3c0.1-0.2,0-0.4,0.2-0.5c0.5-0.1-0.1-0.4,0-0.5c0.2-0.1,0-0.4,0.2-0.5
						c0.4-0.2,0.5-0.4,0.6-0.6c0-0.2,0-0.5-0.1-0.7c-0.1-0.4-0.4-0.8-0.2-1.1c0.2-0.3,0.2-0.6,0.2-0.9c0-0.1,0-0.3-0.1-0.4
						c-0.1-0.1-0.1-0.3-0.1-0.4c-0.1-0.5-0.6-1.1-1.1-1.8c-0.2-0.3-0.2-0.7-0.9-0.6c-0.1,0-0.2-0.1-0.2-0.3
						c-0.1-0.3-0.1-0.6-0.2-0.8c-0.2-0.2-0.5-0.3-0.8-0.4c-0.2-0.1-0.3-0.3-0.6-0.3c-0.3,0-0.3-0.3-0.3-0.7c0.1-0.8,0.2-1.6-0.3-2
						c-0.5-0.4-0.8-0.9-1.2-1.3c-0.2-0.2-0.3-0.4-0.7-0.4c-0.3,0-0.5-0.4-0.6-0.7c-0.1-0.5-0.3-0.9-0.9-1c-0.2,0-0.3-0.2-0.4-0.3
						l-2.1-2.2c-0.2-0.2-0.4-0.3-0.3-0.7c-0.5,0.2-0.5-0.1-0.7-0.2c-0.2-0.3-0.3-0.7-0.5-0.9c-0.2-0.3-0.5-0.6-1-0.6
						c-0.5-0.1-0.4-0.7-1-0.7c-0.1,0,0-0.3-0.1-0.4c-0.4-0.2-0.4-0.9-1.2-0.7c-0.1,0-0.1-0.1-0.1-0.1c0.1-0.9-0.6-0.8-1.1-1.1
						c-0.5-0.2-0.5-1-0.9-1.4c-0.5-0.4-1.1-0.7-1.3-1.3c-0.4-1-1.3-1.6-2-2.3c-0.7-0.7-1.5-1.4-2.3-2.1c-0.3-0.3-0.8-0.4-1.2-0.7
						c-0.4-0.3-0.8-0.7-1.1-1c-0.3-0.3-0.7-0.6-1-1c-0.2-0.2-0.5-0.2-0.3-0.6c0-0.1-0.1-0.2-0.1-0.2c-0.6,0.1-0.9-0.2-0.9-0.8
						c0-0.2-0.2-0.2-0.3-0.3c-0.2-0.4-0.7-0.3-1-0.4c-0.3-0.1-0.3-0.7-1-0.4c-0.1,0-0.2-0.1-0.2-0.2c0.2-1.3-1.5-0.4-1.4-1.6
						c-0.6,0.3-0.3-0.4-0.6-0.5c-0.3-0.1-0.6-0.2-0.9-0.4c-0.2-0.2-0.4-0.4-0.7-0.6c-0.5-0.3-0.7-0.8-1.4-0.8
						c-0.2,0-0.6-0.1-0.4-0.6c0-0.1-0.1-0.2-0.1-0.2c-0.6-0.2-0.8-1.1-0.3-1.9c0.3-0.5,0.7-1,1.1-1.3c0.2-0.2,0.5-0.2,0.8-0.2
						c0.4-0.1,0.9-0.3,1.3-0.2C289.9,206.7,290.1,207.1,290.5,207.4z"/>
				</g>
			</g>
		</g>
	</g>
	<g>
		<g>
			<g>
				<g>
					<path class="st0" d="M176.4,326.4c-0.2-0.7,0.7-1.3,0.8-2.1c0-0.8,0.2-1.6,0.4-2.3c0.1-0.4,0.1-0.8-0.1-1.2
						c-0.1-0.4,0.5-0.7-0.1-1.2c0,0,0-0.1,0-0.2c0.2-1,0.2-2,0.9-2.9c0.7-1,0.8-2.1,1.5-3.1c0.1-2,1.5-3.6,2.7-5.2
						c0.4-0.5,0.7-1.1,1.5-1.2c0.7-0.1,0.7-1.1,1.6-0.9c0.1,0,0.1-0.2,0.1-0.3c0.1-0.2,0.2-0.5,0.4-0.5c1.2-0.3,1.2-0.3,1.9-1.1
						c0.1-0.1,0.3,0.1,0.5,0.1c0.5-0.2,1-0.3,1.5-0.6c0.4-0.2,1,0,1.3-0.7c0.1-0.2,0.3-0.1,0.4-0.1c0.5-0.1,1-0.1,1.5-0.3
						c0.6-0.1,1.1,0.1,1.6-0.5c0.2-0.2,0.6,0.4,0.7,0.2c0.3-0.3,0.5-0.3,0.8-0.3c0.2,0.1,0.5,0.3,0.7,0.3c0.2,0,0.4-0.3,0.7-0.3
						c0.6,0,1.1,0.4,1.7,0.1c0.6-0.2,1.2,0,1.7,0.1c0.6,0.1,1.1,0.4,1.7,0.6c0.5,0.2,0.7,0.6,1.1,0.9c0.3,0.4,1,0.3,0.9,1
						c0,0,0.1,0,0.1,0.1c0.3,0.3,0.6,0.7,0.9,1c0.3,0.3,0.5,0.7,0.8,1.1c0.9,1.2,1.7,2.5,2.2,3.8c0.1,0.4,0.5,0.7,0.1,1.2
						c-0.1,0.1,0.1,0.2,0.1,0.3c-0.2,0.4,0.9,0.5,0.5,0.9c-0.3,0.4,0,0.7,0,1c0,0.4,0.1,0.7,0.2,1.1c0,0.3,0.1,0.5,0.5,0.6
						c-0.6,0.4-0.1,0.7-0.4,1.1c-0.2,0.2-0.3,0.6-0.1,0.7c0.5,0.3,0.3,0.7,0.4,1c0.1,0.5-0.1,1,0.4,1.5c0.2,0.2,0.1,0.5,0,0.8
						c-0.1,0.2-0.3,0.5-0.3,0.7c-0.1,0.4-0.1,0.8,0.2,1.3c0.3,0.4-0.3,0.8,0.3,1.2c0.1,0.1,0,0.2,0,0.2c-0.3,0.4-0.5,0.7-0.2,1.2
						c0.3,0.4,0,0.8-0.1,1.2c-0.1,0.4,0,0.9-0.2,1.3c-0.1,0.3,0.7,0.5,0.1,0.8c-0.3,0.1-0.2,0.5-0.3,0.8c-0.1,0.3,0,0.6-0.2,0.8
						c-0.9,1.2-0.6,2.7-1.1,4c-0.2,0.5,0.2,1.3-0.7,1.6c0.5,0.5-0.1,0.9,0.2,1.4c0.2,0.3,0.1,0.5,0,0.8c-0.3,1.6-0.9,3-1.5,4.5
						c-0.4,1-0.6,2-1.1,3c-0.1,0.3-0.2,0.6-0.7,0.7c-0.3,0.1-0.6,0.4-0.4,0.9c0,0.1,0,0.2-0.1,0.3c-1,0.1-0.6,1-1,1.6
						c-0.4,0.5-0.8,0.9-1.3,1.3c-0.5,0.4-1,0.7-1.4,1.1c-0.2,0.2-0.6,0.2-0.4,0.7c-0.5-0.2-0.4,0-0.5,0.4c-0.1,0.3-0.4,0.6-0.7,0.6
						c-0.5-0.1-0.6,0.1-0.9,0.3c-0.3,0.1-0.5,0.4-0.8,0.5c-0.6,0.3-1.2,0.5-1.8,0.7c-0.6,0.2-1.3,0.3-1.9,0.5
						c-0.3,0-0.5-0.1-0.8-0.1c-0.3-0.1-0.5,0.3-0.8-0.2c-0.1-0.2-0.3,0-0.5,0c-0.6,0.1-1.3-0.2-1.8,0.2c-0.5,0.4-1.1,0-1.7,0.6
						c-0.2,0.2-0.4,0-0.6,0c-0.4,0-0.8-0.1-1.3-0.2c-0.4-0.1-0.8-0.1-1.3,0.1c-0.2-0.5-0.6-0.5-0.9-0.6c-0.3-0.1-0.4-0.4-0.8,0
						c0,0-0.1,0-0.2,0c-0.3-0.2-0.4-0.7-0.8-0.7c-0.3,0-0.7,0.1-1-0.1c-1.1-0.7-1.7-1.9-2.6-2.6c0.1-0.5-0.2-0.8-0.4-1
						c-0.3-0.5-1.1-0.8-1.3-1.4c-0.2-0.6-0.3-1.3-0.8-1.7c-0.8-0.8-0.8-1.9-1-2.8c-0.1-0.2-0.3-0.5,0.2-0.8c0.1-0.1,0-0.3-0.1-0.4
						c-0.3-0.1-0.2-0.3-0.3-0.5c-0.4-0.4,0.9-0.9-0.1-1.3c0-0.5,0-0.9-0.1-1.4c0-0.5,0-0.9,0-1.4c0-0.2-0.1-0.4,0.3-0.6
						c0.2-0.1,0.3-0.5,0.1-0.6c-0.5-0.4-0.2-0.7-0.2-1.1c0-1,0.1-2.1,0.3-3.1c0.1-0.4,0.3-0.9,0.5-1.3c0.2-0.4-0.1-0.9,0.4-1.3
						c0,0,0-0.1,0-0.1c0-0.2-0.2-0.4-0.1-0.6c0.1-0.2,0.5-0.4,0.4-0.6c-0.3-0.3,0.1-0.4,0.2-0.6c0.2-0.5,1.2-0.7,2.3-0.4
						c0.2,0.1,0.5,0.2,0.7,0.3c1.1,0.7,1.1,0.7,1,1.5c-0.1,1-0.9,1.8-0.8,2.8c-0.7,0.5-0.4,1.3-0.6,1.9c-0.2,0.7-0.8,1.3-0.5,2
						c0.3,0.7,0.2,1.3,0.2,2c0,0.5-0.3,1-0.3,1.5c-0.1,0.5,0.2,1,0,1.5c-0.1,0.3-0.5,0.7-0.2,0.9c0.6,0.5,0.3,1.3,0.7,1.8
						c0.6,0.7,0.6,1.5,1.1,2.1c0.3,0.3,0.6,0.6,0.8,0.9c0.1,0.1,0.2,0.3,0.1,0.6c-0.1,0.3,0.1,0.6,0.5,0.5c0.2,0,0.4,0,0.3,0.2
						c-0.1,0.6,0.3,0.7,0.6,0.9c0.2,0.1,0.1,0.7,0.4,0.6c0.4-0.2,0.5,0.1,0.7,0.1c0.2,0,0.4,0,0.3,0.4c0,0.1,0.1,0.2,0.2,0.1
						c0.5-0.5,0.7-0.1,1,0c0.4,0.1,0.7,0.2,1.1,0.2l0.6,0.1l0.6,0.1c0.3,0,0.6-0.1,0.9-0.2c0.2,0,0.3-0.1,0.5-0.1c0.1,0,0.3,0,0.5,0
						c0.4-0.6,0.8-0.4,1.1-0.4c0.3,0,0.6,0.1,0.9,0.2c0.3,0.1,0.6-0.1,1,0.1c0.5,0.2,0.8-0.2,1.3-0.3c0.2,0,0.3-0.5,0.8-0.1
						c0.1,0.1,0.2,0,0.2-0.1c0-0.7,0.4-0.7,0.8-0.6c0.6,0.1,0.9-0.3,1.3-0.5c0.3-0.2,0.6-0.5,0.9-0.7c0.2-0.1,0.4-0.4,0.7-0.5
						c0.3,0,0.3-0.5,0.4-0.7c0.2-0.2,0.4-0.4,0.5-0.6l0.6-0.7c0.2-0.2,0.4-0.5,0.5-0.7c0.2-0.3,0.3-0.6,0.6-0.8
						c0.2-0.2,0.6-0.4,0.7-0.6c0.5-0.7,0.3-1.8,0.9-2.5c-0.3-0.4,0.1-0.5,0.2-0.7c0.2-0.2,0.4-0.4,0.1-0.7c-0.1-0.1,0-0.2,0-0.3
						c0-0.2,0.5-0.3,0.3-0.6c-0.1-0.2,0.2-0.4,0.2-0.7c0-0.2,0.4-0.4-0.1-0.8c0.9-0.2-0.2-0.9,0.3-1.2c0.1-0.1,0.2-0.2,0.3-0.3
						c0.1-0.1,0.2-0.1,0.2-0.2c-0.5-1.3,0.4-2.3,0.4-3.5c0-0.1-0.1-0.3-0.2-0.5c0-0.1,0-0.2,0-0.2c0.4-0.6,0.4-0.6,0.2-1.2
						c0-0.2,0-0.3,0-0.5c0-0.4,0.2-0.8-0.1-1.2c-0.3-0.5,0.4-0.8,0.7-1.2c0.3-0.3,0.6-0.7,0.6-1.1c0.1-1,0.2-2.1,0.3-3.1
						c0-0.1,0.2-0.3,0-0.4c-0.6-0.3-1-0.6,0.1-0.8c0,0,0.1-0.1,0-0.1c-0.6-0.3-0.3-0.6-0.3-0.9c0.1-1.1-0.6-2.1-0.4-3.2
						c0-0.2-0.1-0.4,0.1-0.5c0.4-0.2-0.3-0.3-0.1-0.5c0.1-0.2-0.2-0.4,0-0.5c0.6-0.5,0.3-1,0.1-1.4c-0.3-0.4-0.5-0.7-0.4-1.1
						c0.3-0.8-0.1-1.4-0.3-2.1c-0.2-0.7-0.5-1.3-0.8-1.8c-0.1-0.2-0.1-0.6-0.7-0.5c-0.1,0-0.1-0.1-0.1-0.2c0-0.2,0-0.5-0.1-0.6
						c-0.1-0.1-0.4-0.1-0.6-0.2c-0.1-0.1-0.2-0.2-0.5-0.1c-0.2,0.1-0.2-0.2-0.2-0.5c0.1-0.7,0.1-1.4-0.4-1.6
						c-0.4-0.1-0.8-0.4-1.3-0.5c-0.2,0-0.3-0.2-0.6,0c-0.3,0.2-0.5,0-0.7-0.2c-0.3-0.4-0.6-0.5-1-0.2c-0.1,0.1-0.3,0.1-0.4,0.1
						c-0.8-0.1-1.7-0.1-2.6-0.1c-0.2,0-0.4,0.1-0.6-0.3c-0.1,0.5-0.3,0.4-0.5,0.3c-0.3,0-0.6-0.2-0.8-0.2c-0.3,0-0.6,0.1-0.9,0.5
						c-0.2,0.3-0.7,0-0.8,0.5c0,0.1-0.2-0.1-0.3-0.1c-0.3,0.2-0.8-0.1-0.8,0.7c0,0.1-0.1,0.1-0.1,0.1c-0.7-0.4-0.8,0.2-1,0.6
						c-0.2,0.4-0.9,0.1-1.2,0.4c-0.4,0.3-0.6,0.8-1.1,0.9c-0.9,0.3-1.3,1.1-1.8,1.7c-0.5,0.7-1,1.4-1.3,2.3
						c-0.2,0.3-0.1,0.8-0.2,1.2c-0.1,0.4-0.3,0.8-0.5,1.2c-0.1,0.4-0.3,0.8-0.4,1.2c-0.1,0.2,0.1,0.4-0.4,0.5
						c-0.1,0-0.2,0.1-0.1,0.2c0.3,0.5,0.2,0.8-0.3,1c-0.1,0.1-0.1,0.2-0.2,0.3c-0.2,0.3,0.1,0.7,0.1,1c0,0.3-0.4,0.5,0.1,0.9
						c0.1,0.1,0.1,0.2,0,0.2c-1.2,0.3,0.4,1.4-0.6,1.7c0.6,0.3-0.2,0.5-0.1,0.7c0.1,0.3,0.2,0.6,0.1,0.9c-0.1,0.3-0.1,0.5-0.1,0.8
						c0,0.5-0.4,0.9,0,1.5c0.1,0.2,0.2,0.5-0.3,0.6c-0.1,0-0.1,0.1-0.1,0.2c0.1,0.6-0.6,1.1-1.5,1.1c-0.5,0-1.2-0.1-1.7-0.3
						c-0.3-0.1-0.4-0.3-0.6-0.5c-0.3-0.3-0.7-0.6-0.8-0.9C176.1,327.1,176.3,326.8,176.4,326.4z"/>
				</g>
			</g>
		</g>
	</g>
	<g>
		<g>
			<g>
				<g>
					<path class="st0" d="M196.8,302.2c-0.3-0.9,0.4-1.8,0.2-2.8c-0.2-1-0.1-2-0.1-3c0-0.5-0.1-1-0.4-1.4c-0.2-0.5,0.2-1-0.4-1.4
						c-0.1,0,0-0.1,0-0.2c0-1.2-0.3-2.4,0-3.6c0.4-1.4,0.2-2.7,0.3-4.1c-0.7-2.2,0-4.5,0.2-6.7c0-0.7,0-1.4,0.6-2.1
						c0.5-0.5-0.1-1.4,0.7-1.9c0.1,0-0.1-0.2-0.1-0.3c0-0.2-0.1-0.5,0-0.7c0.7-1.2,0.7-1.2,0.7-2.4c0-0.1,0.3-0.2,0.4-0.3
						c0.3-0.6,0.5-1.1,0.7-1.7c0.2-0.5,0.8-0.9,0.5-1.7c-0.1-0.2,0.2-0.3,0.2-0.5c0.4-0.5,0.8-1,1.1-1.6c0.2-0.3,0.5-0.5,0.7-0.8
						c0.3-0.3,0.5-0.6,0.5-1c0.1-0.4,0.8-0.2,0.9-0.4c0.1-0.4,0.4-0.7,0.7-0.8c0.3-0.1,0.7-0.2,1-0.3c0.3-0.1,0.4-0.5,0.6-0.7
						c0.3-0.2,0.7-0.3,1-0.5c0.3-0.1,0.7-0.2,0.9-0.5c0.6-0.5,1.2-0.7,1.9-0.9c0.7-0.2,1.3-0.3,2-0.5c0.6-0.1,1.1,0.1,1.7,0.2
						c0.5,0.1,1.2-0.3,1.7,0.4c0,0,0.1,0,0.1,0c1.2,0.2,2.2,0.8,3.3,1.3c1.8,1,3.2,2.4,4.1,3.9c0.3,0.4,0.7,0.8,0.5,1.5
						c-0.1,0.1,0.2,0.2,0.2,0.4c-0.1,0.6,1,0.5,0.8,1.1c-0.2,0.5,0.1,0.8,0.3,1.2c0.1,0.4,0.3,0.9,0.4,1.3c0.1,0.3,0.2,0.6,0.6,0.7
						c-0.5,0.5,0.1,0.9-0.1,1.3c-0.1,0.3-0.2,0.7,0.1,0.9c0.6,0.3,0.4,0.8,0.6,1.2c0.2,0.6,0.2,1.3,0.7,1.8c0.2,0.2,0.2,0.6,0.2,0.9
						c0,0.3-0.2,0.6-0.2,0.9c0.1,0.5,0.2,1,0.6,1.5c0.4,0.4-0.1,1,0.6,1.4c0.1,0,0.1,0.2,0.1,0.3c-0.2,0.5-0.3,1,0.2,1.5
						c0.4,0.4,0.2,1,0.3,1.5c0.1,0.5,0.3,1.1,0.2,1.6c-0.1,0.3,0.8,0.4,0.3,0.9c-0.3,0.3,0,0.7,0,1c0,0.3,0.2,0.7,0.1,1
						c-0.4,1.8,0.4,3.4,0.4,5.1c0,0.7,0.6,1.4,0,2.2c0.6,0.4,0.3,1.1,0.7,1.5c0.3,0.3,0.3,0.5,0.4,0.8c0.3,1.8,0.6,3.7,0.9,5.5
						c0.2,1.2,0.6,2.4,0.9,3.6c0.1,0.3,0.2,0.7-0.1,1.1c-0.2,0.3-0.2,0.8,0.3,1.1c0.1,0.1,0.2,0.2,0.1,0.3c-0.7,0.8,0.2,1.4,0.3,2.1
						c0.2,1.3-0.1,2.7,0,4.1c0,0.3-0.2,0.6,0.4,0.8c-0.4,0.3-0.2,0.4,0,0.7c0.2,0.3,0.3,0.7,0.1,1c-0.3,0.4-0.2,0.7-0.2,1
						c0,0.3,0.1,0.7,0.1,1c0,1.5-0.1,2.9-0.2,4.4c0,0.3-0.2,0.6-0.3,0.9c-0.1,0.3,0.2,0.6-0.3,0.9c-0.2,0.1,0,0.4-0.1,0.6
						c0,0.7-0.3,1.5,0,2.2c0.3,0.7-0.2,1.3,0.4,2c0.2,0.2-0.1,0.5-0.1,0.7c0.1,1-0.7,1.9-0.1,3c-0.5,0.3-0.5,0.7-0.6,1.1
						c0,0.3-0.4,0.6,0.1,0.9c0.1,0,0,0.1,0,0.2c-0.2,0.3-0.6,0.5-0.7,1c0,0.4,0.2,0.7,0,1.1c-0.2,0.7-0.6,1.2-1.1,1.8
						c-0.4,0.6-0.8,1.1-1,1.8c-0.5,0.1-0.7,0.5-1,0.9c-0.2,0.3-0.3,0.7-0.5,1c-0.2,0.4-0.3,0.7-0.7,1c-0.6,0.5-1.3,0.9-1.7,1.6
						c-0.4,0.6-0.9,1-1.4,1.3l-1.7,0.9c-0.3,0.1-0.6,0.5-1,0.1c-0.1-0.1-0.4,0.1-0.4,0.3c-0.1,0.4-0.4,0.2-0.5,0.4
						c-0.5,0.5-1.3-0.6-1.6,0.4l-1.8,0.3c-0.6,0.1-1.2,0.1-1.9,0.1c-0.3,0-0.6,0.1-0.9-0.3c-0.2-0.2-0.7-0.3-0.9-0.1
						c-0.5,0.5-1,0.2-1.5,0.1c-0.7-0.1-1.4-0.3-2.1-0.5c-0.7-0.3-1.4-0.5-2-0.9c-0.6-0.3-1-0.8-1.5-1.2c-0.4-0.4-1.2-0.5-1.4-1.3
						c0-0.1-0.1-0.1-0.1-0.1c-0.2-0.1-0.5-0.2-0.7-0.3c-0.2-0.2-0.2-0.8-0.5-0.8c-0.5,0-0.4-0.5-0.5-0.7c-0.4-0.7,0.1-1.7,1.1-2.2
						c0.2-0.1,0.5-0.2,0.7-0.3c1.3-0.3,1.2-0.3,1.8,0.2c0.7,0.7,1.1,1.9,2.2,2.2c0.1,0.5,0.4,0.7,0.8,0.8c0.3,0.2,0.7,0.2,1,0.4
						c0.3,0.2,0.7,0.5,1,0.7c0.3,0.2,0.7,0.3,1.1,0.2c0.4-0.1,0.8-0.1,1.1-0.2c0.4,0,0.7,0.1,1.1,0c0.6-0.1,1.2,0.2,1.8,0.1
						c0.6-0.1,1.2-0.3,1.8-0.3c0.4,0,0.9,0.3,1.2-0.1c0.3-0.4,0.6-0.6,1-0.7c0.4-0.1,0.7-0.3,1-0.6c0.7-0.8,1.6-1.2,2.2-2.1
						c0.3-0.5,0.5-1,0.8-1.4c0.1-0.2,0.3-0.4,0.6-0.5c0.4-0.1,0.6-0.4,0.5-0.9c-0.1-0.2,0-0.4,0.1-0.5c0.7-0.2,0.7-0.8,0.9-1.3
						c0.1-0.3,0.7-0.5,0.6-0.8c-0.2-0.4,0.1-0.7,0.1-1c0-0.2,0-0.5,0.4-0.6c0.1,0,0.2-0.2,0.1-0.3c-0.5-0.5-0.1-0.9,0-1.3
						c0.2-1,0.4-2,0.5-3c0.1-0.8-0.4-1.7-0.1-2.6c-0.5-0.6-0.3-1.1-0.2-1.7c0-0.4,0.3-0.8,0.4-1.3c0.1-0.4,0-0.8,0.3-1.3
						c0.3-0.6,0-1.2,0.1-1.9c0-0.3-0.3-0.7,0.2-1c0.1,0,0.1-0.2,0-0.3c-0.6-0.4-0.5-1-0.3-1.4c0.3-0.7,0.1-1.3,0.1-1.9
						c0-0.5-0.1-1.1-0.1-1.6c0-0.4-0.2-0.7,0.1-1.2c0.2-0.3-0.2-0.7-0.3-1.1c-0.1-0.4-0.1-0.7-0.1-1.1l-0.1-1.2l-0.1-1.2
						c-0.1-0.4-0.2-0.9-0.2-1.3c0-0.4,0.2-0.8,0.2-1.3c-0.1-1.2-0.9-2.2-0.8-3.4c-0.5-0.2-0.2-0.6-0.2-0.9c0-0.3,0.2-0.7-0.3-0.9
						c-0.1-0.1-0.1-0.2-0.2-0.3c-0.1-0.3,0.3-0.6-0.1-0.9c-0.3-0.2-0.1-0.6-0.2-0.9c-0.1-0.3,0.2-0.7-0.4-0.9c0.7-0.7-0.6-1-0.3-1.6
						c0.1-0.2,0.1-0.4,0.2-0.6c0-0.1,0.1-0.2,0.1-0.3c-1-1.3-0.6-2.9-1-4.4c-0.1-0.2-0.2-0.3-0.3-0.5c0-0.1-0.1-0.2-0.1-0.3
						c0.2-0.9,0.2-0.8-0.2-1.6c-0.1-0.2-0.1-0.4-0.1-0.6c-0.2-0.5-0.1-1-0.5-1.5c-0.4-0.5,0.1-1.1,0.3-1.7c0.2-0.5,0.4-1,0.2-1.6
						c-0.3-1.3-0.4-2.7-0.6-4c0-0.2,0.1-0.4-0.1-0.5c-0.7-0.3-1.1-0.5-0.2-1.1c0,0,0-0.2,0-0.2c-0.7-0.2-0.4-0.7-0.5-1.1
						c-0.2-1.4-1.1-2.6-1.2-4c0-0.2-0.2-0.5-0.1-0.7c0.4-0.4-0.4-0.3-0.3-0.6c0.1-0.2-0.2-0.4-0.1-0.6c0.5-0.8,0.1-1.4-0.3-1.8
						c-0.4-0.4-0.7-0.9-0.7-1.4c0.1-1-0.5-1.7-0.8-2.5c-0.4-0.8-0.9-1.5-1.4-2c-0.2-0.2-0.3-0.6-0.9-0.3c-0.1,0.1-0.2-0.1-0.2-0.1
						c-0.1-0.2-0.2-0.5-0.4-0.6c-0.2-0.1-0.5,0.1-0.7,0c-0.2,0-0.3-0.1-0.5,0.2c-0.2,0.2-0.3,0-0.5-0.4c-0.3-0.7-0.8-1.3-1.5-1.1
						c-0.6,0.1-1.2,0.1-1.8,0.3c-0.3,0.1-0.5,0.1-0.7,0.4c-0.2,0.3-0.6,0.3-0.9,0.2c-0.5-0.1-1,0-1.3,0.4c-0.1,0.2-0.2,0.3-0.4,0.3
						c-0.9,0.4-1.7,1-2.5,1.6c-0.2,0.2-0.3,0.4-0.7,0.3c0.2,0.5,0,0.5-0.2,0.6c-0.2,0.2-0.6,0.4-0.8,0.6c-0.3,0.3-0.5,0.6-0.4,1.1
						c0.1,0.5-0.5,0.6-0.3,1.2c0,0.1-0.3,0.1-0.3,0.2c-0.1,0.5-0.7,0.8-0.2,1.4c0,0.1,0,0.1-0.1,0.2c-0.9,0.3-0.5,1-0.4,1.5
						c0.1,0.6-0.7,1-0.8,1.6c-0.1,0.7,0,1.4-0.4,2c-0.6,1-0.5,2.2-0.7,3.3c-0.2,1.1-0.2,2.3-0.2,3.5c0,0.5,0.2,1,0.3,1.5
						c0,0.6,0,1.1,0,1.7c0,0.5,0,1.1,0,1.6c0,0.3,0.2,0.5-0.2,0.7c-0.1,0-0.1,0.2,0,0.3c0.5,0.5,0.5,0.9,0,1.4
						c-0.1,0.1,0,0.3-0.1,0.5c-0.2,0.4,0.2,0.8,0.4,1.2c0.1,0.4-0.3,0.8,0.4,1.1c0.1,0,0.1,0.2,0,0.3c-1.1,0.8,0.8,1.6-0.2,2.4
						c0.6,0.3-0.1,0.6,0,0.8c0.1,0.3,0.3,0.7,0.3,1c0,0.3,0,0.7,0.1,1c0.1,0.6-0.1,1.2,0.4,1.8c0.2,0.2,0.3,0.6-0.2,0.8
						c-0.1,0-0.1,0.2,0,0.3c0.2,0.7-0.3,1.5-1.1,1.7c-0.5,0.1-1.2,0.2-1.7,0.1c-0.3,0-0.5-0.3-0.7-0.5c-0.4-0.3-0.8-0.6-1-0.9
						C196.7,303.2,196.8,302.8,196.8,302.2z"/>
				</g>
			</g>
		</g>
	</g>
	<g>
		<g>
			<g>
				<g>
					<path class="st0" d="M213.9,259.9c-0.4-0.9,0.3-1.9,0.1-2.9c-0.2-1-0.2-2-0.2-3c0-0.5-0.1-1-0.3-1.5c-0.2-0.5,0.3-1-0.3-1.5
						c-0.1,0,0-0.1,0-0.2c0.1-1.2-0.1-2.6,0.4-3.8c0.6-1.4,0.5-2.8,1.1-4.2c-0.1-2.5,1.3-4.7,2.5-6.8c0.4-0.7,0.8-1.4,1.7-1.8
						c0.4-0.1,0.6-0.5,0.8-0.8c0.3-0.3,0.5-0.6,1-0.6c0.1,0,0.1-0.2,0.2-0.3c0.2-0.2,0.3-0.5,0.5-0.6c0.7-0.3,1.1-0.4,1.3-0.5
						c0.3-0.2,0.5-0.4,1-0.8c0.1-0.1,0.4,0.1,0.5,0c0.6-0.3,1.3-0.4,1.8-0.7c0.6-0.2,1.2,0,1.6-0.7c0.1-0.2,0.4-0.1,0.6-0.1l1.8-0.2
						c0.7-0.1,1.4,0.2,2.2-0.3c0.3-0.2,0.7,0.5,0.9,0.3c0.4-0.2,0.7-0.2,1.1-0.1c0.3,0.1,0.6,0.4,0.9,0.5c0.3,0.1,0.7-0.1,1,0
						c0.4,0.1,0.7,0.3,1,0.5c0.3,0.2,0.7,0.3,1,0.4c0.4,0.1,0.8,0.2,1.1,0.4c0.3,0.2,0.6,0.4,0.9,0.6c0.6,0.5,1.1,1,1.7,1.5
						c0.4,0.4,0.6,1,0.7,1.5c0.2,0.5,0.9,0.7,0.6,1.5c0,0,0,0.1,0.1,0.1c0.5,0.9,0.8,1.9,1.1,2.8c0.7,1.6,1.3,3.1,1.8,4.7
						c0.1,0.4,0.5,0.9,0.1,1.4c-0.1,0.1,0.1,0.3,0.1,0.4c-0.2,0.5,0.9,0.6,0.6,1.1c-0.3,0.5,0,0.8,0.1,1.2c0,0.4,0.2,0.9,0.3,1.3
						c0,0.3,0.2,0.6,0.5,0.8c-0.5,0.5,0,0.9-0.2,1.3c-0.1,0.3-0.2,0.7,0,0.9c0.5,0.3,0.4,0.8,0.5,1.2c0.2,0.6,0.1,1.3,0.6,1.8
						c0.2,0.2,0.2,0.6,0.2,0.9c0,0.3-0.2,0.6-0.2,0.9c0,0.5,0.1,1,0.5,1.5c0.3,0.4-0.1,1,0.6,1.4c0.1,0,0.1,0.2,0,0.3
						c-0.2,0.5-0.3,1,0.2,1.5c0.4,0.4,0.2,1,0.3,1.5c0.1,0.5,0.3,1.1,0.2,1.6c-0.1,0.3,0.8,0.4,0.3,0.9c-0.3,0.3,0,0.6,0,1
						c0,0.3,0.2,0.7,0.1,1c-0.4,1.8,0.5,3.3,0.6,4.9c0.1,0.7,0.8,1.3,0.2,2.1c0.7,0.3,0.4,1.1,0.8,1.4c0.3,0.2,0.4,0.5,0.4,0.8
						c0.5,1.8,0.9,3.6,1.5,5.4c0.4,1.2,0.9,2.3,1.3,3.5c0.1,0.3,0.3,0.6,0,1.1c-0.2,0.3-0.1,0.8,0.5,1.1c0.1,0,0.2,0.2,0.2,0.2
						c-0.6,0.9,0.4,1.3,0.6,2c0.4,1.3,0.2,2.7,0.6,4c0.1,0.3-0.1,0.7,0.5,0.8c-0.4,0.3-0.1,0.4,0.1,0.7c0.3,0.2,0.4,0.7,0.2,1
						c-0.3,0.4-0.1,0.7-0.1,1c0,0.3,0.2,0.7,0.2,1c0.2,1.5,0.3,2.9,0.4,4.4c0,0.3-0.2,0.6-0.2,0.9c-0.1,0.3,0.2,0.6-0.2,0.9
						c-0.2,0.1,0,0.4,0,0.6c0.1,0.7-0.1,1.5,0.3,2.1c0.4,0.6,0,1.3,0.7,1.9c0.2,0.2,0,0.5,0.1,0.7c0.2,1-0.4,2,0.3,3
						c-0.5,0.3-0.4,0.8-0.4,1.2c0,0.3-0.3,0.6,0.2,0.9c0.1,0,0,0.1,0,0.2c-0.2,0.4-0.5,0.6-0.5,1.1c0,0.3,0.3,0.7,0.2,1.1
						c-0.1,0.3-0.2,0.7-0.3,1c-0.1,0.3-0.3,0.6-0.5,1c-0.2,0.3-0.3,0.6-0.4,1c-0.1,0.3-0.3,0.6-0.3,1c-0.5,0.2-0.6,0.6-0.8,1
						c-0.4,0.7-0.2,1.6-0.8,2.2c-0.3,0.3-0.6,0.6-0.8,0.9c-0.3,0.3-0.5,0.6-0.7,1c-0.2,0.7-0.7,1.1-1.2,1.5
						c-0.3,0.2-0.5,0.4-0.8,0.6c-0.3,0.2-0.6,0.3-0.8,0.5c-0.3,0.2-0.5,0.5-1,0.2c-0.1-0.1-0.4,0.1-0.4,0.3
						c-0.1,0.4-0.4,0.3-0.5,0.5c-0.4,0.5-1.4-0.5-1.6,0.6c-0.6,0.2-1.2,0.3-1.8,0.5c-0.6,0.1-1.2,0.3-1.8,0.3
						c-0.3,0-0.5,0.2-0.8-0.1c-0.2-0.2-0.7-0.2-0.8,0c-0.4,0.5-0.9,0.4-1.3,0.4c-1.3,0.1-2.6,0.1-4,0c-0.6,0-1.1-0.3-1.7-0.4
						c-0.6-0.2-1.2,0.2-1.7-0.4c0,0-0.1,0-0.1,0c-0.2,0.1-0.5,0.2-0.7,0.1c-0.3-0.1-0.6-0.5-0.8-0.4c-0.4,0.3-0.5-0.1-0.8-0.2
						c-0.7-0.2-1-1.2-0.7-2.3c0.1-0.2,0.2-0.5,0.3-0.7c0.8-1.1,0.8-1.1,1.7-1c1.2,0.1,2.3,0.9,3.6,0.7c0.8,0.7,1.6,0.3,2.4,0.4
						c0.8,0.1,1.7,0.6,2.5,0.2c0.8-0.4,1.6-0.4,2.4-0.5c0.6-0.1,1.2,0.1,1.8,0c0.6-0.1,1.2-0.4,1.8-0.5c0.4,0,0.9,0.2,1.1-0.2
						c0.3-0.4,0.5-0.6,0.9-0.8c0.3-0.2,0.7-0.3,0.9-0.7c0.6-0.9,1.4-1.4,1.8-2.4c0.2-0.5,0.4-1,0.6-1.5c0.1-0.2,0.2-0.4,0.6-0.5
						c0.4-0.1,0.5-0.5,0.3-1c-0.1-0.2-0.1-0.4,0.1-0.5c0.7-0.3,0.6-0.9,0.7-1.4c0.1-0.3,0.6-0.6,0.5-0.8c-0.3-0.4-0.1-0.7,0-1
						c0-0.2-0.1-0.5,0.3-0.7c0.1,0,0.2-0.3,0.1-0.3c-0.6-0.5-0.2-0.9-0.2-1.3c0-0.5,0-1,0-1.5c0-0.5,0-1,0-1.6
						c0-0.9-0.7-1.7-0.5-2.5c-0.6-0.5-0.4-1.1-0.5-1.6c0-0.4,0.1-0.9,0.2-1.3c0.1-0.4-0.1-0.8,0.1-1.3c0.2-0.6-0.2-1.2-0.2-1.9
						c0-0.3-0.4-0.7,0.1-1.1c0.1-0.1,0-0.2-0.1-0.3c-0.7-0.3-0.6-0.9-0.4-1.4c0.2-0.7-0.1-1.3-0.1-2c-0.1-0.5-0.3-1-0.3-1.6
						c0-0.4-0.2-0.7-0.1-1.2c0.1-0.3-0.3-0.7-0.4-1c-0.1-0.3-0.2-0.7-0.3-1.1l-0.3-1.2l-0.3-1.2c-0.1-0.4-0.3-0.8-0.3-1.3
						c-0.1-0.4,0.1-0.9,0-1.3c-0.2-1.1-1.1-2.1-1.2-3.3c-0.5-0.2-0.3-0.6-0.3-0.9c0-0.3,0.1-0.7-0.4-0.9c-0.1,0-0.2-0.2-0.2-0.3
						c-0.1-0.3,0.2-0.6-0.2-0.8c-0.3-0.2-0.2-0.6-0.3-0.9c-0.1-0.3,0.1-0.7-0.5-0.8c0.6-0.8-0.7-0.9-0.5-1.6
						c0.1-0.2,0.1-0.4,0.1-0.6c0-0.1,0.1-0.2,0-0.3c-1.1-1.3-0.9-2.9-1.4-4.3c-0.1-0.2-0.3-0.3-0.4-0.5c-0.1-0.1-0.1-0.2-0.1-0.3
						c0.1-0.9,0.1-0.9-0.3-1.6c-0.1-0.2-0.1-0.4-0.2-0.6c-0.2-0.5-0.1-1-0.5-1.5c-0.4-0.5,0.1-1.2,0.3-1.8c0.2-0.5,0.3-1.1,0.2-1.6
						c-0.3-1.3-0.4-2.7-0.6-4c0-0.2,0.1-0.4-0.1-0.5c-0.6-0.3-1.1-0.6-0.1-1.1c0,0,0-0.2,0-0.2c-0.7-0.2-0.4-0.7-0.5-1.1
						c-0.1-1.4-1-2.7-1-4.1c0-0.2-0.2-0.5,0-0.7c0.4-0.4-0.3-0.4-0.2-0.6c0.1-0.2-0.2-0.5-0.1-0.7c0.5-0.7,0.2-1.4-0.1-1.9
						c-0.3-0.5-0.6-1-0.6-1.5c0.2-1-0.2-1.9-0.4-2.8c-0.2-0.9-0.5-1.9-0.9-2.7c-0.1-0.4-0.1-0.8-0.7-1c-0.1,0-0.1-0.2-0.1-0.3
						c0-0.3,0.1-0.6-0.1-0.9c-0.1-0.3-0.4-0.4-0.7-0.6c-0.2-0.2-0.2-0.4-0.6-0.4c-0.3,0-0.3-0.4-0.1-0.7c0.3-0.8,0.4-1.6-0.1-2.1
						c-0.5-0.4-0.8-0.9-1.2-1.3c-0.2-0.2-0.3-0.4-0.7-0.3c-0.3,0.1-0.6-0.3-0.7-0.6c-0.2-0.4-0.5-0.8-1.1-0.6c-0.2,0-0.3,0-0.5-0.1
						c-0.9-0.3-1.8-0.6-2.9-0.6c-0.2,0-0.5,0.1-0.7-0.4c-0.2,0.5-0.4,0.3-0.6,0.3c-0.3-0.1-0.7-0.3-1-0.2c-0.4,0-0.8,0.1-1.1,0.5
						c-0.3,0.4-0.8,0-1.1,0.5c0,0.1-0.3-0.1-0.4-0.1c-0.4,0.2-1,0-1.1,0.8c0,0.1-0.1,0.1-0.1,0.1c-0.4-0.2-0.6-0.1-0.8,0
						c-0.2,0.2-0.3,0.5-0.4,0.7c-0.3,0.4-1,0.3-1.4,0.6c-0.4,0.4-0.7,1-1.3,1.3c-1,0.5-1.4,1.5-1.9,2.5c-0.5,0.9-0.9,2-1.2,3.1
						c-0.1,0.5,0,1-0.1,1.5c-0.1,0.5-0.2,1.1-0.3,1.6l-0.2,1.5c0,0.2,0.1,0.5-0.3,0.7c-0.1,0-0.1,0.2-0.1,0.2
						c0.4,0.5,0.4,0.9-0.1,1.3c-0.1,0.1,0,0.3-0.1,0.5c-0.2,0.4,0.2,0.8,0.3,1.2c0.1,0.4-0.3,0.8,0.3,1.1c0.1,0,0.1,0.2,0,0.3
						c-1.1,0.7,0.7,1.5-0.2,2.3c0.6,0.3-0.1,0.6,0,0.8c0.2,0.3,0.3,0.6,0.4,1c0,0.3,0,0.7,0.1,1c0.1,0.6-0.1,1.2,0.5,1.7
						c0.2,0.2,0.3,0.5-0.1,0.8c-0.1,0.1-0.1,0.2,0,0.3c0.3,0.6-0.1,1.5-1,1.8c-0.5,0.2-1.1,0.3-1.7,0.3c-0.3,0-0.5-0.3-0.7-0.4
						c-0.4-0.3-0.9-0.5-1.1-0.9C213.9,260.9,213.9,260.4,213.9,259.9z"/>
				</g>
			</g>
		</g>
	</g>
	<g>
		<g>
			<g>
				<g>
					<path class="st0" d="M240.5,234.6c0.2-0.9,1.3-1.2,1.8-2c0.2-0.4,0.6-0.7,0.9-1c0.4-0.3,0.7-0.6,1.1-0.8c0.4-0.2,0.7-0.6,1-1
						c0.3-0.4,1-0.2,1.1-0.9c0-0.1,0.1-0.1,0.2-0.1c0.5-0.2,1-0.5,1.6-0.7c0.5-0.2,1.1-0.3,1.6-0.3c0.6,0.1,1.2,0,1.8-0.1
						c0.6,0,1.3-0.1,1.9,0c1.1-0.3,2.3-0.2,3.3,0.2c0.3,0.1,0.5,0.2,0.8,0.3l0.7,0.4c0.5,0.3,1,0.5,1.4,0.8c0.5,0.4,1.2,0.7,1.4,1.5
						c0.1,0.7,1.1,0.7,1,1.5c0,0.1,0.2,0.1,0.2,0.1c0.2,0.1,0.4,0.2,0.5,0.3c0.4,1.1,0.4,1.1,1.2,1.6c0.1,0.1-0.1,0.3,0,0.4
						c0.2,0.4,0.5,0.9,0.8,1.2c0.3,0.3,0.1,0.9,0.9,1c0.2,0,0.2,0.2,0.2,0.4c0.2,0.4,0.4,0.8,0.6,1.2c0.3,0.4,0.2,1,0.9,1.3
						c0.3,0.1-0.1,0.7,0,0.7c0.3,0.1,0.5,0.3,0.5,0.5c0,0.2-0.1,0.5,0,0.8c0.1,0.2,0.4,0.3,0.5,0.4c0.2,0.4,0.2,1,0.7,1.3
						c0.5,0.3,0.6,0.8,0.8,1.2c0.2,0.4,0.3,0.9,0.6,1.4c0.2,0.3,0.1,0.8,0,1.1c0,0.4,0.5,0.6,0,1.1c0,0,0,0.1,0,0.1
						c0.1,0.7,0.2,1.5,0.4,2.2c0.3,1.2,0.8,2.4,1.2,3.6c0.1,0.3,0.4,0.6,0,1.1c-0.1,0.1,0.1,0.2,0.1,0.3c-0.2,0.4,0.9,0.4,0.5,0.8
						c-0.3,0.4,0,0.6,0.1,1c0.1,0.3,0.2,0.7,0.3,1c0.1,0.2,0.2,0.4,0.5,0.5c-0.5,0.4,0,0.7-0.2,1.1c-0.1,0.3-0.2,0.6,0,0.7
						c0.5,0.2,0.4,0.6,0.6,0.9c0.2,0.4,0.2,1,0.7,1.3c0.2,0.1,0.2,0.4,0.2,0.7c0,0.2-0.2,0.5-0.1,0.7c0.1,0.4,0.2,0.8,0.7,1
						c0.4,0.2,0,0.8,0.7,0.9c0.1,0,0.1,0.1,0.1,0.2c-0.1,0.4-0.1,0.8,0.4,1.1c0.4,0.2,0.3,0.7,0.5,1.1c0.2,0.4,0.4,0.7,0.5,1.2
						c0,0.3,0.8,0.1,0.5,0.6c-0.2,0.3,0.1,0.5,0.2,0.8c0.1,0.3,0.3,0.5,0.3,0.7c-0.1,1.5,1,2.5,1.3,3.8c0.1,0.6,0.9,0.9,0.4,1.7
						c0.7,0.1,0.4,0.8,0.9,1c0.3,0.1,0.4,0.3,0.5,0.5c0.6,1.4,1.2,2.8,1.8,4.2c0.4,0.9,1,1.8,1.4,2.7c0.1,0.3,0.3,0.5,0,0.9
						c-0.2,0.3-0.1,0.7,0.5,0.8c0.1,0,0.2,0.1,0.2,0.2c-0.6,0.8,0.4,1.1,0.6,1.6c0.4,1.1,0.1,2.3,0.4,3.4c0.1,0.2-0.1,0.6,0.4,0.6
						c-0.4,0.3-0.2,0.4,0.1,0.6c0.2,0.2,0.3,0.6,0.1,0.8c-0.3,0.3-0.2,0.6-0.2,0.9c0,0.3,0.1,0.6,0.1,0.9c0,1.2-0.1,2.5-0.4,3.7
						c0,0.2-0.3,0.5-0.4,0.7c-0.1,0.2,0.1,0.5-0.4,0.7c-0.2,0.1-0.1,0.3-0.1,0.5c-0.1,0.6-0.5,1.2-0.3,1.8c0.2,0.6-0.4,1,0,1.7
						c0.1,0.2-0.2,0.4-0.2,0.6c-0.2,0.9-1.1,1.3-0.9,2.4c-0.6,0-0.7,0.4-0.8,0.7c-0.1,0.2-0.5,0.3-0.2,0.8c0,0.1,0,0.1-0.1,0.2
						c-0.3,0.2-0.7,0.2-0.9,0.5c-0.1,0.3,0,0.7-0.2,0.9c-0.8,0.8-1.9,1.2-2.6,2c-0.5-0.1-0.7,0.2-1,0.4c-0.5,0.3-0.7,1.1-1.3,1.4
						c-0.6,0.2-1.2,0.4-1.6,0.9c-0.3,0.5-0.8,0.7-1.2,0.9l-1.4,0.5c-0.2,0.1-0.4,0.4-0.8-0.1c-0.1-0.1-0.3,0-0.4,0.2
						c-0.1,0.4-0.3,0.2-0.4,0.4c-0.4,0.4-1-0.8-1.2,0.3c-0.5,0.1-0.9,0.2-1.4,0.2c-0.5,0.1-0.9,0.2-1.4,0.2c-0.2,0-0.4,0.1-0.7-0.2
						c-0.2-0.2-0.5-0.2-0.7,0c-0.3,0.5-0.7,0.3-1,0.3c-1.1,0.1-2.1,0.1-3.2-0.1c-0.5-0.1-0.9-0.3-1.3-0.4c-0.4-0.2-1,0.1-1.4-0.4
						c0,0-0.1,0-0.1,0c-0.2,0-0.4,0.2-0.6,0.1c-0.2-0.1-0.5-0.5-0.6-0.4c-0.3,0.3-0.4-0.1-0.6-0.2c-0.6-0.2-0.7-1.2-0.4-2.3
						c0.1-0.2,0.2-0.5,0.3-0.7c0.7-1.1,0.7-1.1,1.4-1c0.9,0.1,1.8,0.9,2.7,0.7c0.6,0.7,1.3,0.3,1.9,0.5c0.7,0.2,1.3,0.7,2,0.3
						c0.6-0.4,1.3-0.4,1.9-0.4c0.5,0,1,0.1,1.5,0.1c0.5,0,1-0.3,1.5-0.2c0.3,0,0.7,0.4,1,0c0.5-0.7,1.2-0.4,1.7-0.9
						c0.6-0.6,1.5-0.8,2.1-1.4c0.3-0.3,0.5-0.7,0.9-0.9c0.2-0.1,0.3-0.2,0.6-0.2c0.3,0,0.6-0.2,0.6-0.6c0-0.2,0.1-0.4,0.2-0.4
						c0.7,0.1,0.8-0.4,1.1-0.7c0.2-0.2,0.8-0.1,0.7-0.3c-0.1-0.4,0.2-0.5,0.3-0.7c0.1-0.2,0.1-0.4,0.5-0.3c0.1,0,0.3-0.1,0.2-0.2
						c-0.3-0.6,0.1-0.7,0.3-1c0.2-0.3,0.4-0.7,0.6-1c0.2-0.3,0.4-0.7,0.6-1c0.3-0.6-0.1-1.3,0.3-1.9c-0.4-0.5-0.1-0.8,0-1.2
						c0.1-0.3,0.4-0.5,0.5-0.8c0.2-0.3,0.1-0.6,0.4-0.9c0.4-0.4,0.1-0.9,0.2-1.4c0.1-0.3-0.3-0.5,0.3-0.8c0.1,0,0.1-0.2,0-0.2
						c-0.6-0.3-0.4-0.7-0.2-1.1c0.3-0.5,0.1-1,0.1-1.5c0-0.4-0.1-0.8-0.2-1.2c0-0.3-0.2-0.6,0-0.9c0.1-0.3-0.2-0.5-0.3-0.8
						c-0.1-0.3-0.1-0.6-0.2-0.8c-0.1-0.3-0.1-0.6-0.2-0.9l-0.3-0.9c-0.1-0.3-0.2-0.6-0.3-1c0-0.3,0.1-0.7,0-1
						c-0.2-0.9-1.1-1.5-1.2-2.4c-0.5-0.1-0.3-0.4-0.3-0.7c0-0.2,0-0.6-0.5-0.6c-0.1,0-0.2-0.1-0.2-0.2c-0.1-0.2,0.2-0.5-0.2-0.6
						c-0.3-0.1-0.2-0.4-0.3-0.6c-0.1-0.2,0-0.6-0.6-0.6c0.6-0.7-0.7-0.6-0.6-1.2c0.1-0.2,0-0.3,0-0.5c0-0.1,0.1-0.2,0-0.2
						c-1.1-0.8-1.1-2.1-1.8-3.1c-0.1-0.1-0.3-0.2-0.4-0.3c-0.1,0-0.1-0.1-0.1-0.2c0-0.7,0-0.7-0.5-1.1c-0.1-0.1-0.1-0.3-0.2-0.4
						c-0.2-0.3-0.3-0.8-0.8-1c-0.5-0.3-0.1-0.9,0-1.4c0.1-0.5,0.1-0.9,0-1.3c-0.5-1-0.9-2-1.3-3c0-0.1,0-0.4-0.2-0.4
						c-0.7-0.1-1.2-0.2-0.3-0.8c0,0,0-0.1-0.1-0.1c-0.7,0-0.5-0.5-0.6-0.8c-0.3-1.2-1.3-2.1-1.4-3.2c0-0.2-0.2-0.4-0.1-0.5
						c0.4-0.3-0.4-0.2-0.3-0.5c0.1-0.2-0.2-0.4-0.1-0.5c0.5-0.7,0.1-1.2-0.2-1.5c-0.3-0.4-0.7-0.7-0.6-1.2c0.2-0.9-0.2-1.6-0.4-2.3
						c-0.2-0.8-0.5-1.5-0.7-2.3c-0.1-0.3,0-0.7-0.6-0.8c-0.1,0-0.1-0.2-0.1-0.3c0-0.3,0.1-0.6,0.1-0.8c-0.1-0.2-0.4-0.4-0.5-0.6
						c-0.1-0.2-0.1-0.4-0.5-0.5c-0.3-0.1-0.2-0.4,0-0.7c0.4-0.6,0.8-1.3,0.5-1.8c-0.3-0.5-0.4-1-0.6-1.5c-0.1-0.2-0.1-0.4-0.5-0.5
						c-0.3-0.1-0.3-0.5-0.3-0.8c0.1-0.5,0-0.9-0.4-1.1c-0.2-0.1-0.2-0.2-0.3-0.4c-0.4-0.8-0.7-1.7-1.1-2.5c-0.1-0.2-0.3-0.4,0-0.7
						c-0.5,0.1-0.5-0.2-0.5-0.4c-0.1-0.3,0-0.7-0.1-0.9c-0.1-0.3-0.3-0.6-0.8-0.8c-0.4-0.1-0.2-0.7-0.7-0.8c-0.1,0,0.1-0.3,0-0.3
						c-0.3-0.3-0.1-0.9-0.9-0.8c-0.1,0-0.1-0.1-0.1-0.1c0.4-0.8-0.3-0.8-0.7-1c-0.4-0.2-0.2-0.9-0.5-1.2c-0.4-0.3-0.9-0.6-1-1.1
						c-0.2-0.4-0.4-0.7-0.7-0.9c-0.3-0.3-0.7-0.3-1-0.6c-0.3-0.2-0.7-0.3-1.1-0.5l-0.6-0.2l-0.6,0c-0.3,0-0.7,0.1-1,0.2
						c-0.4,0.1-0.7,0-1.1,0.1c-0.4,0.1-0.8,0.2-1.1,0.2c-0.2,0-0.3,0.3-0.6-0.1c-0.1-0.1-0.2-0.1-0.2,0c-0.2,0.5-0.5,0.6-0.9,0.3
						c-0.1-0.1-0.2,0.1-0.3,0.1c-0.4,0-0.5,0.4-0.7,0.6c-0.2,0.2-0.6,0-0.5,0.6c0,0.1-0.1,0.1-0.2,0.1c-0.5-0.3-0.6,0-0.7,0.3
						c-0.1,0.3-0.2,0.6-0.7,0.4c0.2,0.6-0.4,0.2-0.4,0.4c-0.1,0.3-0.1,0.5-0.2,0.7c-0.1,0.2-0.3,0.3-0.4,0.5
						c-0.2,0.3-0.6,0.5-0.3,1.1c0.1,0.2,0.1,0.4-0.4,0.4c-0.1,0-0.1,0.1-0.1,0.1c0,0.4-0.6,0.7-1.5,0.6c-0.5-0.1-1.2-0.1-1.7-0.3
						c-0.3-0.1-0.4-0.4-0.5-0.6c-0.2-0.4-0.6-0.8-0.6-1.2C239.9,235.4,240.3,235.1,240.5,234.6z"/>
				</g>
			</g>
		</g>
	</g>
	<g>
		<g>
			<g>
				<g>
					<path class="st0" d="M241.7,239.4c-0.1-0.4,0.7-0.2,0.8-0.5c0.1-0.3,0.3-0.5,0.5-0.7c0.1-0.1,0.1-0.3,0-0.6
						c-0.1-0.3,0.4-0.1,0-0.6c0,0,0,0,0-0.1c0.3-0.3,0.4-0.8,0.9-0.8c0.6,0,0.7-0.5,1.2-0.6c0.1-1.1,1-1,1.6-1.5
						c0.2-0.2,0.3-0.4,0.7-0.1c0.3,0.3,0.3-0.5,0.7,0.1c0,0,0-0.1,0-0.2c0-0.1,0-0.3,0.1-0.3c0.5,0.2,0.5,0.2,0.7-0.2
						c0-0.1,0.2,0.2,0.2,0.2c0.2,0,0.4,0,0.5-0.2c0.1-0.1,0.4,0.2,0.4-0.5c0-0.1,0.1,0,0.2-0.1c0.2,0,0.4,0,0.5-0.1
						c0.2-0.1,0.4,0.2,0.6-0.4c0.1-0.3,0.3,0.4,0.3,0.2c0.1-0.3,0.2-0.3,0.3-0.3c0.1,0,0.2,0.3,0.3,0.3c0.1,0,0.2-0.3,0.2-0.3
						c0.2-0.1,0.4,0.2,0.6-0.1c0.2-0.3,0.4-0.2,0.7-0.2c0.2,0,0.5,0.1,0.7,0.1c0.2,0,0.3,0.2,0.4,0.4c0.1,0.2,0.4-0.2,0.4,0.5
						c0,0,0,0,0,0c0.3,0.2,0.5,0.5,0.8,0.6c0.5,0.3,1,0.5,1.5,0.8c0.1,0.1,0.4,0,0.2,0.5c0,0.1,0.1,0,0.1,0.1
						c-0.1,0.3,0.7-0.4,0.5,0.1c-0.2,0.4,0.1,0.3,0.2,0.4c0.1,0.1,0.2,0.2,0.3,0.3c0.1,0.1,0.2,0.1,0.5,0c-0.4,0.5,0,0.3-0.1,0.6
						c-0.1,0.2-0.2,0.4,0.1,0.3c0.5-0.2,0.3,0.1,0.5,0.2c0.2,0.1,0.1,0.4,0.6,0.4c0.2,0,0.2,0.1,0.2,0.3c0,0.1-0.2,0.3-0.1,0.4
						c0,0.2,0.1,0.3,0.5,0.3c0.3,0-0.1,0.4,0.5,0.3c0.1,0,0.1,0,0,0.1c-0.2,0.2-0.3,0.4,0.1,0.5c0.3,0.1,0.2,0.3,0.2,0.4
						c0,0.2,0.2,0.3,0.1,0.5c-0.1,0.1,0.8,0,0.3,0.2c-0.3,0.1-0.1,0.2-0.1,0.3c0,0.1,0.2,0.2,0,0.3c-0.6,0.6,0.1,1,0,1.5
						c-0.1,0.2,0.5,0.4-0.2,0.7c0.6,0.1,0.1,0.3,0.5,0.4c0.3,0.1,0.2,0.2,0.2,0.2c0.1,0.6,0.1,1.1,0.1,1.7c0,0.4,0.2,0.8,0.3,1.2
						c0,0.1,0.1,0.2-0.3,0.3c-0.3,0.1-0.3,0.2,0.1,0.4c0.1,0,0.1,0.1,0.1,0.1c-0.8,0.1-0.1,0.5-0.1,0.7c0,0.1-0.1,0.2-0.1,0.4
						c-0.1,0.2-0.2,0.3-0.3,0.4c-0.2,0.3-0.4,0.5-0.5,0.8c0,0.1-0.3,0.1,0.1,0.5c-0.4-0.2-0.3,0-0.2,0.3c0.1,0.2,0,0.5-0.3,0.4
						c-0.2-0.1-0.3,0-0.4,0c-0.1,0-0.1,0.1-0.2,0.1c-0.2,0.1-0.3,0.2-0.4,0.2c-0.3,0.1-0.7,0.3-0.9,0.3c-0.2,0.1-0.4,0.1-0.7,0.1
						c-0.1,0-0.2-0.1-0.4-0.2c-0.1-0.1-0.1,0.2-0.4-0.2c-0.1-0.1-0.1,0-0.2,0c-0.2,0.1-0.5-0.1-0.5,0.3c0,0.4-0.4,0.1-0.3,0.7
						c0,0.2-0.1,0-0.2,0.1c-0.2,0.3-0.7-0.2-0.7,0.6c-0.2-0.4-0.3-0.3-0.4-0.2c-0.1,0-0.2-0.2-0.2,0.3c0,0.1,0,0.1,0,0.1
						c-0.1-0.1-0.3-0.4-0.4-0.3c-0.1,0.1-0.1,0.4-0.2,0.5c-0.4,0.1-0.9-0.4-1.2-0.1c-0.2-0.4-0.3-0.3-0.4-0.3
						c-0.2,0-0.3,0.6-0.5,0.5c-0.2-0.1-0.4-0.2-0.6,0.1c-0.3,0.5-0.7,0.2-1,0.4c-0.1,0-0.2,0.2-0.3-0.3c0-0.1-0.1-0.1-0.1,0.1
						c0,0.3-0.1,0.1-0.2,0.2c-0.2,0.3-0.3-1-0.5,0l-0.5,0c-0.2,0-0.3,0-0.5,0c-0.1,0-0.2,0.1-0.2-0.3c0-0.2-0.2-0.3-0.2-0.1
						c-0.2,0.5-0.3,0.3-0.4,0.3c-0.4,0-0.8-0.1-1.2-0.2c-0.2-0.1-0.3-0.3-0.4-0.4c-0.1-0.1-0.4,0.1-0.4-0.4c0,0,0,0,0,0
						c-0.1,0-0.2,0.2-0.2,0.1c-0.1-0.1-0.1-0.5-0.2-0.3c-0.2,0.3-0.1-0.1-0.2-0.1c-0.2-0.2,0-1.1,0.4-2.2c0.1-0.2,0.2-0.5,0.3-0.7
						c0.5-1.1,0.5-1.1,0.7-1.1c0.3,0,0.4,0.8,0.7,0.6c0.1,0.7,0.3,0.3,0.5,0.4c0.2,0.2,0.3,0.7,0.6,0.4c0.2-0.4,0.4-0.3,0.6-0.2
						c0.1,0,0.3,0.3,0.5,0.3c0.2,0.1,0.3-0.1,0.5,0.1c0.1,0.1,0.2,0.5,0.3,0.3c0.2-0.5,0.4-0.1,0.6-0.4c0.2-0.4,0.5-0.2,0.8-0.5
						c0.1-0.2,0.2-0.3,0.4-0.3c0.1,0,0.1,0,0.2,0.2c0.1,0.2,0.2,0.2,0.2-0.2c0-0.2,0-0.3,0.1-0.2c0.2,0.5,0.3,0.2,0.5,0.2
						c0.1,0,0.3,0.4,0.3,0.2c0-0.4,0.1-0.2,0.2-0.3c0.1,0,0.1-0.2,0.2,0.2c0,0.1,0.1,0.1,0.1,0c-0.1-0.6,0.1-0.3,0.2-0.4
						c0.2-0.1,0.5-0.2,0.8-0.3c0.2,0,0.2-0.7,0.5-0.6c-0.1-0.6,0.1-0.4,0.3-0.5c0.1,0,0.3,0.1,0.4,0.2c0.1,0.1,0.2-0.1,0.4,0.1
						c0.3,0.2,0.3-0.1,0.5-0.1c0.1,0,0-0.4,0.3,0.1c0,0.1,0.1,0,0,0c-0.3-0.5-0.2-0.4,0-0.2c0.2,0.2,0.3,0.1,0.3,0.1c0,0,0,0,0.1,0
						c0.1,0,0.1-0.1,0.1-0.2c0.1,0,0-0.1,0.2-0.1c0.2,0.1-0.1-0.2-0.1-0.2c0-0.1,0-0.1,0-0.1l0.1-0.2l0.1-0.3c0-0.1,0-0.2,0.1-0.3
						c0.1-0.1,0.3-0.1,0.4-0.2c0.1-0.3-0.5-0.6-0.3-0.8c-0.4-0.1-0.1-0.1,0-0.2c0.1-0.1,0.3-0.2-0.2-0.2c-0.1,0-0.1-0.1-0.1-0.1
						c-0.1-0.1,0.3-0.1,0-0.2c-0.2,0,0-0.1-0.1-0.2c-0.1-0.1,0.3-0.2-0.3-0.2c0.8-0.2-0.5-0.2-0.1-0.4c0.1-0.1,0.2-0.1,0.2-0.2
						c0,0,0.1-0.1,0.1-0.1c-0.8-0.3-0.2-0.7-0.5-1c0,0-0.2-0.1-0.3-0.1c0,0-0.1,0,0-0.1c0.3-0.2,0.2-0.3-0.1-0.4
						c-0.1,0,0-0.1-0.1-0.1c-0.1-0.1,0-0.3-0.4-0.3c-0.4,0,0.2-0.3,0.4-0.5c0.2-0.2,0.4-0.4,0.4-0.5c-0.1-0.2-0.1-0.3-0.2-0.5
						l-0.1-0.4c0,0,0.1-0.1-0.1-0.1c-0.6,0.1-1,0.2-0.1-0.2c0,0,0,0,0,0c-0.6,0.2-0.3,0-0.4-0.1c-0.1-0.3-0.8-0.1-0.7-0.5
						c0-0.1-0.1,0,0-0.2c0.3-0.3-0.3,0.1-0.2,0c0.1-0.1-0.2,0,0-0.1c0.4-0.5,0.2-0.5,0-0.4c-0.2,0.1-0.4,0.2-0.3-0.1
						c0.2-0.4-0.1-0.4-0.2-0.5c-0.1-0.2-0.3-0.2-0.4-0.3c-0.1,0,0-0.3-0.3,0.2c-0.1,0.1-0.1,0-0.1,0c0-0.1,0-0.3,0-0.4
						c-0.1,0-0.2,0.2-0.3,0.3c-0.1,0.1-0.1,0-0.2,0.3c-0.1,0.2-0.1,0-0.1-0.3c0.1-0.6,0.1-1.2-0.1-1.2c-0.2,0.1-0.3,0-0.4,0
						c-0.1,0-0.1,0-0.2,0.2c-0.1,0.2-0.2,0.1-0.2-0.1c-0.1-0.3-0.2-0.3-0.3,0c0,0.1-0.1,0.1-0.1,0.1c-0.2,0-0.5,0-0.7,0
						c-0.1,0-0.1,0.1-0.2-0.3c0,0.5-0.1,0.3-0.1,0.3c-0.1,0-0.2-0.2-0.3-0.3c-0.1,0-0.2,0-0.2,0.3c0,0.3-0.2-0.1-0.2,0.3
						c0,0.1-0.1-0.2-0.1-0.2c-0.1,0.1-0.3-0.3-0.2,0.4c0,0.1,0,0.1,0,0c-0.4-0.6-0.3-0.1-0.3,0.1c0,0.2-0.4-0.2-0.5-0.2
						c-0.1,0.1-0.2,0.3-0.5,0.2c-0.5-0.3-0.6,0.1-0.8,0.2c-0.3,0.1-0.5,0.2-0.7,0.5c-0.1,0.1,0,0.4-0.1,0.5
						c-0.1,0.1-0.2,0.2-0.3,0.3c-0.1,0.1-0.2,0.2-0.3,0.2c0,0,0,0.2-0.3-0.1c-0.1-0.1-0.1,0-0.1,0c0.3,0.4,0.2,0.5-0.2,0.2
						c-0.1-0.1-0.1,0-0.1,0c-0.2,0,0,0.3,0.1,0.4c0,0.1-0.4-0.1,0.1,0.4c0.1,0.1,0,0.1,0,0.1c-0.9-0.5,0.3,0.7-0.5,0.2
						c0.5,0.4-0.2,0.1-0.1,0.2c0.1,0.1,0.2,0.3,0.1,0.3c-0.1,0.1-0.1,0.1-0.1,0.2c0,0.2-0.3,0.1,0.1,0.5c0.1,0.1,0.2,0.2-0.3,0.1
						c-0.1,0-0.1,0-0.1,0c0.1,0.2-0.5,0.1-1.3-0.3c-0.5-0.2-1.1-0.5-1.5-0.8c-0.2-0.1-0.3-0.3-0.5-0.4c-0.3-0.2-0.6-0.5-0.7-0.7
						C241.5,239.6,241.6,239.5,241.7,239.4z"/>
				</g>
			</g>
		</g>
	</g>
	<g>
		<g>
			<g>
				<g>
					<path class="st0" d="M219,241.2c-0.1-0.3,0.1-0.5,0.4-0.7c0.2-0.2,0.5-0.3,0.6-0.6c0.1-0.2,0.2-0.5,0.3-0.7
						c0.2-0.2,0.3-0.3,0.5-0.5c0.2-0.2,0.2-0.4,0.2-0.7c0-0.3,0.5-0.1,0.3-0.7c0-0.1,0,0,0.1-0.1c0.4-0.3,0.7-0.9,1.4-0.9
						c0.7,0,1.1-0.5,1.6-0.5c0.5-1.1,1.6-0.9,2.4-1.2c0.3-0.1,0.5-0.3,0.9,0.1c0.3,0.3,0.5-0.4,0.8,0.2c0,0.1,0.1-0.1,0.1-0.1
						c0.1-0.1,0.1-0.3,0.2-0.2c0.6,0.3,0.5,0.3,0.9,0c0,0,0.1,0.2,0.2,0.2c0.2,0,0.5,0.1,0.7,0c0.2-0.1,0.4,0.3,0.7-0.3
						c0.1-0.1,0.1,0,0.2,0c0.2,0,0.5,0.1,0.7,0.1c0.3,0,0.5,0.3,0.9-0.2c0.2-0.2,0.2,0.5,0.3,0.3c0.2-0.2,0.3-0.2,0.4-0.2
						c0.1,0.1,0.2,0.3,0.3,0.4c0.1,0,0.3-0.2,0.4-0.2c0.3,0,0.5,0.4,0.9,0.3c0.4-0.2,0.6,0,0.9,0.2c0.3,0.1,0.5,0.4,0.8,0.5
						c0.2,0.1,0.2,0.5,0.3,0.7c0.1,0.3,0.6,0.1,0.2,0.7c0,0,0,0,0,0c0.2,0.4,0.3,0.9,0.5,1.3c0.2,0.3,0.4,0.7,0.5,1
						c0.2,0.3,0.3,0.7,0.3,1c0,0.2,0.3,0.4-0.2,0.6c-0.1,0.1,0.1,0.1,0,0.1c-0.3,0.2,0.8,0.1,0.3,0.4c-0.4,0.2-0.1,0.3-0.1,0.5
						c0,0.2,0.1,0.3,0.1,0.5c0,0.1,0.1,0.2,0.4,0.2c-0.6,0.2-0.2,0.3-0.4,0.5c-0.2,0.1-0.3,0.3-0.1,0.3c0.5,0.1,0.3,0.3,0.4,0.4
						c0.1,0.2-0.1,0.5,0.4,0.6c0.2,0.1,0.1,0.2,0.1,0.3c0,0.1-0.3,0.2-0.3,0.3c0,0.2,0,0.4,0.4,0.5c0.3,0.2-0.3,0.4,0.4,0.5
						c0.1,0,0.1,0.1,0,0.1c-0.3,0.2-0.4,0.4,0,0.6c0.3,0.2,0.1,0.4,0.1,0.6c0,0.2,0.1,0.4,0,0.6c-0.1,0.1,0.7,0.2,0.2,0.4
						c-0.3,0.1-0.2,0.3-0.2,0.4c0,0.1,0.1,0.3-0.1,0.4c-0.8,0.6-0.3,1.4-0.8,2.1c-0.2,0.3,0.2,0.8-0.6,0.8c0.4,0.4-0.1,0.5,0.1,0.9
						c0.1,0.2,0,0.4,0,0.5c-0.5,0.8-1.2,1.5-1.9,2.1c-0.5,0.4-0.9,0.9-1.4,1.1c-0.1,0.1-0.3,0.2-0.6,0c-0.2-0.2-0.4-0.2-0.4,0.3
						c0,0.1,0,0.2-0.1,0.1c-0.5-0.7-0.6,0.2-0.9,0.3c-0.3,0.1-0.6,0-0.9,0c-0.3-0.1-0.5-0.2-0.7-0.1c-0.1,0-0.2-0.2-0.3,0.4
						c-0.1-0.4-0.2-0.2-0.2,0c-0.1,0.2-0.3,0.3-0.4,0c-0.2-0.3-0.3-0.2-0.4-0.2c-0.1,0-0.3,0-0.4,0l-0.9-0.1
						c-0.3-0.1-0.6-0.1-0.9-0.2c-0.1,0-0.2-0.2-0.3-0.4c-0.1-0.1-0.3,0.1-0.3-0.3c0-0.2-0.2-0.1-0.2-0.1c-0.3,0-0.5-0.4-0.9-0.1
						c-0.4,0.3-0.5-0.3-1,0.3c-0.2,0.1-0.2-0.1-0.3-0.1c-0.5-0.1-0.6-0.8-1.4-0.5c0.2-0.5,0-0.5-0.2-0.6c-0.1-0.1,0-0.4-0.5-0.1
						c-0.1,0-0.1,0-0.1,0c0-0.2,0.1-0.5-0.1-0.6c-0.1-0.1-0.5,0-0.6-0.1c-0.2-0.2-0.2-0.6-0.3-0.9c0-0.3-0.1-0.6-0.3-0.7
						c0.3-0.3,0.2-0.4,0.1-0.6c-0.1-0.3-0.7-0.3-0.7-0.6c0-0.3,0-0.6-0.3-0.7c-0.6-0.2-0.4-0.7-0.7-1.1c-0.1-0.1-0.3-0.2,0.2-0.4
						c0.1-0.1,0-0.2-0.1-0.1c-0.3,0-0.2-0.1-0.3-0.1c-0.4-0.1,0.8-0.6-0.1-0.5l-0.2-0.6c-0.1-0.2-0.1-0.4-0.1-0.6
						c0-0.1-0.1-0.2,0.2-0.3c0.2-0.1,0.2-0.3,0-0.3c-0.5,0-0.3-0.2-0.4-0.4c-0.1-0.4-0.2-0.9-0.3-1.4c0-0.2,0.2-0.4,0.2-0.6
						c0.1-0.2-0.3-0.4,0.1-0.6c0,0,0,0,0-0.1c-0.1-0.1-0.3-0.1-0.2-0.2c0-0.1,0.4-0.3,0.2-0.3c-0.4-0.1,0-0.2,0-0.3
						c0.1-0.3,1-0.5,2.1-0.7c0.3,0,0.5,0,0.7,0c1.3,0,1.2,0,1.3,0.4c0.2,0.4-0.5,0.9-0.2,1.3c-0.6,0.4-0.1,0.6-0.2,0.9
						c-0.1,0.3-0.5,0.7-0.1,0.9c0.4,0.2,0.4,0.5,0.4,0.8c0,0.2-0.1,0.5-0.1,0.7c0,0.2,0.2,0.4,0.1,0.7c-0.1,0.2-0.4,0.4-0.2,0.5
						c0.6,0.1,0.2,0.5,0.6,0.7c0.5,0.2,0.4,0.7,0.7,0.9c0.2,0.1,0.4,0.2,0.5,0.4c0,0.1,0.1,0.2-0.1,0.3c-0.2,0.2-0.1,0.3,0.2,0.2
						c0.2,0,0.3,0,0.2,0.1c-0.4,0.4-0.1,0.5,0,0.6c0.1,0.1-0.3,0.4-0.1,0.4c0.3-0.1,0.3,0,0.4,0.1c0.1,0,0.2,0-0.1,0.3
						c-0.1,0.1-0.1,0.2,0,0.1c0.5-0.3,0.4-0.1,0.5,0c0.2,0.2,0.4,0.2,0.6,0.4c0.2,0.1,0.6-0.4,0.6-0.1c0.3-0.5,0.3-0.3,0.4-0.2
						c0.1,0,0.2,0.2,0.2,0.4c0.1,0.1,0.2,0,0.3,0.3c0.2,0.3,0.4,0,0.5,0.1c0.1,0,0.2-0.3,0.3,0.3c0,0.1,0.1,0.1,0.1,0
						c0.1-0.6,0.3-0.5,0.4-0.2c0.2,0.4,0.4,0.2,0.7,0.2c0.2,0,0.4-0.1,0.5,0c0.1,0,0.3-0.1,0.4,0.1c0.1,0.2,0.2-0.2,0.4-0.2
						c0.1-0.1,0.2,0,0.4-0.1l0.4-0.1c0.1,0,0.2,0,0.4-0.1c0.1,0,0.2-0.1,0.4-0.1c0.1,0,0.3,0.2,0.4,0.2c0.3-0.1,0.4-0.8,0.7-0.7
						c-0.2-0.4,0.1-0.2,0.2-0.2c0.1,0,0.3,0.1,0.1-0.3c-0.1-0.1,0-0.1,0-0.2c0-0.1,0.3,0.2,0.2-0.1c-0.1-0.2,0.1-0.1,0.1-0.2
						c0-0.1,0.3,0.1-0.1-0.3c0.7,0.4-0.2-0.4,0.1-0.3c0.1,0,0.2,0,0.3,0c0,0,0.1,0,0.1,0c-0.5-0.6,0.2-0.7,0.1-1.1
						c0-0.1-0.2-0.1-0.2-0.2c0,0,0-0.1,0-0.1c0.3-0.1,0.3-0.2,0.1-0.4c-0.1-0.1,0-0.1,0-0.2c-0.1-0.1,0.1-0.3-0.2-0.4
						c-0.3-0.2,0.3-0.3,0.6-0.4c0.2-0.1,0.5-0.3,0.5-0.4c-0.1-0.4,0-0.8,0-1.3c0-0.1,0.1-0.1,0-0.2c-0.6-0.1-1-0.2,0-0.4
						c0,0,0-0.1,0-0.1c-0.6-0.1-0.3-0.2-0.3-0.3c0-0.5-0.7-0.8-0.5-1.3c0-0.1-0.1-0.2,0.1-0.2c0.4-0.2-0.3-0.1-0.1-0.2
						c0.1-0.1-0.1-0.2,0-0.2c0.6-0.3,0.4-0.5,0.1-0.7c-0.2-0.2-0.5-0.3-0.3-0.5c0.4-0.4,0.1-0.7,0.1-1c0-0.2-0.1-0.5-0.2-0.7
						c0-0.1,0.2-0.3-0.4-0.1c-0.1,0-0.1,0,0-0.1c0.1-0.1,0.2-0.3,0.2-0.3c0-0.1-0.3,0-0.4,0c-0.1,0-0.1-0.1-0.3,0.1
						c-0.2,0.1-0.1,0,0.1-0.3c0.4-0.5,0.7-1,0.5-1.1c-0.2,0-0.3-0.2-0.4-0.3c-0.1,0-0.1-0.1-0.3,0.1c-0.2,0.2-0.2,0-0.2-0.2
						c0-0.3-0.1-0.4-0.3-0.2c-0.1,0.1-0.1,0.1-0.2,0.1c-0.3-0.1-0.6-0.2-0.9-0.3c-0.1,0-0.2,0.1-0.2-0.3c-0.1,0.5-0.2,0.3-0.3,0.3
						c-0.1-0.1-0.2-0.3-0.3-0.4c-0.1-0.1-0.3,0-0.4,0.3c-0.1,0.3-0.3-0.2-0.4,0.2c0,0.1-0.1-0.2-0.1-0.2c-0.1,0.1-0.3-0.3-0.4,0.3
						c0,0.1,0,0.1-0.1,0c-0.2-0.7-0.4-0.1-0.5,0.1c-0.2,0.2-0.4-0.3-0.6-0.3c-0.2,0-0.4,0.3-0.6,0.1c-0.5-0.4-0.8-0.1-1.1,0
						c-0.4,0.1-0.7,0.2-1,0.4c-0.1,0.1-0.2,0.4-0.3,0.5c-0.1,0.1-0.3,0.2-0.5,0.2c-0.1,0.1-0.3,0.2-0.4,0.2c-0.1,0,0,0.2-0.3-0.1
						c-0.1-0.1-0.1-0.1-0.1,0c0.1,0.5,0,0.5-0.3,0.2c-0.1-0.1-0.1,0-0.2,0c-0.2-0.1,0,0.3,0,0.5c0,0.2-0.4-0.1,0,0.4
						c0.1,0.1,0,0.1,0,0.1c-0.4-0.3-0.4-0.1-0.3,0.1c0.1,0.2,0.2,0.4-0.2,0.1c0.4,0.4-0.1,0-0.1,0.1c0.1,0.1,0.2,0.3,0.1,0.3
						c0,0-0.1,0.1-0.1,0.1c0,0.1-0.2,0.1,0.2,0.3c0.2,0.1,0.3,0.1-0.2,0c-0.1,0-0.1,0-0.1,0c0.2,0-0.3,0.1-1.2,0.3
						c-0.5,0.1-1.2,0.2-1.7,0.2c-0.3,0-0.4-0.1-0.6-0.2c-0.3-0.1-0.8-0.3-1-0.6C218.8,241.8,219,241.5,219,241.2z"/>
				</g>
			</g>
		</g>
	</g>
	<g>
		<g>
			<g>
				<g>
					<path class="st0" d="M202.2,269.4c0-0.3,0.2-0.5,0.5-0.6c0.3-0.1,0.5-0.2,0.7-0.5c0.1-0.2,0.3-0.4,0.5-0.6
						c0.2-0.2,0.4-0.3,0.6-0.4c0.2-0.1,0.3-0.3,0.4-0.7c0.1-0.3,0.5,0,0.4-0.7c0-0.1,0.1,0,0.1-0.1c0.5-0.3,0.9-0.7,1.5-0.6
						c0.7,0.2,1.1-0.3,1.7-0.2c0.7-1,1.8-0.6,2.6-0.7c0.3-0.1,0.6-0.2,0.9,0.2c0.2,0.4,0.6-0.3,0.8,0.4c0,0.1,0.1-0.1,0.1-0.1
						c0.1-0.1,0.2-0.2,0.3-0.2c0.5,0.4,0.5,0.4,0.9,0.1c0.1,0,0.1,0.3,0.1,0.3c0.2,0.1,0.5,0.1,0.7,0.1c0.2,0,0.4,0.4,0.7-0.2
						c0.1-0.1,0.1,0,0.2,0c0.2,0.1,0.4,0.2,0.7,0.2c0.3,0,0.4,0.4,0.9,0c0.2-0.2,0.1,0.5,0.2,0.4c0.2-0.2,0.4-0.2,0.5-0.1
						c0.1,0.1,0.1,0.4,0.2,0.4c0.1,0.1,0.3-0.1,0.5-0.1c0.3,0.1,0.4,0.5,0.8,0.4c0.4-0.1,0.6,0.2,0.9,0.4c0.3,0.2,0.4,0.5,0.7,0.7
						c0.2,0.2,0.2,0.5,0.2,0.8c0,0.3,0.5,0.3,0.1,0.8c0,0,0,0,0,0c0.1,0.5,0.2,0.9,0.3,1.4c0.1,0.4,0.2,0.7,0.3,1.1
						c0.1,0.4,0.1,0.7,0.1,1.1c0,0.2,0.2,0.4-0.3,0.6c-0.1,0,0.1,0.1,0,0.1c-0.3,0.2,0.7,0.3,0.2,0.4c-0.4,0.1-0.2,0.3-0.2,0.4
						c0,0.2,0,0.3,0,0.5c0,0.1,0.1,0.2,0.4,0.3c-0.6,0.1-0.2,0.3-0.5,0.4c-0.2,0.1-0.4,0.2-0.2,0.3c0.5,0.2,0.2,0.3,0.3,0.5
						c0.1,0.2-0.1,0.4,0.3,0.7c0.2,0.1,0.1,0.2,0,0.3c-0.1,0.1-0.3,0.2-0.3,0.3c-0.1,0.2,0,0.4,0.2,0.6c0.3,0.2-0.3,0.3,0.3,0.6
						c0.1,0,0,0.1,0,0.1c-0.3,0.2-0.5,0.3-0.1,0.6c0.3,0.2,0,0.4-0.1,0.6c0,0.2,0,0.5-0.2,0.6c-0.1,0.1,0.7,0.4,0.1,0.4
						c-0.3,0-0.2,0.2-0.3,0.3c-0.1,0.1,0,0.3-0.1,0.4c-0.9,0.5-0.6,1.3-1.1,1.9c-0.2,0.2,0,0.8-0.8,0.6c0.3,0.5-0.2,0.5-0.1,0.9
						c0.1,0.3,0,0.4-0.1,0.5c-0.6,0.7-1.5,1.2-2.3,1.7c-0.5,0.3-1.1,0.7-1.6,0.9c-0.2,0.1-0.3,0.2-0.5-0.2c-0.2-0.2-0.4-0.2-0.5,0.2
						c0,0.1-0.1,0.2-0.1,0.1c-0.4-0.8-0.6,0.1-0.9,0.1c-0.3,0-0.6-0.1-0.9-0.2c-0.3-0.1-0.5-0.3-0.7-0.2c-0.1,0-0.2-0.2-0.3,0.3
						c-0.1-0.5-0.1-0.2-0.2,0c-0.1,0.2-0.3,0.2-0.4,0c-0.1-0.4-0.2-0.2-0.3-0.3c-0.1,0-0.3,0-0.4-0.1l-0.8-0.3
						c-0.3-0.1-0.6-0.2-0.9-0.4c-0.1,0-0.2-0.3-0.3-0.4c-0.1-0.1-0.3,0.1-0.3-0.4c0-0.2-0.1-0.1-0.2-0.1c-0.3-0.1-0.5-0.5-0.9-0.3
						c-0.4,0.2-0.5-0.3-1.1,0.1c-0.2,0.1-0.2-0.1-0.3-0.2c-0.5-0.2-0.4-0.9-1.3-0.7c0.2-0.4,0.1-0.5-0.1-0.7c-0.1-0.1,0-0.4-0.5-0.2
						c-0.1,0-0.1,0-0.1-0.1c0-0.2,0.2-0.5,0.1-0.6c-0.1-0.1-0.5,0-0.5-0.2c-0.1-0.3-0.1-0.6-0.1-0.9c0-0.3,0-0.6-0.2-0.8
						c0.4-0.3,0.2-0.4,0.2-0.5c0-0.3-0.6-0.4-0.5-0.7c0.1-0.3,0.1-0.6-0.2-0.8c-0.5-0.3-0.3-0.8-0.4-1.2c0-0.1-0.2-0.2,0.2-0.4
						c0.1,0,0-0.1-0.1-0.2c-0.3,0-0.1-0.1-0.2-0.2c-0.3-0.2,0.9-0.4,0-0.6l0-0.6c0-0.2,0-0.4,0-0.6c0-0.1-0.1-0.2,0.2-0.3
						c0.2-0.1,0.3-0.2,0.1-0.3c-0.5-0.1-0.3-0.3-0.3-0.5c0-0.5-0.1-0.9,0-1.4c0-0.2,0.2-0.4,0.4-0.6c0.1-0.2-0.2-0.4,0.2-0.6
						c0,0,0,0,0-0.1c-0.1-0.1-0.2-0.2-0.2-0.2c0-0.1,0.5-0.2,0.3-0.3c-0.4-0.1,0-0.2,0.1-0.3c0.1-0.2,1.1-0.4,2.2-0.3
						c0.3,0,0.5,0.1,0.7,0.1c1.2,0.3,1.2,0.3,1.2,0.6c0.1,0.4-0.6,0.8-0.4,1.3c-0.7,0.3-0.2,0.6-0.4,0.9c-0.1,0.3-0.7,0.6-0.3,0.9
						c0.4,0.3,0.3,0.6,0.3,0.9c0,0.2-0.2,0.4-0.3,0.7c0,0.2,0.1,0.4,0,0.7c-0.1,0.1-0.5,0.3-0.2,0.4c0.6,0.2,0.1,0.6,0.5,0.8
						c0.4,0.3,0.2,0.7,0.6,1c0.2,0.2,0.4,0.3,0.4,0.5c0,0.1,0,0.2-0.2,0.3c-0.2,0.2-0.2,0.3,0.2,0.3c0.2,0,0.3,0,0.2,0.1
						c-0.5,0.3-0.2,0.4-0.1,0.6c0,0.1-0.4,0.4-0.1,0.4c0.4-0.1,0.3,0.1,0.3,0.1c0.1,0,0.2,0-0.1,0.3c-0.1,0.1-0.1,0.1,0,0.1
						c0.6-0.2,0.4,0,0.4,0.1c0.2,0.2,0.4,0.3,0.5,0.5c0.2,0.1,0.6-0.3,0.6,0c0.4-0.5,0.3-0.2,0.4-0.2c0.1,0,0.1,0.3,0.2,0.4
						c0.1,0.1,0.2,0.1,0.2,0.4c0.1,0.3,0.4,0.1,0.5,0.2c0.1,0.1,0.2-0.3,0.3,0.3c0,0.1,0.1,0.1,0.1,0c0.2-0.6,0.4-0.4,0.5-0.1
						c0.2,0.4,0.4,0.2,0.6,0.3c0.2,0.1,0.4,0,0.5,0.1c0.1,0,0.3-0.1,0.4,0.2c0.1,0.2,0.3-0.1,0.4-0.1c0.1,0,0.2,0,0.4,0l0.4,0
						c0.1,0,0.2,0,0.4,0c0.1,0,0.2-0.1,0.4,0c0.1,0,0.3,0.3,0.4,0.3c0.4,0,0.5-0.7,0.8-0.6c-0.1-0.4,0.1-0.2,0.2-0.1
						c0.1,0.1,0.3,0.2,0.1-0.3c0-0.1,0-0.1,0-0.2c0-0.1,0.3,0.2,0.2-0.1c-0.1-0.2,0.1-0.1,0.1-0.2c0-0.1,0.3,0.1,0-0.3
						c0.6,0.5-0.1-0.5,0.2-0.3c0.1,0.1,0.2,0.1,0.3,0.1c0,0,0.1,0.1,0.1,0c-0.4-0.7,0.3-0.6,0.3-1.1c0-0.1-0.1-0.2-0.2-0.2
						c0,0,0-0.1,0-0.1c0.4-0.1,0.3-0.1,0.1-0.4c-0.1-0.1,0-0.1,0-0.2c0-0.2,0.2-0.2-0.1-0.5c-0.3-0.2,0.3-0.2,0.6-0.3
						c0.3-0.1,0.6-0.2,0.6-0.3c0-0.4,0.2-0.8,0.2-1.3c0-0.1,0.1-0.1,0-0.2c-0.6-0.2-1-0.3,0.1-0.4c0,0,0.1,0,0-0.1
						c-0.6-0.2-0.3-0.3-0.3-0.4c0.1-0.5-0.5-1-0.3-1.4c0-0.1-0.1-0.2,0.1-0.2c0.4-0.1-0.3-0.2-0.1-0.2c0.1-0.1-0.1-0.2,0.1-0.2
						c0.7-0.2,0.5-0.4,0.3-0.6c-0.2-0.2-0.4-0.4-0.2-0.6c0.4-0.3,0.2-0.7,0.3-1c0-0.2,0-0.5-0.1-0.7c0-0.1,0.2-0.3-0.4-0.2
						c-0.1,0-0.1,0,0-0.1c0.1-0.1,0.3-0.2,0.2-0.3c0-0.1-0.2,0-0.4,0c-0.1,0,0-0.1-0.3,0c-0.2,0.1-0.1-0.1,0.2-0.2
						c0.5-0.4,0.9-0.9,0.7-1c-0.2-0.1-0.2-0.3-0.4-0.4c-0.1,0-0.1-0.1-0.3,0c-0.2,0.1-0.2,0-0.2-0.2c0.1-0.3,0-0.4-0.3-0.2
						c-0.1,0.1-0.1,0-0.2,0c-0.3-0.2-0.5-0.3-0.8-0.4c-0.1,0-0.2,0-0.1-0.4c-0.2,0.4-0.2,0.3-0.3,0.2c-0.1-0.1-0.1-0.3-0.2-0.4
						c-0.1-0.1-0.3-0.1-0.5,0.2c-0.2,0.2-0.2-0.2-0.4,0.1c0,0.1,0-0.2-0.1-0.2c-0.2,0.1-0.3-0.4-0.5,0.3c0,0.1,0,0-0.1,0
						c-0.1-0.7-0.3-0.2-0.5,0c-0.2,0.2-0.3-0.4-0.5-0.4c-0.2,0-0.4,0.2-0.6,0c-0.4-0.5-0.7-0.2-1.1-0.2c-0.4,0-0.7,0.1-1.1,0.2
						c-0.2,0-0.2,0.3-0.4,0.4c-0.2,0.1-0.3,0.1-0.5,0.2c-0.2,0-0.3,0.1-0.5,0.1c-0.1,0-0.1,0.2-0.3-0.1c0-0.1-0.1-0.1-0.1,0
						c0,0.5-0.1,0.5-0.4,0.2c-0.1-0.1-0.1,0-0.2,0c-0.2-0.1-0.1,0.3-0.1,0.5c0,0.1-0.4-0.2-0.1,0.4c0,0.1,0,0.1-0.1,0
						c-0.4-0.4-0.4-0.2-0.3,0c0,0.2,0.1,0.4-0.3,0.1c0.4,0.5-0.2,0-0.1,0.1c0,0.1,0.1,0.3,0.1,0.3c0,0-0.1,0.1-0.1,0.1
						c0,0.1-0.2,0,0.2,0.3c0.2,0.1,0.3,0.1-0.2,0c-0.1,0-0.1,0-0.1,0c0.2,0.1-0.3,0-1.3,0c-0.5,0-1.2,0-1.7-0.1
						c-0.3,0-0.4-0.2-0.6-0.3c-0.3-0.2-0.8-0.5-0.8-0.7C201.9,269.9,202.1,269.7,202.2,269.4z"/>
				</g>
			</g>
		</g>
	</g>
	<g>
		<g>
			<g>
				<g>
					<path class="st0" d="M186.6,313c0-0.3,0.3-0.4,0.5-0.5c0.3-0.1,0.6-0.1,0.7-0.4c0.1-0.2,0.3-0.4,0.5-0.5
						c0.2-0.1,0.4-0.2,0.6-0.3c0.2-0.1,0.3-0.3,0.4-0.6c0.1-0.3,0.5,0.1,0.4-0.6c0-0.1,0.1,0,0.1,0c0.5-0.2,0.9-0.6,1.4-0.4
						c0.6,0.3,1.1-0.1,1.6,0c0.8-0.8,1.7-0.3,2.5-0.4c0.3,0,0.5-0.1,0.8,0.3c0.2,0.4,0.5-0.2,0.7,0.5c0,0.1,0.1-0.1,0.1-0.1
						c0.1-0.1,0.2-0.2,0.3-0.1c0.4,0.5,0.4,0.5,0.8,0.2c0.1,0,0,0.3,0.1,0.3c0.2,0.1,0.4,0.2,0.6,0.2c0.2,0,0.3,0.4,0.7-0.1
						c0.1-0.1,0.1,0,0.2,0.1c0.2,0.1,0.4,0.2,0.6,0.2c0.3,0.1,0.3,0.4,0.8,0.1c0.2-0.2,0,0.5,0.2,0.4c0.2-0.1,0.4-0.1,0.5,0
						c0.1,0.1,0,0.4,0.1,0.5c0.1,0.1,0.3-0.1,0.4-0.1c0.3,0.1,0.3,0.5,0.7,0.5c0.4,0,0.6,0.2,0.8,0.4c0.2,0.2,0.4,0.5,0.6,0.7
						c0.2,0.2,0.1,0.5,0.1,0.8c0,0.3,0.5,0.3,0,0.7c0,0,0,0,0,0c0.1,0.4,0,0.9,0.1,1.3c0,0.4,0.1,0.7,0.1,1c0,0.3,0.1,0.7,0,1
						c0,0.2,0.2,0.4-0.4,0.5c-0.1,0,0,0.1,0,0.1c-0.3,0.1,0.7,0.3,0.2,0.4c-0.4,0.1-0.2,0.2-0.3,0.4c-0.1,0.1,0,0.3-0.1,0.4
						c0,0.1,0,0.2,0.3,0.3c-0.6,0-0.2,0.2-0.5,0.3c-0.2,0.1-0.4,0.2-0.2,0.3c0.4,0.2,0.2,0.3,0.2,0.5c0,0.2-0.2,0.4,0.2,0.7
						c0.2,0.1,0,0.2,0,0.3c-0.1,0.1-0.3,0.1-0.4,0.2c-0.1,0.2-0.1,0.3,0.2,0.6c0.2,0.2-0.4,0.3,0.2,0.6c0.1,0,0,0.1,0,0.1
						c-0.3,0.1-0.5,0.2-0.2,0.5c0.2,0.2-0.1,0.4-0.1,0.5c-0.1,0.2,0,0.4-0.2,0.6c-0.1,0.1,0.6,0.4,0.1,0.4c-0.3,0-0.2,0.2-0.3,0.3
						c-0.1,0.1,0,0.3-0.2,0.3c-0.9,0.3-0.7,1.1-1.3,1.6c-0.2,0.2,0,0.8-0.8,0.5c0.3,0.5-0.2,0.4-0.1,0.8c0.1,0.3-0.1,0.3-0.2,0.4
						c-0.6,0.6-1.5,1-2.3,1.3c-0.5,0.2-1.1,0.5-1.6,0.6c-0.2,0-0.3,0.1-0.5-0.2c-0.1-0.3-0.3-0.3-0.5,0.2c0,0.1-0.1,0.2-0.1,0.1
						c-0.3-0.8-0.6,0-0.9,0c-0.3,0-0.5-0.1-0.8-0.3c-0.2-0.1-0.4-0.3-0.6-0.3c-0.1,0-0.2-0.3-0.3,0.3c0-0.5-0.1-0.3-0.2-0.1
						c-0.1,0.2-0.3,0.2-0.3-0.1c0-0.4-0.2-0.3-0.3-0.3c-0.1-0.1-0.2,0-0.4-0.1l-0.7-0.3c-0.3-0.1-0.5-0.3-0.7-0.4
						c-0.1-0.1-0.1-0.3-0.2-0.4c-0.1-0.1-0.3,0.1-0.2-0.4c0-0.2-0.1-0.1-0.2-0.1c-0.3-0.1-0.4-0.5-0.8-0.3c-0.4,0.2-0.4-0.4-1,0
						c-0.2,0.1-0.2-0.1-0.3-0.2c-0.5-0.2-0.3-0.9-1.1-0.8c0.3-0.4,0.1-0.5,0-0.6c-0.1-0.1,0.1-0.3-0.4-0.2c-0.1,0-0.1,0-0.1-0.1
						c0-0.2,0.3-0.5,0.1-0.6c-0.1-0.1-0.5-0.1-0.5-0.2c-0.1-0.3,0-0.6,0-0.8c0.1-0.3,0.1-0.5-0.1-0.7c0.4-0.2,0.3-0.3,0.3-0.5
						c0-0.2-0.5-0.4-0.5-0.7c0.1-0.3,0.2-0.5-0.1-0.7c-0.5-0.4-0.2-0.8-0.3-1.2c0-0.1-0.2-0.2,0.3-0.3c0.1,0,0.1-0.1-0.1-0.2
						c-0.3-0.1-0.1-0.1-0.2-0.2c-0.3-0.2,1-0.3,0-0.5l0-0.6c0-0.2,0-0.4,0-0.6c0-0.1-0.1-0.2,0.3-0.2c0.2,0,0.3-0.2,0.1-0.3
						c-0.5-0.2-0.3-0.3-0.2-0.5c0-0.4,0-0.9,0.1-1.3c0-0.2,0.3-0.3,0.4-0.5c0.1-0.2-0.2-0.4,0.3-0.5c0,0,0,0,0,0
						c-0.1-0.1-0.2-0.2-0.2-0.2c0-0.1,0.5-0.1,0.3-0.2c-0.3-0.2,0.1-0.2,0.1-0.2c0.2-0.2,1.1-0.2,2.2,0c0.2,0,0.5,0.1,0.7,0.2
						c1.2,0.4,1.1,0.4,1.2,0.7c0,0.4-0.7,0.7-0.5,1.1c-0.7,0.2-0.3,0.5-0.5,0.7c-0.2,0.3-0.7,0.5-0.4,0.8c0.3,0.3,0.2,0.6,0.2,0.8
						c0,0.2-0.3,0.4-0.3,0.6c-0.1,0.2,0.1,0.4-0.1,0.6c-0.1,0.1-0.5,0.2-0.3,0.4c0.5,0.3,0.1,0.5,0.4,0.8c0.4,0.3,0.1,0.7,0.4,1
						c0.1,0.2,0.3,0.3,0.3,0.5c0,0.1,0,0.1-0.2,0.3c-0.2,0.1-0.2,0.2,0.2,0.3c0.2,0,0.3,0,0.2,0.1c-0.5,0.2-0.3,0.4-0.2,0.5
						c0,0.1-0.4,0.3-0.2,0.3c0.4,0,0.2,0.1,0.3,0.2c0,0,0.2,0-0.2,0.3c-0.1,0.1-0.1,0.1,0,0.1c0.6-0.2,0.4,0,0.4,0.1
						c0.1,0.2,0.3,0.3,0.3,0.5c0.1,0.1,0.6-0.3,0.6,0c0.4-0.4,0.3-0.2,0.4-0.1c0,0,0.1,0.3,0.1,0.4c0,0.1,0.2,0.1,0.2,0.4
						c0,0.4,0.3,0.1,0.4,0.2c0.1,0.1,0.3-0.2,0.2,0.3c0,0.1,0,0.1,0.1,0c0.3-0.5,0.4-0.4,0.4-0.1c0.1,0.4,0.3,0.3,0.5,0.4
						c0.2,0.1,0.3,0,0.5,0.1c0.1,0.1,0.3,0,0.3,0.2c0.1,0.2,0.2-0.1,0.4-0.1c0.1,0,0.2,0,0.3,0l0.3,0c0.1,0,0.2,0,0.3,0
						c0.1,0,0.2,0,0.3,0c0.1,0.1,0.2,0.3,0.3,0.3c0.3,0,0.5-0.6,0.8-0.4c0-0.4,0.1-0.1,0.2-0.1c0.1,0.1,0.2,0.2,0.1-0.2
						c0-0.1,0-0.1,0-0.1c0-0.1,0.2,0.3,0.2,0c-0.1-0.2,0.1-0.1,0.1-0.1c0-0.1,0.2,0.2,0-0.3c0.6,0.6-0.1-0.5,0.2-0.2
						c0.1,0.1,0.2,0.1,0.2,0.1c0,0,0.1,0.1,0.1,0c-0.3-0.7,0.3-0.5,0.3-0.9c0,0-0.1-0.2-0.2-0.2c0,0,0-0.1,0-0.1
						c0.4,0,0.3,0,0.2-0.3c0-0.1,0-0.1,0-0.1c0-0.1,0.2-0.2-0.1-0.4c-0.3-0.3,0.3-0.1,0.7-0.2c0.3,0,0.6-0.1,0.6-0.2
						c0-0.4,0.2-0.7,0.3-1.1c0,0,0.1-0.1,0-0.1c-0.6-0.3-0.9-0.4,0.1-0.3c0,0,0.1,0,0-0.1c-0.6-0.2-0.3-0.3-0.2-0.4
						c0.2-0.4-0.4-0.9-0.1-1.3c0.1-0.1-0.1-0.2,0.1-0.2c0.4,0-0.2-0.2-0.1-0.2c0.1,0-0.1-0.2,0.1-0.2c0.7-0.1,0.5-0.3,0.3-0.5
						c-0.2-0.2-0.4-0.4-0.1-0.5c0.5-0.2,0.3-0.6,0.4-0.8c0-0.2,0.1-0.4,0-0.6c0-0.1,0.2-0.2-0.3-0.2c-0.1,0-0.1,0,0-0.1
						c0.1-0.1,0.3-0.2,0.3-0.2c0-0.1-0.2,0-0.3-0.1c-0.1,0,0-0.1-0.3,0c-0.2,0.1,0,0,0.2-0.2c0.5-0.3,1-0.7,0.8-0.8
						c-0.2-0.1-0.2-0.3-0.3-0.4c-0.1,0-0.1-0.1-0.3,0c-0.2,0.1-0.2,0-0.1-0.2c0.1-0.3,0.1-0.4-0.2-0.2c-0.1,0.1-0.1,0-0.2,0
						c-0.2-0.2-0.4-0.3-0.7-0.5c-0.1,0-0.2,0,0-0.4c-0.3,0.4-0.3,0.2-0.3,0.2c-0.1-0.1-0.1-0.3-0.1-0.4c-0.1-0.1-0.2-0.1-0.4,0.1
						c-0.2,0.2-0.2-0.2-0.4,0.1c0,0.1,0-0.2,0-0.2c-0.2,0.1-0.2-0.4-0.5,0.2c0,0.1-0.1,0,0,0c0-0.7-0.3-0.2-0.4-0.1
						c-0.2,0.2-0.2-0.4-0.4-0.4c-0.2,0-0.4,0.2-0.6-0.1c-0.3-0.5-0.6-0.3-0.9-0.3c-0.3-0.1-0.7,0-1,0c-0.1,0-0.3,0.3-0.4,0.4
						c-0.1,0.1-0.3,0.1-0.4,0.1c-0.1,0-0.3,0.1-0.4,0.1c-0.1,0-0.1,0.2-0.2-0.2c0-0.1-0.1-0.1-0.1,0c0,0.5-0.1,0.5-0.3,0.1
						c-0.1-0.1-0.1,0-0.1,0c-0.2-0.1-0.1,0.3-0.2,0.4c0,0.1-0.3-0.2-0.1,0.4c0,0.1,0,0.1,0,0c-0.3-0.4-0.3-0.2-0.3,0
						c0,0.2,0.1,0.4-0.2,0c0.3,0.5-0.1,0-0.1,0.1c0,0.1,0.1,0.3,0.1,0.3c0,0-0.1,0-0.1,0.1c0,0.1-0.2,0,0.2,0.3
						c0.1,0,0.2,0.1,0.1,0.1c0,0-0.1,0-0.3-0.1c-0.1,0-0.1,0-0.1,0c0.2,0.1-0.3-0.1-1.2-0.2c-0.5-0.1-1.2-0.2-1.7-0.3
						c-0.3-0.1-0.4-0.2-0.6-0.4c-0.3-0.2-0.7-0.6-0.7-0.8C186.2,313.4,186.4,313.2,186.6,313z"/>
				</g>
			</g>
		</g>
	</g>
	<g>
		<g>
			<g>
				<g>
					<path class="st0" d="M313.9,264.6c-0.3-0.1,0.5-0.2,0.4-0.3c-0.1-0.1,0-0.3,0-0.4c0-0.1-0.1-0.1-0.3-0.2
						c-0.2-0.1,0.3-0.1-0.4-0.2c-0.1,0,0,0,0,0c0-0.2-0.3-0.3,0.1-0.5c0.4-0.2,0.1-0.4,0.2-0.5c-0.8-0.2-0.2-0.5-0.4-0.8
						c-0.1-0.1-0.2-0.1,0.2-0.3c0.4-0.1-0.3-0.1,0.3-0.3c0.1,0-0.1,0-0.1,0c-0.1,0-0.3,0-0.2-0.1c0.3-0.2,0.3-0.2,0-0.3
						c0,0,0.2-0.1,0.2-0.1c0-0.1,0.1-0.2,0-0.2c-0.1-0.1,0.3-0.2-0.3-0.1c-0.1,0,0,0,0-0.1c0-0.1,0-0.1-0.1-0.2
						c-0.1-0.1,0.2-0.2-0.4-0.2c-0.2,0,0.4-0.2,0.2-0.2c-0.3,0-0.3,0-0.3,0c0,0,0.3-0.1,0.3-0.2c0,0-0.3,0-0.3,0
						c-0.1-0.1,0.2-0.2-0.1-0.2c-0.3,0-0.3-0.1-0.3-0.1c-0.1-0.1,0-0.2-0.1-0.2c-0.1,0,0.2-0.2,0.3-0.3c0.1-0.1-0.3,0,0.3-0.3
						c0,0,0,0,0,0c0.1-0.2,0.2-0.3,0.2-0.5c0-0.2-0.1-0.4-0.2-0.6c0-0.1-0.2,0,0.2-0.3c0.1-0.1-0.1,0,0-0.1c0.3-0.2-0.7,0.2-0.3-0.1
						c0.4-0.2,0.1-0.2,0.1-0.2c0-0.1-0.1-0.1-0.1-0.2c0,0-0.1,0-0.4,0c0.5-0.3,0.1-0.2,0.4-0.4c0.2-0.1,0.3-0.2,0.1-0.2
						c-0.4,0.1-0.3,0-0.3,0c-0.1,0,0-0.2-0.4-0.1c-0.2,0.1-0.1,0-0.1-0.1c0-0.1,0.2-0.2,0.2-0.2c0-0.1,0-0.1-0.4-0.1
						c-0.3,0.1,0.2-0.3-0.4,0c-0.1,0-0.1,0,0,0c0.2-0.2,0.3-0.3-0.1-0.2c-0.3,0.1-0.1-0.1-0.2-0.1c0-0.1-0.2-0.1-0.1-0.2
						c0.1-0.1-0.7,0.3-0.2,0c0.2-0.2,0.1-0.1,0.1-0.2c0,0-0.1,0-0.1-0.1l4.2-1.4l0,0c-0.7,0.3-0.1,0.5-0.3,0.7
						c-0.1,0.1,0.4,0.2-0.3,0.3c0.6,0,0.1,0.2,0.5,0.2c0.2,0,0.2,0.1,0.2,0.1c0.1,0.3,0,0.5,0.1,0.8c0.1,0.2,0.3,0.3,0.4,0.5
						c0,0,0.1,0.1-0.2,0.2c-0.2,0.1-0.3,0.2,0.2,0.1c0.1,0,0.2,0,0.1,0c-0.8,0.2,0.1,0.2,0.1,0.3c0.1,0.2-0.4,0.5-0.3,0.6
						c0,0-0.2,0.1,0.3,0.1c-0.4,0.1-0.2,0.1,0,0.1c0.2,0,0.3,0.1,0,0.1c-0.3,0.1-0.2,0.1-0.2,0.2c0,0.1,0,0.1,0,0.1
						c-0.1,0.2-0.1,0.4-0.2,0.7c0,0-0.2,0.1-0.3,0.2c-0.1,0.1,0.2,0-0.3,0.2c-0.2,0.1,0,0.1,0,0.1c0,0.1-0.2,0.3,0.1,0.3
						c0.4,0,0,0.2,0.6,0.1c0.2,0,0,0.1,0.1,0.1c0.2,0.1-0.3,0.4,0.4,0.3c-0.4,0.2-0.3,0.2-0.3,0.2c0,0-0.2,0.1,0.3,0
						c0.1,0,0.1,0,0,0c-0.1,0.1-0.4,0.2-0.3,0.2c0.1,0,0.4,0,0.4,0c0,0.2-0.5,0.5-0.2,0.6c-0.4,0.2-0.3,0.2-0.3,0.3
						c0,0.1,0.5,0,0.4,0.2c-0.1,0.1-0.2,0.3,0.1,0.3c0.5,0,0.3,0.2,0.4,0.3c0,0,0.2,0-0.2,0.2c-0.1,0,0,0.1,0.1,0
						c0.3-0.1,0.1,0,0.2,0c0.3,0-0.9,0.4,0.1,0.2l0.1,0.2c0,0.1,0.1,0.1,0.1,0.2c0,0,0.1,0-0.2,0.2c-0.2,0.1-0.2,0.2,0,0.1
						c0.5-0.1,0.3,0,0.3,0.1c0.1,0.1,0.2,0.3,0.2,0.5c0,0.1-0.1,0.2-0.2,0.3c-0.1,0.1,0.3,0-0.1,0.3c0,0,0,0,0,0c0.1,0,0.2,0,0.2,0
						c0,0-0.4,0.3-0.2,0.2c0.3-0.1,0,0.1,0,0.1c-0.1,0.1-0.9,0.6-1.9,1.1c-0.2,0.1-0.5,0.2-0.7,0.3c-1.2,0.4-1.1,0.4-1.2,0.3
						c-0.2-0.2,0.4-0.6,0.1-0.7c0.5-0.4,0.1-0.3,0.2-0.5c0.1-0.2,0.5-0.5,0.1-0.5c-0.4,0-0.4-0.2-0.4-0.3c0-0.1,0.2-0.3,0.2-0.4
						c0-0.1-0.2-0.2-0.1-0.3c0.1-0.1,0.4-0.3,0.2-0.3c-0.5,0-0.2-0.2-0.5-0.3c-0.4-0.1-0.2-0.3-0.5-0.4c-0.2-0.1-0.3-0.1-0.3-0.2
						c0,0,0-0.1,0.2-0.2c0.2-0.1,0.2-0.2-0.1-0.1c-0.1,0-0.3,0-0.1-0.1c0.5-0.2,0.3-0.3,0.2-0.3c0-0.1,0.4-0.2,0.2-0.2
						c-0.4,0-0.2-0.1-0.3-0.1c0,0-0.2,0,0.2-0.2c0.1,0,0.1-0.1,0-0.1c-0.6,0.1-0.3-0.1-0.4-0.1c-0.1-0.2-0.1-0.3-0.1-0.5
						c0-0.1-0.7-0.1-0.4-0.3c-0.6,0.1-0.4-0.1-0.4-0.2c0-0.1,0.2-0.2,0.3-0.3c0.1-0.1,0-0.1,0.2-0.3c0.3-0.2,0-0.2,0-0.3
						c0-0.1-0.3-0.1,0.2-0.2c0.1,0,0.1,0,0,0c-0.6,0.1-0.5-0.1-0.2-0.2c0.3-0.2,0.2-0.2,0.2-0.4c0-0.1-0.1-0.2,0-0.3
						c0-0.1-0.1-0.1,0.1-0.2c0.2-0.1-0.1-0.1-0.2-0.1c0,0,0-0.1,0-0.2l0-0.2l0-0.2c0-0.1-0.1-0.1,0-0.2c0-0.1,0.3-0.2,0.3-0.2
						c0-0.2-0.6-0.3-0.4-0.5c-0.4,0-0.1-0.1-0.1-0.1c0.1-0.1,0.2-0.1-0.2-0.1c-0.1,0-0.1,0-0.1,0c-0.1,0,0.3-0.1,0-0.1
						c-0.2,0,0-0.1-0.1-0.1c-0.1,0,0.2-0.1-0.3-0.1c0.8-0.2-0.5-0.1-0.1-0.2c0.1,0,0.2-0.1,0.2-0.1c0,0,0.1,0,0.1-0.1
						c-0.8-0.1-0.2-0.4-0.4-0.7c0,0-0.2,0-0.3-0.1c0,0-0.1,0,0,0c0.3-0.2,0.3-0.2,0-0.3c-0.1,0,0-0.1-0.1-0.1
						c-0.1-0.1,0-0.2-0.3-0.2c0,0,0,0-0.1,0l-1.8-0.7l7.3-1.1c0.2,0-0.2,0.3-0.4,0.5c-0.2,0.2-0.4,0.4-0.3,0.5
						c0.2,0.2,0.2,0.4,0.3,0.6c0,0-0.1,0.1,0.1,0.1c0.6-0.2,0.9-0.4,0.1,0.2c0,0,0,0,0,0c0.6-0.2,0.3,0,0.4,0c0,0.2,0.8,0.1,0.6,0.5
						c0,0.1,0.1,0,0,0.1c-0.4,0.2,0.3-0.1,0.2,0.1c-0.1,0.1,0.2,0,0,0.1c-0.5,0.4-0.3,0.4-0.1,0.4c0.2,0,0.5,0,0.3,0.2
						c-0.3,0.3-0.1,0.4-0.1,0.6c0,0.2,0.1,0.3,0.2,0.5c0,0.1-0.2,0.2,0.4,0.1c0.1,0,0.1,0,0,0.1c-0.1,0.1-0.3,0.2-0.2,0.3
						c0,0,0.3,0,0.4,0c0.1,0,0,0.1,0.3,0c0.2,0,0.1,0.1-0.2,0.2c-0.5,0.3-1.1,0.6-0.9,0.7c0.1,0.1,0.1,0.2,0.1,0.3
						c0,0,0,0.1,0.3,0.1c0.3,0,0.2,0.1,0,0.2c-0.3,0.2-0.3,0.2,0.1,0.2c0.1,0,0.1,0,0.1,0.1c0.1,0.2,0.1,0.4,0.2,0.6
						c0,0,0.1,0.1-0.3,0.2c0.5-0.1,0.3,0,0.3,0c0,0.1-0.2,0.2-0.3,0.3c0,0.1,0,0.1,0.3,0.1c0.3,0-0.1,0.2,0.3,0.2
						c0.1,0-0.2,0.1-0.2,0.1c0.1,0.1-0.3,0.2,0.4,0.2c0.1,0,0.1,0,0,0c-0.7,0.2-0.1,0.2,0.1,0.3c0.2,0.1-0.3,0.3-0.3,0.4
						c0,0.1,0.3,0.2,0,0.4c-0.4,0.3-0.2,0.4-0.2,0.6c0,0.2,0,0.4,0.1,0.6c0,0.1,0.3,0.1,0.3,0.2c0.1,0.1,0,0.2,0,0.3
						c0,0.1,0,0.2,0,0.3c0,0,0.2,0.1-0.2,0.1c-0.1,0-0.1,0,0,0c0.5,0.1,0.4,0.1,0,0.2c-0.1,0,0,0.1-0.1,0.1
						c-0.2,0.1,0.2,0.1,0.4,0.2c0.1,0.1-0.3,0.1,0.3,0.2c0.1,0,0.1,0,0,0c-1.1,0.1,0.7,0.3-0.3,0.4c0.6,0.1-0.1,0.1,0,0.1
						c0.1,0.1,0.3,0.1,0.3,0.2c0,0.1,0,0.1,0,0.2c0.1,0.1-0.2,0.2,0.3,0.4c0.2,0.1,0.3,0.1-0.2,0.1c-0.1,0-0.1,0-0.1,0
						c0.2,0.2-0.4,0.3-1.3,0.2c-0.5-0.1-1.2-0.2-1.7-0.3c-0.3,0-0.4-0.1-0.6-0.1c-0.3-0.1-0.8-0.2-0.9-0.2
						C313.8,264.7,313.9,264.7,313.9,264.6z"/>
				</g>
			</g>
		</g>
	</g>
</g>
</svg>
